<svg width="25" height="24" viewBox="0 0 25 24" fill="none" xmlns="http://www.w3.org/2000/svg">
<path fill-rule="evenodd" clip-rule="evenodd" d="M12.7126 11C13.0315 11 13.2901 11.2586 13.2901 11.5776C13.2901 12.6067 14.5344 13.1221 15.2621 12.3944C15.4876 12.1688 15.8533 12.1688 16.0789 12.3944L16.8049 13.1203C17.0304 13.3459 17.0304 13.7116 16.8049 13.9372C16.0772 14.6648 16.5925 15.9091 17.6217 15.9091C17.9406 15.9091 18.1992 16.1677 18.1992 16.4867V17.5133C18.1992 17.8323 17.9406 18.0909 17.6217 18.0909C16.5925 18.0909 16.0772 19.3352 16.8048 20.0628C17.0304 20.2884 17.0304 20.6541 16.8048 20.8797L16.0789 21.6056C15.8533 21.8312 15.4876 21.8312 15.2621 21.6056C14.5344 20.8779 13.2901 21.3933 13.2901 22.4224C13.2901 22.7414 13.0315 23 12.7126 23H11.6859C11.3669 23 11.1083 22.7414 11.1083 22.4224C11.1083 21.3933 9.86408 20.8779 9.13639 21.6056C8.91084 21.8312 8.54515 21.8312 8.3196 21.6056L7.59362 20.8797C7.36807 20.6541 7.36807 20.2884 7.59362 20.0629C8.32132 19.3352 7.80591 18.0909 6.7768 18.0909C6.45781 18.0909 6.19922 17.8323 6.19922 17.5133V16.4867C6.19922 16.1677 6.4578 15.9091 6.77679 15.9091C7.8059 15.9091 8.32128 14.6648 7.59359 13.9372C7.36803 13.7116 7.36803 13.3459 7.59359 13.1203L8.31956 12.3944C8.54512 12.1688 8.91081 12.1688 9.13637 12.3944C9.86406 13.1221 11.1083 12.6067 11.1083 11.5776C11.1083 11.2586 11.3669 11 11.6859 11H12.7126ZM12.1992 18.2C12.862 18.2 13.3992 17.6627 13.3992 17C13.3992 16.3373 12.862 15.8 12.1992 15.8C11.5365 15.8 10.9992 16.3373 10.9992 17C10.9992 17.6627 11.5365 18.2 12.1992 18.2Z" fill="#1B3C4C"/>
<path d="M12.1992 1C8.81725 1 6.03322 3.51863 5.55689 6.78272C3.12203 6.89545 1.19922 8.92438 1.19922 11.3889C1.19922 13.2661 2.31241 14.8854 3.91503 15.604C4.17419 15.7202 4.47054 15.7208 4.73011 15.6055C4.98968 15.4902 5.18798 15.2699 5.27551 14.9998C5.3986 14.6198 5.66393 14.3006 6.00976 14.1076C6.41444 13.8817 6.61091 13.4074 6.48447 12.9615C6.33271 12.4264 6.4684 11.8313 6.88648 11.4132L7.61245 10.6873C8.03054 10.2692 8.62562 10.1335 9.16076 10.2852C9.60662 10.4117 10.0809 10.2152 10.3068 9.81055C10.5779 9.32483 11.0946 9 11.6859 9H12.7126C13.3038 9 13.8206 9.32484 14.0916 9.81056C14.3175 10.2152 14.7918 10.4117 15.2377 10.2853C15.7728 10.1335 16.3679 10.2692 16.786 10.6873L17.512 11.4132C17.9301 11.8313 18.0658 12.4264 17.914 12.9616C17.7876 13.4074 17.984 13.8817 18.3887 14.1076C18.7345 14.3006 18.9998 14.6198 19.1229 14.9997C19.2105 15.2699 19.4088 15.4902 19.6683 15.6055C19.9279 15.7208 20.2243 15.7202 20.4834 15.604C22.086 14.8854 23.1992 13.2661 23.1992 11.3889C23.1992 8.92438 21.2764 6.89546 18.8415 6.78272C18.3652 3.51864 15.5812 1 12.1992 1Z" fill="#1B3C4C"/>
</svg>
