<svg width="25" height="24" viewBox="0 0 25 24" fill="none" xmlns="http://www.w3.org/2000/svg">
<g clip-path="url(#clip0_5051_62235)">
<path fill-rule="evenodd" clip-rule="evenodd" d="M3.14854 17.6206C5.18511 20.852 8.78681 23 12.8919 23C17.96 23 21.6848 19.7414 23.2438 15.3334C23.428 14.8128 23.1552 14.2414 22.6345 14.0572C22.1138 13.8731 21.5424 14.1459 21.3583 14.6666C20.0325 18.415 16.9735 21 12.8919 21C9.56782 21 6.64092 19.295 4.94132 16.7112L6.1548 17.1154C6.67878 17.29 7.24504 17.0067 7.41959 16.4827C7.59413 15.9587 7.31086 15.3925 6.78688 15.2179L3.38733 14.0855C3.25907 14.0287 3.11878 13.9987 2.9755 13.9998C2.55418 13.9967 2.16041 14.2623 2.01988 14.6836L0.852433 18.1836C0.67768 18.7075 0.960726 19.2739 1.48463 19.4486C2.00854 19.6234 2.57492 19.3403 2.74967 18.8164L3.14854 17.6206Z" fill="#1B3C4C"/>
<path fill-rule="evenodd" clip-rule="evenodd" d="M2.96761 9.94277C2.44693 9.75861 2.17413 9.18723 2.35828 8.66656C3.91731 4.25862 7.64215 1 12.7102 1C16.8153 1 20.417 3.14799 22.4536 6.3794L22.8524 5.18358C23.0272 4.65967 23.5936 4.37663 24.1175 4.55138C24.6414 4.72613 24.9244 5.29251 24.7497 5.81642L23.5822 9.31642C23.4417 9.73771 23.0479 10.0033 22.6266 10.0002C22.4833 10.0013 22.343 9.97128 22.2148 9.9145L18.8152 8.78208C18.2912 8.60754 18.008 8.04127 18.1825 7.5173C18.3571 6.99332 18.9233 6.71004 19.4473 6.88459L20.6608 7.28881C18.9612 4.70501 16.0343 3 12.7102 3C8.62862 3 5.56958 5.58504 4.24382 9.33345C4.05967 9.85412 3.48829 10.1269 2.96761 9.94277Z" fill="#1B3C4C"/>
<path fill-rule="evenodd" clip-rule="evenodd" d="M6.80105 12C6.80105 8.68629 9.48734 6 12.8011 6C16.1148 6 18.8011 8.68629 18.8011 12C18.8011 15.3137 16.1148 18 12.8011 18C9.48734 18 6.80105 15.3137 6.80105 12ZM13.3011 10C13.3011 9.72386 13.0772 9.5 12.8011 9.5C12.5249 9.5 12.3011 9.72386 12.3011 10V12.6776C12.3011 12.7865 12.3366 12.8924 12.4022 12.9792L13.4022 14.3016C13.5688 14.5218 13.8824 14.5654 14.1026 14.3988C14.3229 14.2322 14.3664 13.9187 14.1999 13.6984L13.3011 12.5098V10Z" fill="#1B3C4C"/>
</g>
<defs>
<clipPath id="clip0_5051_62235">
<rect width="24" height="24" fill="white" transform="translate(0.800781)"/>
</clipPath>
</defs>
</svg>
