<svg width="25" height="24" viewBox="0 0 25 24" fill="none" xmlns="http://www.w3.org/2000/svg">
<path fill-rule="evenodd" clip-rule="evenodd" d="M3.40039 2C3.40039 1.44772 3.84811 1 4.40039 1H20.4004C20.9527 1 21.4004 1.44772 21.4004 2V22C21.4004 22.5523 20.9527 23 20.4004 23H4.40039C3.84811 23 3.40039 22.5523 3.40039 22V2ZM7.40039 9C7.95268 9 8.40039 8.55228 8.40039 8C8.40039 7.44772 7.95268 7 7.40039 7C6.84811 7 6.40039 7.44772 6.40039 8C6.40039 8.55228 6.84811 9 7.40039 9ZM10.4004 7C9.84811 7 9.40039 7.44772 9.40039 8C9.40039 8.55228 9.84811 9 10.4004 9H17.4004C17.9527 9 18.4004 8.55228 18.4004 8C18.4004 7.44772 17.9527 7 17.4004 7H10.4004ZM10.4004 11C9.84811 11 9.40039 11.4477 9.40039 12C9.40039 12.5523 9.84811 13 10.4004 13H17.4004C17.9527 13 18.4004 12.5523 18.4004 12C18.4004 11.4477 17.9527 11 17.4004 11H10.4004ZM9.40039 16C9.40039 15.4477 9.84811 15 10.4004 15H17.4004C17.9527 15 18.4004 15.4477 18.4004 16C18.4004 16.5523 17.9527 17 17.4004 17H10.4004C9.84811 17 9.40039 16.5523 9.40039 16ZM8.40039 12C8.40039 12.5523 7.95268 13 7.40039 13C6.84811 13 6.40039 12.5523 6.40039 12C6.40039 11.4477 6.84811 11 7.40039 11C7.95268 11 8.40039 11.4477 8.40039 12ZM7.40039 17C7.95268 17 8.40039 16.5523 8.40039 16C8.40039 15.4477 7.95268 15 7.40039 15C6.84811 15 6.40039 15.4477 6.40039 16C6.40039 16.5523 6.84811 17 7.40039 17Z" fill="#1B3C4C"/>
</svg>
