<svg width="24" height="24" viewBox="0 0 24 24" fill="none" xmlns="http://www.w3.org/2000/svg">
<path fill-rule="evenodd" clip-rule="evenodd" d="M16.9933 15.3295C19.3619 14.2074 21 11.795 21 9C21 5.13401 17.866 2 14 2C10.758 2 8.03074 4.20399 7.23483 7.19539C7.80273 7.0675 8.39349 7 9.00001 7C13.4183 7 17 10.5817 17 15C17 15.1104 16.9978 15.2202 16.9933 15.3295ZM15 8C15.5523 8 16 7.55228 16 7C16 6.44772 15.5523 6 15 6C14.4477 6 14 6.44772 14 7C14 7.55228 14.4477 8 15 8ZM18 7.5C18 7.77614 17.7762 8 17.5 8C17.2239 8 17 7.77614 17 7.5C17 7.22386 17.2239 7 17.5 7C17.7762 7 18 7.22386 18 7.5ZM13.5 5C13.7762 5 14 4.77614 14 4.5C14 4.22386 13.7762 4 13.5 4C13.2239 4 13 4.22386 13 4.5C13 4.77614 13.2239 5 13.5 5ZM19 11C19 11.5523 18.5523 12 18 12C17.4477 12 17 11.5523 17 11C17 10.4477 17.4477 10 18 10C18.5523 10 19 10.4477 19 11Z" fill="#1B3C4C"/>
<path fill-rule="evenodd" clip-rule="evenodd" d="M9 8.75C5.54822 8.75 2.75 11.5482 2.75 15C2.75 18.4518 5.54822 21.25 9 21.25C12.4518 21.25 15.25 18.4518 15.25 15C15.25 11.5482 12.4518 8.75 9 8.75ZM6.25 13C6.25 12.5858 6.58579 12.25 7 12.25C7.41421 12.25 7.75 12.5858 7.75 13C7.75 13.4142 7.41421 13.75 7 13.75C6.58579 13.75 6.25 13.4142 6.25 13ZM10.25 12.5C10.25 12.3619 10.3619 12.25 10.5 12.25C10.6381 12.25 10.75 12.3619 10.75 12.5C10.75 12.6381 10.6381 12.75 10.5 12.75C10.3619 12.75 10.25 12.6381 10.25 12.5ZM10.25 15.5C10.25 14.8096 10.8096 14.25 11.5 14.25C12.1904 14.25 12.75 14.8096 12.75 15.5C12.75 16.1904 12.1904 16.75 11.5 16.75C10.8096 16.75 10.25 16.1904 10.25 15.5ZM6.25 16.5C6.25 16.3619 6.36193 16.25 6.5 16.25C6.63807 16.25 6.75 16.3619 6.75 16.5C6.75 16.6381 6.63807 16.75 6.5 16.75C6.36193 16.75 6.25 16.6381 6.25 16.5ZM8.25 18.5C8.25 18.3619 8.36193 18.25 8.5 18.25C8.63807 18.25 8.75 18.3619 8.75 18.5C8.75 18.6381 8.63807 18.75 8.5 18.75C8.36193 18.75 8.25 18.6381 8.25 18.5Z" fill="#1B3C4C"/>
</svg>
