<svg width="25" height="24" viewBox="0 0 25 24" fill="none" xmlns="http://www.w3.org/2000/svg">
<path d="M12.4065 8.92109C11.3135 8.85587 10.2021 9.2384 9.37063 10.0699C7.82081 11.6197 7.83077 14.1424 9.39286 15.7045C10.955 17.2666 13.4777 17.2765 15.0275 15.7267C15.6998 15.0544 16.0786 14.1989 16.1645 13.3182L17.1616 12.3211L18.7338 12.2729C19.5227 12.2488 20.2889 11.9122 20.8638 11.3373L21.8185 10.3827C22.7077 13.7025 21.8601 17.3793 19.2701 19.9693C15.3956 23.8439 9.08881 23.819 5.18357 19.9138C1.27833 16.0085 1.25344 9.70176 5.12799 5.82721C7.84237 3.11283 11.7505 2.31227 15.1903 3.41897L14.0681 4.54112C13.4931 5.11604 13.1565 5.88221 13.1323 6.67109L13.0841 8.2435L12.4065 8.92109Z" fill="#1B3C4C"/>
<path fill-rule="evenodd" clip-rule="evenodd" d="M19.0331 4.09847C18.9235 3.76968 18.6515 3.52107 18.3142 3.44143C17.9769 3.3618 17.6224 3.46249 17.3773 3.70755L14.9024 6.18235C14.7148 6.36988 14.6095 6.62423 14.6095 6.88945L14.6094 9.30369L11.7204 12.1927C11.3298 12.5832 11.3298 13.2164 11.7204 13.6069C12.1109 13.9975 12.744 13.9975 13.1346 13.6069L16.0236 10.7179L18.4378 10.718C18.703 10.718 18.9573 10.6126 19.1449 10.4251L21.6198 7.95031C21.8649 7.70525 21.9656 7.35077 21.886 7.01346C21.8064 6.67615 21.5578 6.40412 21.229 6.29451L19.582 5.74547L19.0331 4.09847ZM16.6094 7.30372L17.6473 6.26589L17.8428 6.85222C17.9423 7.15082 18.1766 7.38515 18.4752 7.48469L19.0615 7.68015L18.0236 8.71797L16.6094 8.71793L16.6094 7.30372Z" fill="#1B3C4C"/>
</svg>
