<svg width="24" height="24" viewBox="0 0 24 24" fill="none" xmlns="http://www.w3.org/2000/svg">
<path d="M13.7778 1C14.3301 1 14.7778 1.44772 14.7778 2V6.40909C14.7778 6.83586 15.126 7.18182 15.5556 7.18182H20C20.5523 7.18182 21 7.62953 21 8.18182V17.2273C21 17.654 20.6518 18 20.2222 18H13V16.8988C14.2351 15.638 15 13.9081 15 12C15 8.13401 11.866 5 8 5C7.66048 5 7.3266 5.02417 7 5.07089V1.77273C7 1.34596 7.34822 1 7.77778 1H13.7778Z" fill="#1B3C4C"/>
<path d="M20.0282 5.12354C20.2182 5.31225 20.0845 5.63636 19.8168 5.63636H17.3333C16.781 5.63636 16.3333 5.18865 16.3333 4.63636V2.17359C16.3333 1.90679 16.6555 1.77273 16.8448 1.96077L20.0282 5.12354Z" fill="#1B3C4C"/>
<path fill-rule="evenodd" clip-rule="evenodd" d="M8 9C6.34315 9 5 10.3431 5 12C5 13.6569 6.34315 15 8 15C9.65685 15 11 13.6569 11 12C11 10.3431 9.65685 9 8 9ZM3 12C3 9.23858 5.23858 7 8 7C10.7614 7 13 9.23858 13 12C13 13.6358 12.2144 15.0882 11 16.0004V22.7662L8 20.9662L5 22.7662V16.0004C3.78555 15.0882 3 13.6358 3 12ZM7 16.9V19.2338L8 18.6338L9 19.2338V16.9C8.67689 16.9656 8.34247 17 8 17C7.65753 17 7.32311 16.9656 7 16.9Z" fill="#1B3C4C"/>
</svg>
