<svg width="24" height="24" viewBox="0 0 24 24" fill="none" xmlns="http://www.w3.org/2000/svg">
<path fill-rule="evenodd" clip-rule="evenodd" d="M10.5989 8C10.971 8 11.2727 8.30169 11.2727 8.67384C11.2727 9.87448 12.7244 10.4758 13.5734 9.62678C13.8365 9.36363 14.2632 9.36362 14.5263 9.62677L15.3733 10.4737C15.6364 10.7369 15.6364 11.1635 15.3733 11.4267C14.5243 12.2757 15.1256 13.7273 16.3262 13.7273C16.6983 13.7273 17 14.029 17 14.4011V15.5989C17 15.971 16.6983 16.2727 16.3262 16.2727C15.1255 16.2727 14.5243 17.7243 15.3732 18.5733C15.6364 18.8365 15.6364 19.2631 15.3732 19.5263L14.5263 20.3732C14.2631 20.6364 13.8365 20.6364 13.5733 20.3732C12.7243 19.5243 11.2727 20.1255 11.2727 21.3262C11.2727 21.6983 10.971 22 10.5989 22H9.4011C9.02895 22 8.72727 21.6983 8.72727 21.3262C8.72727 20.1256 7.27567 19.5243 6.4267 20.3732C6.16356 20.6364 5.73692 20.6364 5.47378 20.3732L4.6268 19.5263C4.36366 19.2631 4.36366 18.8365 4.6268 18.5733C5.47578 17.7243 4.87448 16.2727 3.67384 16.2727C3.30169 16.2727 3 15.971 3 15.5989V14.4011C3 14.029 3.30168 13.7273 3.67383 13.7273C4.87446 13.7273 5.47574 12.2757 4.62676 11.4267C4.36362 11.1635 4.36362 10.7369 4.62676 10.4737L5.47373 9.62677C5.73688 9.36362 6.16353 9.36362 6.42667 9.62677C7.27565 10.4757 8.72727 9.87447 8.72727 8.67383C8.72727 8.30168 9.02896 8 9.4011 8H10.5989ZM10 16.4C10.7732 16.4 11.4 15.7732 11.4 15C11.4 14.2268 10.7732 13.6 10 13.6C9.2268 13.6 8.6 14.2268 8.6 15C8.6 15.7732 9.2268 16.4 10 16.4Z" fill="#1B3C4C"/>
<path d="M15.7778 1C16.3301 1 16.7778 1.44772 16.7778 2V6.40909C16.7778 6.83586 17.126 7.18182 17.5556 7.18182H22C22.5523 7.18182 23 7.62953 23 8.18182V17.2273C23 17.654 22.6518 18 22.2222 18H16.7316C16.717 17.9212 16.6988 17.843 16.6768 17.7656C17.4662 17.3251 18 16.4815 18 15.5133V14.4867C18 13.5185 17.4662 12.675 16.6768 12.2344C16.9235 11.3647 16.7045 10.3908 16.0199 9.70613L15.2939 8.98016C14.6093 8.29554 13.6353 8.07655 12.7656 8.3232C12.3251 7.53382 11.4815 7 10.5133 7H9.48666C9.32029 7 9.1576 7.01576 9 7.04588V1.77273C9 1.34596 9.34822 1 9.77778 1H15.7778Z" fill="#1B3C4C"/>
<path d="M22.0282 5.12354C22.2182 5.31225 22.0845 5.63636 21.8168 5.63636H19.3333C18.781 5.63636 18.3333 5.18865 18.3333 4.63636V2.17359C18.3333 1.90679 18.6555 1.77273 18.8448 1.96077L22.0282 5.12354Z" fill="#1B3C4C"/>
</svg>
