<svg width="24" height="24" viewBox="0 0 24 24" fill="none" xmlns="http://www.w3.org/2000/svg">
<path fill-rule="evenodd" clip-rule="evenodd" d="M11 0C9.89543 0 9 0.895432 9 2C9 3.01752 7.76976 3.52712 7.05025 2.8076C6.2692 2.02656 5.00287 2.02656 4.22182 2.8076L2.80761 4.22182C2.02656 5.00287 2.02656 6.2692 2.80761 7.05024C3.52712 7.76976 3.01753 9 2 9C0.895431 9 0 9.89543 0 11V13C0 14.1046 0.895431 15 2 15C3.01759 15 3.52714 16.2303 2.80766 16.9498C2.02662 17.7308 2.02662 18.9971 2.80766 19.7782L4.22188 21.1924C5.00293 21.9734 6.26926 21.9734 7.05031 21.1924C7.76978 20.4729 9 20.9825 9 22C9 23.1046 9.89543 24 11 24H13C14.1046 24 15 23.1046 15 22C15 20.9825 16.2302 20.4729 16.9497 21.1924C17.7308 21.9734 18.9971 21.9734 19.7782 21.1924L21.1924 19.7782C21.9734 18.9971 21.9734 17.7308 21.1924 16.9497C20.4729 16.2302 20.9825 15 22 15C23.1046 15 24 14.1046 24 13V11C24 9.89543 23.1046 9 22 9C20.9825 9 20.4729 7.76978 21.1924 7.05026C21.9735 6.26921 21.9735 5.00288 21.1924 4.22183L19.7782 2.80762C18.9972 2.02657 17.7308 2.02657 16.9498 2.80762C16.2303 3.52715 15 3.01754 15 2C15 0.895431 14.1046 0 13 0H11ZM9.5 8.96364C9.5 7.5944 10.628 6.5 12 6.5C13.372 6.5 14.5 7.5944 14.5 8.96364C14.5 10.3329 13.372 11.4273 12 11.4273C10.628 11.4273 9.5 10.3329 9.5 8.96364ZM7.5 14.6909C7.5 13.3217 8.62798 12.2273 10 12.2273H14C15.372 12.2273 16.5 13.3217 16.5 14.6909V15.3455C16.5 15.5999 16.4024 15.8615 16.2637 16.0604C16.1322 16.2489 15.8757 16.5 15.5 16.5H8.5C8.12428 16.5 7.86781 16.2489 7.73633 16.0604C7.59758 15.8615 7.5 15.5999 7.5 15.3455V14.6909Z" fill="#1B3C4C"/>
</svg>
