<svg width="50" height="50" viewBox="0 0 50 50" fill="none" xmlns="http://www.w3.org/2000/svg">
<path d="M39.5833 29.1673C39.5833 30.3179 38.6505 31.2507 37.4999 31.2507C36.3493 31.2507 35.4166 30.3179 35.4166 29.1673C35.4166 28.0167 36.3493 27.084 37.4999 27.084C38.6505 27.084 39.5833 28.0167 39.5833 29.1673Z" fill="#1B3C4C"/>
<path fill-rule="evenodd" clip-rule="evenodd" d="M38.3128 6.33072C37.5045 6.16994 36.6668 6.25246 35.9054 6.56782C35.144 6.88319 34.4933 7.41724 34.0355 8.10245C33.5776 8.78765 33.3333 9.59323 33.3333 10.4173C33.3333 11.5679 32.4005 12.5007 31.2499 12.5007C30.0993 12.5007 29.1666 11.5679 29.1666 10.4173C29.1666 8.76914 29.6553 7.15798 30.571 5.78757C31.4867 4.41716 32.7882 3.34906 34.3109 2.71833C35.8336 2.08759 37.5092 1.92257 39.1257 2.24411C40.7422 2.56565 42.227 3.35933 43.3925 4.52476C44.5579 5.6902 45.3516 7.17506 45.6731 8.79157C45.9947 10.4081 45.8296 12.0836 45.1989 13.6063C44.5682 15.1291 43.5001 16.4306 42.1297 17.3462C41.3468 17.8694 40.4853 18.2531 39.5833 18.486V22.9173C39.5833 24.0679 38.6505 25.0007 37.4999 25.0007C36.3493 25.0007 35.4166 24.0679 35.4166 22.9173V17.709C35.4166 15.9139 36.8345 14.7545 38.1912 14.5263C38.7693 14.429 39.3231 14.2104 39.8148 13.8818C40.5 13.4239 41.034 12.7732 41.3494 12.0118C41.6648 11.2505 41.7473 10.4127 41.5865 9.60444C41.4258 8.79619 41.0289 8.05376 40.4462 7.47104C39.8635 6.88832 39.1211 6.49149 38.3128 6.33072Z" fill="#1B3C4C"/>
<path fill-rule="evenodd" clip-rule="evenodd" d="M8.33325 23.4382C8.33325 18.8358 12.0642 15.1048 16.6666 15.1048C21.269 15.1048 24.9999 18.8358 24.9999 23.4382C24.9999 28.0405 21.269 31.7715 16.6666 31.7715C12.0642 31.7715 8.33325 28.0405 8.33325 23.4382ZM2.08325 41.6673C2.08325 37.0649 5.81421 33.334 10.4166 33.334H22.9166C27.519 33.334 31.2499 37.0649 31.2499 41.6673V43.7507C31.2499 44.6676 30.9082 45.5916 30.4279 46.2929C29.9822 46.9439 29.0435 47.9173 27.6041 47.9173H5.72908C4.28963 47.9173 3.35096 46.9439 2.90523 46.2929C2.42501 45.5916 2.08325 44.6676 2.08325 43.7507V41.6673Z" fill="#1B3C4C"/>
</svg>
