<svg width="50" height="50" viewBox="0 0 50 50" fill="none" xmlns="http://www.w3.org/2000/svg">
<path fill-rule="evenodd" clip-rule="evenodd" d="M2.08325 25.0007C2.08325 12.3441 12.3434 2.08398 24.9999 2.08398C37.6564 2.08398 47.9166 12.3441 47.9166 25.0007C47.9166 37.6572 37.6564 47.9173 24.9999 47.9173C12.3434 47.9173 2.08325 37.6572 2.08325 25.0007ZM27.0833 14.584C27.0833 13.4334 26.1505 12.5007 24.9999 12.5007C23.8493 12.5007 22.9166 13.4334 22.9166 14.584V29.1673C22.9166 30.3179 23.8493 31.2507 24.9999 31.2507C26.1505 31.2507 27.0833 30.3179 27.0833 29.1673V14.584ZM24.9999 37.5007C26.1505 37.5007 27.0833 36.5679 27.0833 35.4173C27.0833 34.2667 26.1505 33.334 24.9999 33.334C23.8493 33.334 22.9166 34.2667 22.9166 35.4173C22.9166 36.5679 23.8493 37.5007 24.9999 37.5007Z" fill="#1B3C4C"/>
</svg>
