<svg width="24" height="24" viewBox="0 0 24 24" fill="none" xmlns="http://www.w3.org/2000/svg">
<path fill-rule="evenodd" clip-rule="evenodd" d="M3.55951 4.94564C2.16241 6.61551 1.25162 8.70619 1.04492 10.9999H4.03248C4.14531 9.26364 4.54951 7.61011 5.19269 6.13167C4.61127 5.77895 4.06487 5.38196 3.55951 4.94564ZM1.04492 12.9999C1.25162 15.2936 2.16241 17.3843 3.55952 19.0542C4.06489 18.6178 4.61129 18.2208 5.19272 17.8681C4.54953 16.3897 4.14533 14.7362 4.03248 12.9999H1.04492ZM4.98155 20.4702C6.08073 21.382 7.36025 22.084 8.7587 22.5146C7.74242 21.7571 6.85503 20.7786 6.13064 19.6392C5.72445 19.8919 5.34046 20.1699 4.98155 20.4702ZM15.0173 22.5809C16.5033 22.158 17.861 21.4305 19.0186 20.4702C18.644 20.1567 18.242 19.8676 17.816 19.6061C17.0479 20.7848 16.1018 21.7969 15.0173 22.5809ZM20.4406 19.0542C21.8377 17.3843 22.7485 15.2936 22.9552 12.9999H19.9665C19.8501 14.7306 19.434 16.3748 18.7735 17.8476C19.3676 18.2054 19.9254 18.6094 20.4406 19.0542ZM22.9552 10.9999C22.7485 8.7062 21.8377 6.61551 20.4406 4.94565C19.9255 5.39045 19.3676 5.79439 18.7735 6.1522C19.4341 7.62502 19.8501 9.26924 19.9666 10.9999H22.9552ZM19.0186 3.52957C17.8611 2.56935 16.5035 1.84188 15.0176 1.41895C16.102 2.203 17.0481 3.21501 17.8161 4.39365C18.2421 4.13219 18.644 3.84309 19.0186 3.52957ZM8.7585 1.48532C7.36013 1.91592 6.08067 2.61782 4.98155 3.52957C5.34044 3.82993 5.72443 4.10788 6.1306 4.36059C6.85495 3.22124 7.74229 2.24276 8.7585 1.48532ZM11.0001 2.44467C9.82896 3.03804 8.77177 4.00691 7.9344 5.25624C8.88745 5.62238 9.91784 5.86435 11.0001 5.95723V2.44467ZM16.0024 18.7194C15.1808 19.9109 14.1511 20.8618 13.0001 21.491V18.0426C14.0584 18.1334 15.0671 18.3668 16.0024 18.7194ZM17.9619 12.9999C17.8519 14.433 17.5081 15.7684 16.9843 16.9559C15.7489 16.4573 14.4068 16.1392 13.0001 16.0363V12.9999H17.9619ZM16.9843 7.04394C17.5081 8.23138 17.852 9.56679 17.962 10.9999H13.0001V7.96349C14.4068 7.86061 15.7489 7.5425 16.9843 7.04394ZM13.0001 2.50871C14.1511 3.13787 15.1809 4.08882 16.0024 5.28035C15.0671 5.63301 14.0584 5.8664 13.0001 5.95723V2.50871ZM11.0001 21.5551V18.0426C9.91786 18.1355 8.88748 18.3774 7.93445 18.7436C8.77181 19.9929 9.82898 20.9617 11.0001 21.5551ZM6.979 16.9708C8.22453 16.4637 9.57938 16.1402 11.0001 16.0363V12.9999H6.03642C6.1422 14.4453 6.47474 15.7854 6.979 16.9708ZM6.03641 10.9999H11.0001V7.96349C9.57937 7.85958 8.22451 7.53614 6.97897 7.02898C6.47472 8.21439 6.14219 9.55449 6.03641 10.9999Z" fill="#1B3C4C"/>
</svg>
