<svg width="24" height="24" viewBox="0 0 24 24" fill="none" xmlns="http://www.w3.org/2000/svg">
<path d="M16.7778 2C16.7778 1.44772 16.3301 1 15.7778 1H9.77778C9.34822 1 9 1.34596 9 1.77273V5.33296C11.8377 5.80904 14 8.277 14 11.25C14 12.3987 13.6772 13.4721 13.1173 14.3843C14.7667 15.0064 16.0699 16.3345 16.6586 18H22.2222C22.6518 18 23 17.654 23 17.2273V8.18182C23 7.62953 22.5523 7.18182 22 7.18182H17.5556C17.126 7.18182 16.7778 6.83586 16.7778 6.40909V2Z" fill="#1B3C4C"/>
<path d="M21.8168 5.63636C22.0845 5.63636 22.2182 5.31225 22.0282 5.12354L18.8448 1.96077C18.6555 1.77273 18.3333 1.90679 18.3333 2.17359V4.63636C18.3333 5.18865 18.781 5.63636 19.3333 5.63636H21.8168Z" fill="#1B3C4C"/>
<path d="M8 7.25C5.79086 7.25 4 9.04086 4 11.25C4 13.4591 5.79086 15.25 8 15.25C10.2091 15.25 12 13.4591 12 11.25C12 9.04086 10.2091 7.25 8 7.25Z" fill="#1B3C4C"/>
<path d="M5 16C2.79086 16 1 17.7909 1 20V21C1 21.4402 1.16404 21.8836 1.39455 22.2203C1.6085 22.5328 2.05906 23 2.75 23H13.25C13.9409 23 14.3915 22.5328 14.6054 22.2203C14.836 21.8836 15 21.4402 15 21V20C15 17.7909 13.2091 16 11 16H5Z" fill="#1B3C4C"/>
</svg>
