<svg width="50" height="50" viewBox="0 0 50 50" fill="none" xmlns="http://www.w3.org/2000/svg">
<g clip-path="url(#clip0_4400_54329)">
<path d="M25.0001 16.6673C21.4989 16.6673 18.6429 19.1172 17.8076 22.3497C15.3251 22.9005 13.5417 25.1745 13.5417 27.7784C13.5417 30.7746 15.9028 33.334 18.9733 33.334H31.0269C34.0974 33.334 36.4584 30.7746 36.4584 27.7784C36.4584 25.1745 34.6751 22.9005 32.1926 22.3497C31.3572 19.1172 28.5012 16.6673 25.0001 16.6673Z" fill="#1B3C4C"/>
<path fill-rule="evenodd" clip-rule="evenodd" d="M4.89068 36.7102C9.13353 43.4423 16.6371 47.9173 25.1893 47.9173C35.7478 47.9173 43.5079 41.1285 46.7558 31.9453C47.1395 30.8606 46.5712 29.6702 45.4864 29.2866C44.4017 28.9029 43.2113 29.4712 42.8276 30.556C40.0656 38.3652 33.6927 43.7507 25.1893 43.7507C18.2642 43.7507 12.1665 40.1985 8.62563 34.8156L11.1537 35.6578C12.2453 36.0214 13.4251 35.4312 13.7887 34.3396C14.1523 33.248 13.5622 32.0683 12.4705 31.7047L5.38816 29.3454C5.12094 29.2272 4.82868 29.1646 4.53017 29.1668C3.65243 29.1605 2.83206 29.7137 2.5393 30.5914L0.107119 37.8831C-0.256949 38.9746 0.33273 40.1545 1.42421 40.5186C2.51568 40.8827 3.69563 40.293 4.0597 39.2015L4.89068 36.7102Z" fill="#1B3C4C"/>
<path fill-rule="evenodd" clip-rule="evenodd" d="M4.51373 20.7148C3.42899 20.3311 2.86065 19.1407 3.24431 18.056C6.49228 8.87277 14.2524 2.08398 24.8108 2.08398C33.3631 2.08399 40.8666 6.55896 45.1095 13.2911L45.9404 10.7998C46.3045 9.70831 47.4845 9.11863 48.5759 9.48269C49.6674 9.84676 50.2571 11.0267 49.893 12.1182L47.4609 19.4099C47.1681 20.2876 46.3477 20.8408 45.47 20.8345C45.1715 20.8367 44.8792 20.7741 44.612 20.6559L37.5296 18.2966C36.438 17.933 35.8478 16.7533 36.2115 15.6617C36.5751 14.5701 37.7548 13.9799 38.8464 14.3435L41.3745 15.1857C37.8337 9.80276 31.736 6.25065 24.8108 6.25065C16.3075 6.25065 9.93451 11.6362 7.17251 19.4453C6.78886 20.5301 5.59848 21.0984 4.51373 20.7148Z" fill="#1B3C4C"/>
</g>
<defs>
<clipPath id="clip0_4400_54329">
<rect width="50" height="50" fill="white"/>
</clipPath>
</defs>
</svg>
