<svg width="24" height="24" viewBox="0 0 24 24" fill="none" xmlns="http://www.w3.org/2000/svg">
<path d="M9 8C8.44772 8 8 8.44772 8 9V15C8 15.5523 8.44772 16 9 16H15C15.5523 16 16 15.5523 16 15V9C16 8.44772 15.5523 8 15 8H9Z" fill="#1B3C4C"/>
<path fill-rule="evenodd" clip-rule="evenodd" d="M12 1C12.5523 1 13 1.44772 13 2V4H15V2C15 1.44772 15.4477 1 16 1C16.5523 1 17 1.44772 17 2V4H19C19.5523 4 20 4.44772 20 5V7H22C22.5523 7 23 7.44772 23 8C23 8.55228 22.5523 9 22 9H20V11H22C22.5523 11 23 11.4477 23 12C23 12.5523 22.5523 13 22 13H20V15H22C22.5523 15 23 15.4477 23 16C23 16.5523 22.5523 17 22 17H20V19C20 19.5523 19.5523 20 19 20H17V22C17 22.5523 16.5523 23 16 23C15.4477 23 15 22.5523 15 22V20H13V22C13 22.5523 12.5523 23 12 23C11.4477 23 11 22.5523 11 22V20H9V22C9 22.5523 8.55228 23 8 23C7.44772 23 7 22.5523 7 22V20H5C4.44772 20 4 19.5523 4 19V17H2C1.44772 17 1 16.5523 1 16C1 15.4477 1.44772 15 2 15H4V13H2C1.44772 13 1 12.5523 1 12C1 11.4477 1.44772 11 2 11H4V9H2C1.44772 9 1 8.55228 1 8C1 7.44772 1.44772 7 2 7H4V5C4 4.44772 4.44772 4 5 4H7V2C7 1.44772 7.44772 1 8 1C8.55228 1 9 1.44772 9 2V4H11V2C11 1.44772 11.4477 1 12 1ZM6 18H18V6H6V18Z" fill="#1B3C4C"/>
</svg>
