<svg width="24" height="24" viewBox="0 0 24 24" fill="none" xmlns="http://www.w3.org/2000/svg">
<path fill-rule="evenodd" clip-rule="evenodd" d="M9 2C9 1.44772 9.44771 1 10 1H17.5C17.7652 1 18.0196 1.10536 18.2071 1.29289L22.7071 5.79289C22.8946 5.98043 23 6.23478 23 6.5V17C23 17.5523 22.5523 18 22 18H18.5C17.9477 18 17.5 17.5523 17.5 17C17.5 16.4477 17.9477 16 18.5 16H21V7.5H17.5C16.9477 7.5 16.5 7.05228 16.5 6.5V3H11V4.5C11 5.05228 10.5523 5.5 10 5.5C9.44771 5.5 9 5.05228 9 4.5V2ZM18.5 4.41421L19.5858 5.5H18.5V4.41421Z" fill="#1B3C4C"/>
<path d="M8.5 11C12.397 11 15.5998 10.2074 15.9652 9.19378C15.9021 8.92031 15.7616 8.69825 15.6162 8.53424C15.4253 8.31896 15.1896 8.15913 14.9681 8.03829C14.5242 7.79605 13.9478 7.60959 13.3211 7.46495C12.0515 7.17197 10.3475 7 8.5 7C6.65253 7 4.94852 7.17197 3.67895 7.46495C3.05217 7.60959 2.47584 7.79605 2.03185 8.03829C1.81036 8.15913 1.57474 8.31896 1.38385 8.53424C1.23841 8.69825 1.09789 8.92031 1.03475 9.19378C1.40022 10.2074 4.60302 11 8.5 11Z" fill="#1B3C4C"/>
<path d="M14.3186 12.3467C14.9013 12.1913 15.4823 11.9937 16 11.7368V15.001C15.9979 16.1051 12.6409 17 8.5 17C4.35786 17 1 16.1046 1 15V11.7368C1.51771 11.9937 2.09874 12.1913 2.68137 12.3467C4.25024 12.765 6.30664 13 8.5 13C10.6934 13 12.7498 12.765 14.3186 12.3467Z" fill="#1B3C4C"/>
<path d="M1 17.7368V19.5652C1 19.9926 1.20069 20.3206 1.3987 20.5342C1.59191 20.7426 1.82841 20.8956 2.04814 21.0102C2.48985 21.2408 3.06341 21.4183 3.68826 21.5563C4.95421 21.8357 6.6549 22 8.5 22C10.3451 22 12.0458 21.8357 13.3117 21.5563C13.9366 21.4183 14.5101 21.2408 14.9519 21.0102C15.1716 20.8956 15.4081 20.7426 15.6013 20.5342C15.7993 20.3206 16 19.9926 16 19.5652V17.7368C15.4823 17.9937 14.9013 18.1913 14.3186 18.3467C12.7498 18.765 10.6934 19 8.5 19C6.30664 19 4.25024 18.765 2.68137 18.3467C2.09874 18.1913 1.51771 17.9937 1 17.7368Z" fill="#1B3C4C"/>
</svg>
