<svg width="50" height="50" viewBox="0 0 50 50" fill="none" xmlns="http://www.w3.org/2000/svg">
<path fill-rule="evenodd" clip-rule="evenodd" d="M41.6666 10.416V24.9993C41.6666 27.1088 41.1919 29.0996 40.4028 30.9517C36.516 40.0746 24.9999 45.8327 24.9999 45.8327C24.9999 45.8327 8.33325 37.4993 8.33325 24.9993V10.416L24.9999 4.16602L41.6666 10.416ZM20.8333 22.0827V18.7493H27.0833V32.0827H30.2083V35.416H19.7916V32.0827H22.9166V22.0827H20.8333ZM24.9999 16.666C26.7258 16.666 28.1249 15.2669 28.1249 13.541C28.1249 11.8151 26.7258 10.416 24.9999 10.416C23.274 10.416 21.8749 11.8151 21.8749 13.541C21.8749 15.2669 23.274 16.666 24.9999 16.666Z" fill="#1B3C4C"/>
</svg>
