<svg width="50" height="50" viewBox="0 0 50 50" fill="none" xmlns="http://www.w3.org/2000/svg">
<path fill-rule="evenodd" clip-rule="evenodd" d="M21.5279 20.834C25.7467 20.834 29.1667 24.254 29.1667 28.4729C29.1667 32.6917 25.7467 36.1118 21.5279 36.1118C17.309 36.1118 13.889 32.6917 13.889 28.4729C13.889 24.254 17.309 20.834 21.5279 20.834ZM33.3334 28.4729C33.3334 21.9528 28.0479 16.6673 21.5279 16.6673C15.0078 16.6673 9.7223 21.9528 9.7223 28.4729C9.7223 30.9804 10.5041 33.3053 11.8372 35.2173L4.77694 42.2775C3.96335 43.0911 3.96335 44.4102 4.77694 45.2238C5.59054 46.0374 6.90963 46.0374 7.72322 45.2238L14.7835 38.1635C16.6954 39.4966 19.0203 40.2784 21.5279 40.2784C28.0479 40.2784 33.3334 34.9929 33.3334 28.4729Z" fill="#1B3C4C"/>
<path fill-rule="evenodd" clip-rule="evenodd" d="M32.8705 2.08398C34.021 2.08398 34.9538 3.01673 34.9538 4.16732V13.3529C34.9538 14.242 35.6792 14.9628 36.5742 14.9628H45.8334C46.984 14.9628 47.9167 15.8955 47.9167 17.0461V35.8908C47.9167 36.7799 47.1913 37.5006 46.2964 37.5006H34.7058C36.4686 34.9325 37.5001 31.8231 37.5001 28.4729C37.5001 19.6517 30.3491 12.5007 21.5279 12.5007C20.5804 12.5007 19.6522 12.5831 18.7501 12.7413V3.69383C18.7501 2.80474 19.4755 2.08398 20.3705 2.08398H32.8705ZM45.8922 10.6747C46.2879 11.0678 46.0095 11.7431 45.4517 11.7431H40.2779C39.1273 11.7431 38.1945 10.8103 38.1945 9.65974V4.52897C38.1945 3.97314 38.8657 3.69384 39.26 4.08559L45.8922 10.6747Z" fill="#1B3C4C"/>
</svg>
