<svg width="50" height="50" viewBox="0 0 50 50" fill="none" xmlns="http://www.w3.org/2000/svg">
<path d="M28.7038 2.08398C29.8544 2.08398 30.7871 3.01673 30.7871 4.16732V13.3529C30.7871 14.242 31.5126 14.9628 32.4075 14.9628H41.6667C42.8173 14.9628 43.7501 15.8955 43.7501 17.0461V35.8908C43.7501 36.7799 43.0246 37.5006 42.1297 37.5006H25.5056L31.5028 31.5034C33.9436 29.0626 33.9436 25.1053 31.5028 22.6646L21.0862 12.2479C19.3277 10.4894 16.782 9.99784 14.5834 10.7732V3.69383C14.5834 2.80474 15.3089 2.08398 16.2038 2.08398H28.7038Z" fill="#1B3C4C"/>
<path d="M41.7255 10.6747C42.1212 11.0678 41.8428 11.7431 41.285 11.7431H36.1112C34.9606 11.7431 34.0279 10.8103 34.0279 9.65974V4.52897C34.0279 3.97314 34.699 3.69384 35.0934 4.08559L41.7255 10.6747Z" fill="#1B3C4C"/>
<path fill-rule="evenodd" clip-rule="evenodd" d="M15.1936 15.1942C16.0072 14.3806 17.3263 14.3806 18.1399 15.1942L28.5566 25.6108C29.3701 26.4244 29.3701 27.7435 28.5566 28.5571L18.1399 38.9738C17.3263 39.7874 16.0072 39.7874 15.1936 38.9738C14.38 38.1602 14.38 36.8411 15.1936 36.0275L22.0538 29.1673H6.25008C5.09949 29.1673 4.16675 28.2346 4.16675 27.084C4.16675 25.9334 5.09949 25.0007 6.25008 25.0007H22.0538L15.1936 18.1405C14.38 17.3269 14.38 16.0078 15.1936 15.1942Z" fill="#1B3C4C"/>
</svg>
