<svg width="50" height="50" viewBox="0 0 50 50" fill="none" xmlns="http://www.w3.org/2000/svg">
<path fill-rule="evenodd" clip-rule="evenodd" d="M24.0943 18.0518C22.0415 17.0254 19.6253 17.0254 17.5725 18.0518C15.1022 19.2869 13.5417 21.8118 13.5417 24.5737V27.7785H9.37508C8.22449 27.7785 7.29175 28.7113 7.29175 29.8618V43.7507C7.29175 44.9013 8.22449 45.8341 9.37508 45.8341H32.2917C33.4423 45.8341 34.3751 44.9013 34.3751 43.7507V29.8618C34.3751 28.7113 33.4423 27.7785 32.2917 27.7785H28.1251V24.5737C28.1251 21.8118 26.5646 19.2869 24.0943 18.0518ZM23.9584 27.7785V24.5737C23.9584 23.39 23.2897 22.3079 22.231 21.7786C21.3512 21.3387 20.3156 21.3387 19.4359 21.7786C18.3772 22.3079 17.7084 23.39 17.7084 24.5737V27.7785H23.9584Z" fill="#1B3C4C"/>
<path fill-rule="evenodd" clip-rule="evenodd" d="M32.8705 2.08398C34.021 2.08398 34.9538 3.01673 34.9538 4.16732V13.3529C34.9538 14.242 35.6793 14.9628 36.5742 14.9628H45.8334C46.984 14.9628 47.9167 15.8955 47.9167 17.0461V35.8908C47.9167 36.7799 47.1913 37.5006 46.2964 37.5006H38.5417V29.8619C38.5417 26.4101 35.7435 23.6119 32.2917 23.6119H32.2514C31.919 19.6545 29.5508 16.1216 25.9577 14.3251C23.7041 13.1983 21.1717 12.8587 18.7501 13.3063V3.69383C18.7501 2.80474 19.4755 2.08398 20.3705 2.08398H32.8705ZM45.8922 10.6747C46.2879 11.0678 46.0095 11.7431 45.4517 11.7431H40.2779C39.1273 11.7431 38.1945 10.8103 38.1945 9.65974V4.52897C38.1945 3.97314 38.8657 3.69384 39.26 4.08559L45.8922 10.6747Z" fill="#1B3C4C"/>
</svg>
