<svg width="24" height="24" viewBox="0 0 24 24" fill="none" xmlns="http://www.w3.org/2000/svg">
<path d="M10 10C10 8.89543 10.8954 8 12 8C13.1046 8 14 8.89543 14 10C14 11.1046 13.1046 12 12 12C10.8954 12 10 11.1046 10 10Z" fill="#1B3C4C"/>
<path fill-rule="evenodd" clip-rule="evenodd" d="M21 10C21 12.8557 19.8161 17.639 12.6004 22.8C12.4256 22.9313 12.2139 22.9999 12 23.0001C11.7861 22.9999 11.5744 22.9313 11.3996 22.8C4.18393 17.639 3 12.8557 3 10C3 5.02944 7.02944 1 12 1C16.9706 1 21 5.02944 21 10ZM12 6C9.79086 6 8 7.79086 8 10C8 12.2091 9.79086 14 12 14C14.2091 14 16 12.2091 16 10C16 7.79086 14.2091 6 12 6Z" fill="#1B3C4C"/>
</svg>
