<svg width="24" height="24" viewBox="0 0 24 24" fill="none" xmlns="http://www.w3.org/2000/svg">
<path d="M11.8073 8.92109C10.7144 8.85587 9.60296 9.2384 8.77151 10.0699C7.22169 11.6197 7.23165 14.1424 8.79374 15.7045C10.3558 17.2666 12.8785 17.2765 14.4284 15.7267C15.1007 15.0544 15.4795 14.1989 15.5654 13.3182L16.5625 12.3211L18.1347 12.2729C18.9236 12.2488 19.6898 11.9122 20.2647 11.3373L21.2194 10.3827C22.1086 13.7025 21.261 17.3793 18.671 19.9693C14.7965 23.8439 8.48969 23.819 4.58445 19.9138C0.679206 16.0085 0.654323 9.70176 4.52887 5.82721C7.24325 3.11283 11.1514 2.31227 14.5912 3.41897L13.4689 4.54112C12.894 5.11604 12.5574 5.88221 12.5332 6.67109L12.4849 8.2435L11.8073 8.92109Z" fill="#1B3C4C"/>
<path fill-rule="evenodd" clip-rule="evenodd" d="M18.434 4.09847C18.3244 3.76968 18.0524 3.52107 17.7151 3.44143C17.3778 3.3618 17.0233 3.46249 16.7782 3.70755L14.3032 6.18235C14.1157 6.36988 14.0103 6.62423 14.0103 6.88945L14.0103 9.30369L11.1212 12.1927C10.7307 12.5832 10.7307 13.2164 11.1212 13.6069C11.5118 13.9975 12.1449 13.9975 12.5354 13.6069L15.4245 10.7179L17.8386 10.718C18.1039 10.718 18.3582 10.6126 18.5458 10.4251L21.0207 7.95031C21.2658 7.70525 21.3665 7.35077 21.2869 7.01346C21.2073 6.67615 20.9587 6.40412 20.6299 6.29451L18.9829 5.74547L18.434 4.09847ZM16.0103 7.30372L17.0482 6.26589L17.2436 6.85222C17.3432 7.15082 17.5775 7.38515 17.8761 7.48469L18.4624 7.68015L17.4245 8.71797L16.0103 8.71793L16.0103 7.30372Z" fill="#1B3C4C"/>
</svg>
