<svg width="24" height="24" viewBox="0 0 24 24" fill="none" xmlns="http://www.w3.org/2000/svg">
<path fill-rule="evenodd" clip-rule="evenodd" d="M20.6439 13.0095C20.4618 13.0407 20.1614 13.164 19.7997 13.529C19.7876 13.5411 19.7753 13.553 19.7627 13.5645L16.7557 16.3024L16.5101 16.5462C16.1855 17.117 15.5814 17.495 14.8171 17.495H10.5447C9.99243 17.495 9.54472 17.0473 9.54472 16.495C9.54472 15.9428 9.99243 15.495 10.5447 15.495H14.771C14.7658 15.4509 14.7497 15.4028 14.7224 15.3602C14.6961 15.3191 14.6604 15.284 14.6118 15.2575C14.5648 15.2318 14.4817 15.2013 14.3424 15.2013H8.17119C7.34392 15.2013 6.28805 15.6674 5.21047 16.4033C4.16512 17.1173 3.25033 17.9803 2.7413 18.5425C2.37061 18.9519 1.73822 18.9833 1.32882 18.6126C0.919418 18.2419 0.888033 17.6095 1.25872 17.2001C1.85733 16.539 2.88884 15.567 4.08251 14.7518C5.24396 13.9585 6.71986 13.2013 8.17119 13.2013H14.3424C15.1906 13.2013 15.8359 13.5544 16.2474 14.0603L18.3984 12.1019C19.5534 10.95 21.0976 10.6149 22.186 11.4934C23.3007 12.3931 23.2225 13.9803 22.2439 15.204C20.685 17.1533 18.3706 19.4978 17.4108 20.4253C17.3802 20.4549 17.3478 20.4824 17.3137 20.5079C16.6172 21.0273 16.0094 21.3365 15.269 21.4886C14.6099 21.624 13.8774 21.6239 13.0023 21.6237C12.9744 21.6237 12.9464 21.6237 12.9182 21.6237H7.27208L6.62079 22.5678C6.30718 23.0224 5.68442 23.1367 5.22981 22.8231C4.77521 22.5095 4.66091 21.8867 4.97452 21.4321L5.92393 20.0559C6.1106 19.7853 6.41834 19.6237 6.74707 19.6237H12.9182C13.9047 19.6237 14.4301 19.6192 14.8666 19.5295C15.2308 19.4547 15.5627 19.312 16.0679 18.9417C17.0329 18.0057 19.2269 15.7744 20.682 13.9549C20.9496 13.6202 21.0009 13.3701 21 13.2419C20.9991 13.1195 20.9552 13.0702 20.9298 13.0497C20.9033 13.0283 20.8213 12.9791 20.6439 13.0095Z" fill="#1B3C4C"/>
<path d="M12.8779 1.52121C12.7027 1.19991 12.366 1 12 1C11.634 1 11.2973 1.19991 11.1221 1.52121L9.94748 3.67496L7.53618 4.12651C7.17646 4.19387 6.88228 4.45235 6.76919 4.80041C6.6561 5.14846 6.74217 5.53049 6.99359 5.79643L8.67896 7.57907L8.36328 10.0119C8.31619 10.3748 8.47111 10.7345 8.76718 10.9496C9.06325 11.1647 9.45318 11.2009 9.78379 11.044L12 9.99195L14.2162 11.044C14.5468 11.2009 14.9367 11.1647 15.2328 10.9496C15.5289 10.7345 15.6838 10.3748 15.6367 10.0119L15.321 7.57907L17.0064 5.79643C17.2578 5.53049 17.3439 5.14846 17.2308 4.80041C17.1177 4.45235 16.8235 4.19387 16.4638 4.12651L14.0525 3.67496L12.8779 1.52121Z" fill="#1B3C4C"/>
</svg>
