<svg width="24" height="24" viewBox="0 0 24 24" fill="none" xmlns="http://www.w3.org/2000/svg">
<path fill-rule="evenodd" clip-rule="evenodd" d="M11.9526 1.0001L12 1L12.0474 1.0001C12.5997 1.00243 13.0455 1.45204 13.0431 2.00432C13.0408 2.5566 12.5912 3.00242 12.0389 3.00008L12 3L11.9611 3.00008C11.4088 3.00242 10.9592 2.5566 10.9569 2.00432C10.9545 1.45204 11.4003 1.00243 11.9526 1.0001ZM16.0959 2.81979C16.3704 2.34057 16.9815 2.17463 17.4607 2.44916C17.488 2.46481 17.5152 2.48058 17.5424 2.49645C18.0193 2.77509 18.1799 3.38753 17.9013 3.86437C17.6227 4.34122 17.0102 4.50189 16.5334 4.22325C16.5111 4.21027 16.4889 4.19737 16.4665 4.18457C15.9873 3.91004 15.8214 3.29901 16.0959 2.81979ZM7.9041 2.81979C8.17863 3.29901 8.0127 3.91004 7.53348 4.18457C7.51114 4.19737 7.48885 4.21027 7.46662 4.22325C6.98978 4.50189 6.37734 4.34122 6.0987 3.86437C5.82007 3.38753 5.98074 2.77509 6.45759 2.49645C6.48476 2.48058 6.512 2.46481 6.53932 2.44916C7.01854 2.17463 7.62957 2.34057 7.9041 2.81979ZM20.1356 6.0987C20.6125 5.82007 21.2249 5.98074 21.5035 6.45759C21.5194 6.48476 21.5352 6.512 21.5508 6.53932C21.8254 7.01854 21.6594 7.62957 21.1802 7.9041C20.701 8.17863 20.09 8.0127 19.8154 7.53348C19.8026 7.51114 19.7897 7.48885 19.7767 7.46662C19.4981 6.98978 19.6588 6.37734 20.1356 6.0987ZM3.86437 6.0987C4.34122 6.37734 4.50189 6.98978 4.22325 7.46662C4.21027 7.48885 4.19737 7.51114 4.18457 7.53348C3.91004 8.0127 3.29901 8.17863 2.81979 7.9041C2.34057 7.62957 2.17463 7.01854 2.44916 6.53932C2.46481 6.512 2.48058 6.48476 2.49645 6.45759C2.77509 5.98074 3.38753 5.82007 3.86437 6.0987ZM2.00432 10.9569C2.5566 10.9592 3.00242 11.4088 3.00008 11.9611L3 12L3.00008 12.0389C3.00242 12.5912 2.5566 13.0408 2.00432 13.0431C1.45204 13.0455 1.00243 12.5997 1.0001 12.0474L1 12L1.0001 11.9526C1.00243 11.4003 1.45204 10.9545 2.00432 10.9569ZM21.9957 10.9569C22.548 10.9545 22.9976 11.4003 22.9999 11.9526L23 12L22.9999 12.0474C22.9976 12.5997 22.548 13.0455 21.9957 13.0431C21.4434 13.0408 20.9976 12.5912 20.9999 12.0389L21 12L20.9999 11.9611C20.9976 11.4088 21.4434 10.9592 21.9957 10.9569ZM21.1802 16.0959C21.6594 16.3704 21.8254 16.9815 21.5508 17.4607C21.5412 17.4775 21.5315 17.4943 21.5218 17.511C21.5157 17.5215 21.5097 17.532 21.5035 17.5424C21.2249 18.0193 20.6125 18.1799 20.1356 17.9013C19.6588 17.6227 19.4981 17.0102 19.7767 16.5334C19.7824 16.5237 19.7881 16.5139 19.7937 16.5042C19.801 16.4917 19.8082 16.4791 19.8154 16.4665C20.09 15.9873 20.701 15.8214 21.1802 16.0959ZM2.81979 16.0959C3.29901 15.8214 3.91004 15.9873 4.18457 16.4665C4.19737 16.4889 4.21027 16.5112 4.22325 16.5334C4.50189 17.0102 4.34122 17.6227 3.86437 17.9013C3.38753 18.1799 2.77509 18.0193 2.49645 17.5424C2.48058 17.5152 2.46481 17.488 2.44916 17.4607C2.17463 16.9815 2.34057 16.3704 2.81979 16.0959ZM6.0987 20.1356C6.37734 19.6588 6.98978 19.4981 7.46662 19.7767C7.48885 19.7897 7.51114 19.8026 7.53348 19.8154C8.0127 20.09 8.17863 20.701 7.9041 21.1802C7.62957 21.6594 7.01854 21.8254 6.53932 21.5508C6.512 21.5352 6.48476 21.5194 6.45759 21.5035C5.98074 21.2249 5.82007 20.6125 6.0987 20.1356ZM17.9013 20.1356C18.1799 20.6125 18.0193 21.2249 17.5424 21.5035C17.5152 21.5194 17.488 21.5352 17.4607 21.5508C16.9815 21.8254 16.3704 21.6594 16.0959 21.1802C15.8214 20.701 15.9873 20.09 16.4665 19.8154C16.4889 19.8026 16.5112 19.7897 16.5334 19.7767C17.0102 19.4981 17.6227 19.6588 17.9013 20.1356ZM10.9569 21.9957C10.9592 21.4434 11.4088 20.9976 11.9611 20.9999L12 21L12.0389 20.9999C12.5912 20.9976 13.0408 21.4434 13.0431 21.9957C13.0455 22.548 12.5997 22.9976 12.0474 22.9999L12 23L11.9526 22.9999C11.4003 22.9976 10.9545 22.548 10.9569 21.9957Z" fill="#1B3C4C"/>
<path d="M8 16V11H16V16H8Z" fill="#1B3C4C"/>
<path fill-rule="evenodd" clip-rule="evenodd" d="M7 11C7 10.4477 7.44772 10 8 10H16C16.5523 10 17 10.4477 17 11V16C17 16.5523 16.5523 17 16 17H8C7.44772 17 7 16.5523 7 16V11Z" fill="#1B3C4C"/>
<path fill-rule="evenodd" clip-rule="evenodd" d="M10.6584 6.55279C11.5029 6.1305 12.4971 6.1305 13.3416 6.55279C14.358 7.06096 15 8.09975 15 9.23607V11C15 11.5523 14.5523 12 14 12C13.4477 12 13 11.5523 13 11V9.23607C13 8.8573 12.786 8.51103 12.4472 8.34164C12.1657 8.20088 11.8343 8.20088 11.5528 8.34164C11.214 8.51103 11 8.8573 11 9.23607V11C11 11.5523 10.5523 12 10 12C9.44771 12 9 11.5523 9 11V9.23607C9 8.09975 9.64201 7.06096 10.6584 6.55279Z" fill="#1B3C4C"/>
</svg>
