<svg width="24" height="24" viewBox="0 0 24 24" fill="none" xmlns="http://www.w3.org/2000/svg">
<path fill-rule="evenodd" clip-rule="evenodd" d="M2 16.5C2 17.8807 3.11929 19 4.5 19H13.5C14.8807 19 16 17.8807 16 16.5C16 15.1193 14.8807 14 13.5 14C13.3287 14 13.1613 14.0172 12.9997 14.0501C12.9999 14.0334 13 14.0167 13 14C13 11.7909 11.2091 10 9 10C6.79086 10 5 11.7909 5 14C5 14.0167 5.0001 14.0334 5.00031 14.0501C4.83866 14.0172 4.67134 14 4.5 14C3.11929 14 2 15.1193 2 16.5Z" fill="#1B3C4C"/>
<path fill-rule="evenodd" clip-rule="evenodd" d="M15.7778 1C16.3301 1 16.7778 1.44772 16.7778 2V6.40909C16.7778 6.83586 17.126 7.18182 17.5556 7.18182H22C22.5523 7.18182 23 7.62953 23 8.18182V17.2273C23 17.654 22.6518 18 22.2222 18H18.793C18.9278 17.5232 19 17.02 19 16.5C19 14.1633 17.5439 12.1686 15.489 11.3711C14.4495 8.80792 11.9375 7 9 7V1.77273C9 1.34596 9.34822 1 9.77778 1H15.7778ZM22.0282 5.12354C22.2182 5.31225 22.0845 5.63636 21.8168 5.63636H19.3333C18.781 5.63636 18.3333 5.18865 18.3333 4.63636V2.17359C18.3333 1.90679 18.6555 1.77273 18.8448 1.96077L22.0282 5.12354Z" fill="#1B3C4C"/>
</svg>
