<svg width="24" height="24" viewBox="0 0 24 24" fill="none" xmlns="http://www.w3.org/2000/svg">
<path fill-rule="evenodd" clip-rule="evenodd" d="M4 1C3.44772 1 3 1.44772 3 2V22C3 22.5523 3.44772 23 4 23H20C20.5523 23 21 22.5523 21 22V2C21 1.44772 20.5523 1 20 1H4ZM15.666 13.2541C16.078 13.6219 16.1138 14.2541 15.7459 14.666L12.1745 18.666C11.9848 18.8785 11.7134 19 11.4286 19C11.1437 19 10.8724 18.8785 10.6826 18.666L9.25407 17.066C8.88624 16.6541 8.92202 16.0219 9.33399 15.6541C9.74596 15.2862 10.3781 15.322 10.7459 15.734L11.4286 16.4985L14.2541 13.334C14.6219 12.922 15.2541 12.8862 15.666 13.2541ZM8 5C7.44772 5 7 5.44772 7 6C7 6.55228 7.44772 7 8 7H13C13.5523 7 14 6.55228 14 6C14 5.44772 13.5523 5 13 5H8ZM8 9C7.44772 9 7 9.44771 7 10C7 10.5523 7.44772 11 8 11L16 11C16.5523 11 17 10.5523 17 10C17 9.44772 16.5523 9 16 9L8 9Z" fill="#1B3C4C"/>
</svg>
