<svg width="24" height="24" viewBox="0 0 24 24" fill="none" xmlns="http://www.w3.org/2000/svg">
<path fill-rule="evenodd" clip-rule="evenodd" d="M3.46678 1.5C2.95687 1.5 2.5 1.89915 2.5 2.44385V14.5166C2.5 15.9212 2.87914 17.5837 3.61284 18.7279C5.10746 21.0589 7.97075 22.5 11.5607 22.5C15.1388 22.5 17.965 21.1757 19.4221 18.7126C20.1455 17.4897 20.5 16.0857 20.5 14.5166C20.5 12.9496 20.1464 11.5544 19.4228 10.3484C18.7237 9.13448 17.7603 8.19879 16.5388 7.55102C15.3399 6.90535 14.0068 6.58655 12.5502 6.58655C11.0982 6.58655 9.84538 6.89738 8.82125 7.54948V2.44385C8.82125 1.89915 8.36438 1.5 7.85448 1.5H3.46678ZM9.48881 12.365C9.98259 11.8662 10.6154 11.6079 11.43 11.6079C12.2446 11.6079 12.8774 11.8662 13.3712 12.365C13.8538 12.8527 14.1227 13.5478 14.1227 14.5166C14.1227 15.5035 13.8535 16.2183 13.3686 16.7241C12.8752 17.2213 12.2432 17.4787 11.43 17.4787C10.6168 17.4787 9.98477 17.2213 9.49135 16.7241C9.00649 16.2183 8.73723 15.5034 8.73723 14.5166C8.73723 13.5478 9.00616 12.8527 9.48881 12.365Z" fill="#1B3C4C"/>
</svg>
