<svg width="24" height="24" viewBox="0 0 24 24" fill="none" xmlns="http://www.w3.org/2000/svg">
<path d="M16 21L15.0444 17.1729L6.4434 8.56179C5.50003 7.57439 3.99582 6.22628 2.62075 7.55537C1.18726 8.94092 2.62075 10.4257 3.09858 10.9538L12.1774 20.0432L16 21Z" fill="#1B3C4C"/>
<path fill-rule="evenodd" clip-rule="evenodd" d="M3.60145 6.51717C3.13188 6.57782 2.68379 6.79905 2.27326 7.19585C1.84955 7.60539 1.61124 8.05033 1.53091 8.51069C1.45147 8.96591 1.53405 9.39235 1.67732 9.75837C1.9374 10.4229 2.43239 10.9653 2.67916 11.2358C2.6967 11.255 2.71299 11.2728 2.72785 11.2892C2.73336 11.2953 2.73902 11.3013 2.74482 11.3071L11.8236 20.3966C11.8877 20.4607 11.968 20.5062 12.056 20.5283L15.8786 21.485C16.049 21.5277 16.2293 21.4778 16.3535 21.3537C16.4777 21.2295 16.5277 21.0493 16.4851 20.8789L15.5295 17.0517C15.5075 16.9639 15.4621 16.8836 15.3981 16.8195L6.80106 8.21235C6.32908 7.71862 5.65932 7.06993 4.89611 6.73258C4.50469 6.55957 4.06494 6.45732 3.60145 6.51717Z" fill="#1B3C4C"/>
<path d="M15.7778 1C16.3301 1 16.7778 1.44772 16.7778 2V6.40909C16.7778 6.83586 17.126 7.18182 17.5556 7.18182H22C22.5523 7.18182 23 7.62953 23 8.18182V17.2273C23 17.654 22.6518 18 22.2223 18H17.3123L16.9848 16.6883C16.897 16.3368 16.7154 16.0158 16.4594 15.7595L9.00003 8.29135V1.77273C9.00003 1.34596 9.34825 1 9.77781 1H15.7778Z" fill="#1B3C4C"/>
<path d="M22.0282 5.12354C22.2182 5.31225 22.0845 5.63636 21.8168 5.63636H19.3334C18.7811 5.63636 18.3334 5.18865 18.3334 4.63636V2.17359C18.3334 1.90679 18.6555 1.77273 18.8448 1.96077L22.0282 5.12354Z" fill="#1B3C4C"/>
</svg>
