<svg width="24" height="24" viewBox="0 0 24 24" fill="none" xmlns="http://www.w3.org/2000/svg">
<path fill-rule="evenodd" clip-rule="evenodd" d="M3.55951 4.94576C2.16241 6.61563 1.25162 8.70632 1.04492 11H4.03248C4.14531 9.26376 4.54951 7.61023 5.19269 6.13179C4.61127 5.77908 4.06487 5.38208 3.55951 4.94576ZM1.04492 13C1.25162 15.2937 2.16241 17.3844 3.55952 19.0543C4.06489 18.618 4.61129 18.221 5.19272 17.8682C4.54953 16.3898 4.14533 14.7363 4.03248 13H1.04492ZM4.98155 20.4704C6.08073 21.3822 7.36025 22.0841 8.7587 22.5147C7.74242 21.7572 6.85503 20.7787 6.13064 19.6393C5.72445 19.892 5.34046 20.17 4.98155 20.4704ZM15.0173 22.5811C16.5033 22.1581 17.861 21.4306 19.0186 20.4704C18.644 20.1568 18.242 19.8677 17.816 19.6063C17.0479 20.785 16.1018 21.797 15.0173 22.5811ZM20.4406 19.0543C21.8377 17.3844 22.7485 15.2937 22.9552 13H19.9665C19.8501 14.7307 19.434 16.3749 18.7735 17.8477C19.3676 18.2055 19.9254 18.6095 20.4406 19.0543ZM22.9552 11C22.7485 8.70632 21.8377 6.61564 20.4406 4.94577C19.9255 5.39057 19.3676 5.79451 18.7735 6.15233C19.4341 7.62515 19.8501 9.26936 19.9666 11H22.9552ZM19.0186 3.5297C17.8611 2.56947 16.5035 1.842 15.0176 1.41907C16.102 2.20313 17.0481 3.21513 17.8161 4.39377C18.2421 4.13231 18.644 3.84322 19.0186 3.5297ZM8.7585 1.48544C7.36013 1.91605 6.08067 2.61794 4.98155 3.52969C5.34044 3.83005 5.72443 4.10801 6.1306 4.36071C6.85495 3.22136 7.74229 2.24288 8.7585 1.48544ZM11.0001 2.44479C9.82896 3.03816 8.77177 4.00703 7.9344 5.25637C8.88745 5.6225 9.91784 5.86447 11.0001 5.95736V2.44479ZM16.0024 18.7196C15.1808 19.911 14.1511 20.862 13.0001 21.4911V18.0427C14.0584 18.1335 15.0671 18.3669 16.0024 18.7196ZM17.9619 13C17.8519 14.4331 17.5081 15.7686 16.9843 16.956C15.7489 16.4574 14.4068 16.1393 13.0001 16.0365V13H17.9619ZM16.9843 7.04407C17.5081 8.2315 17.852 9.56692 17.962 11H13.0001V7.96361C14.4068 7.86073 15.7489 7.54262 16.9843 7.04407ZM13.0001 2.50884C14.1511 3.13799 15.1809 4.08894 16.0024 5.28047C15.0671 5.63313 14.0584 5.86653 13.0001 5.95736V2.50884ZM11.0001 21.5552V18.0427C9.91786 18.1356 8.88748 18.3776 7.93445 18.7437C8.77181 19.993 9.82898 20.9618 11.0001 21.5552ZM6.979 16.9709C8.22453 16.4638 9.57938 16.1404 11.0001 16.0365V13H6.03642C6.1422 14.4454 6.47474 15.7855 6.979 16.9709ZM6.03641 11H11.0001V7.96361C9.57937 7.8597 8.22451 7.53626 6.97897 7.02911C6.47472 8.21451 6.14219 9.55462 6.03641 11Z" fill="#1B3C4C"/>
</svg>
