<svg width="24" height="24" viewBox="0 0 24 24" fill="none" xmlns="http://www.w3.org/2000/svg">
<path fill-rule="evenodd" clip-rule="evenodd" d="M15.7778 2C16.3301 2 16.7778 2.44772 16.7778 3V7.40909C16.7778 7.83586 17.126 8.18182 17.5556 8.18182H22C22.5523 8.18182 23 8.62953 23 9.18182V18.2273C23 18.654 22.6518 19 22.2222 19H16.4879C16.8195 18.0617 17 17.0519 17 16C17 11.3674 13.5 7.55237 9 7.05493V2.77273C9 2.34596 9.34822 2 9.77778 2H15.7778ZM22.0282 6.12354C22.2182 6.31225 22.0845 6.63636 21.8168 6.63636H19.3333C18.781 6.63636 18.3333 6.18865 18.3333 5.63636V3.17359C18.3333 2.90679 18.6555 2.77273 18.8448 2.96077L22.0282 6.12354Z" fill="#1B3C4C"/>
<path fill-rule="evenodd" clip-rule="evenodd" d="M8 9C4.13401 9 1 12.134 1 16C1 19.866 4.13401 23 8 23C11.866 23 15 19.866 15 16C15 12.134 11.866 9 8 9ZM11.3703 14.777C11.7994 14.2964 11.7576 13.5589 11.277 13.1297C10.7964 12.7006 10.0589 12.7423 9.62974 13.223L6.92857 16.2483L6.37026 15.623C5.94112 15.1424 5.20361 15.1006 4.72298 15.5297C4.24235 15.9589 4.2006 16.6964 4.62974 17.177L6.05831 18.777C6.27966 19.0249 6.59623 19.1667 6.92857 19.1667C7.26092 19.1667 7.57749 19.0249 7.79883 18.777L11.3703 14.777Z" fill="#1B3C4C"/>
</svg>
