<svg width="24" height="24" viewBox="0 0 24 24" fill="none" xmlns="http://www.w3.org/2000/svg">
<path d="M14 10.1V15C14 15.7088 13.8434 16.3777 13.583 17C12.3003 20.0653 8.5 22 8.5 22C8.5 22 3 19.2 3 15V10.1L8.5 8L14 10.1Z" fill="#1B3C4C"/>
<path d="M14.7778 1C15.3301 1 15.7778 1.44772 15.7778 2V6.40909C15.7778 6.83586 16.126 7.18182 16.5556 7.18182H21C21.5523 7.18182 22 7.62953 22 8.18182V17.2273C22 17.654 21.6518 18 21.2222 18H15.3284C15.3626 17.9247 15.3958 17.8487 15.4279 17.772C15.7759 16.9404 16 16.0095 16 15V10.1C16 9.27067 15.4882 8.52739 14.7134 8.23156L9.2134 6.13156C8.8241 5.98292 8.39994 5.96023 8 6.0635V1.77273C8 1.34596 8.34822 1 8.77778 1H14.7778Z" fill="#1B3C4C"/>
<path d="M21.0282 5.12354C21.2182 5.31225 21.0845 5.63636 20.8168 5.63636H18.3333C17.781 5.63636 17.3333 5.18865 17.3333 4.63636V2.17359C17.3333 1.90679 17.6555 1.77273 17.8448 1.96077L21.0282 5.12354Z" fill="#1B3C4C"/>
</svg>
