<svg width="100" height="100" viewBox="0 0 100 100" fill="none" xmlns="http://www.w3.org/2000/svg">
<rect width="100" height="100" rx="20" fill="#7CA9BF"/>
<path d="M43.75 29.1667C37.997 29.1667 33.3333 33.8304 33.3333 39.5834C33.3333 45.3363 37.997 50 43.75 50C49.503 50 54.1667 45.3363 54.1667 39.5834C54.1667 33.8304 49.503 29.1667 43.75 29.1667Z" fill="white"/>
<path d="M35.4167 52.0834C29.6637 52.0834 25 56.7471 25 62.5V66.6667C25 68.9679 26.8655 70.8334 29.1667 70.8334H58.3333C60.6345 70.8334 62.5 68.9679 62.5 66.6667V62.5C62.5 56.7471 57.8363 52.0834 52.0833 52.0834H35.4167Z" fill="white"/>
<path d="M65.0757 70.8334H70.8333C73.1345 70.8334 75 68.9679 75 66.6667V62.5C75 56.7471 70.3363 52.0834 64.5833 52.0834H61.0792C64.4473 54.3228 66.6671 58.1522 66.6671 62.5V66.6667C66.6671 68.2674 66.0654 69.7276 65.0757 70.8334Z" fill="white"/>
<path d="M53.3319 49.5857C54.2578 49.8554 55.237 50 56.25 50C62.003 50 66.6667 45.3363 66.6667 39.5834C66.6667 33.8304 62.003 29.1667 56.25 29.1667C55.237 29.1667 54.2578 29.3113 53.3319 29.581C56.3691 31.8614 58.3338 35.4929 58.3338 39.5834C58.3338 43.6738 56.3691 47.3053 53.3319 49.5857Z" fill="white"/>
</svg>