<svg width="100" height="100" viewBox="0 0 100 100" fill="none" xmlns="http://www.w3.org/2000/svg">
<rect width="100" height="100" rx="20" fill="#345E73"/>
<path d="M41.6668 40.1041C37.0645 40.1041 33.3335 43.8351 33.3335 48.4375C33.3335 53.0399 37.0645 56.7708 41.6668 56.7708C46.2692 56.7708 50.0002 53.0399 50.0002 48.4375C50.0002 43.8351 46.2692 40.1041 41.6668 40.1041Z" fill="white"/>
<path d="M27.0835 66.6666C27.0835 62.0643 30.8145 58.3333 35.4168 58.3333H47.9168C52.5192 58.3333 56.2502 62.0643 56.2502 66.6666V68.75C56.2502 69.667 55.9084 70.5909 55.4282 71.2922C54.9824 71.9432 54.0438 72.9166 52.6043 72.9166H30.7293C29.2899 72.9166 28.3512 71.9432 27.9055 71.2922C27.4253 70.5909 27.0835 69.667 27.0835 68.75V66.6666Z" fill="white"/>
<path fill-rule="evenodd" clip-rule="evenodd" d="M63.5418 31.25C60.599 31.25 58.3335 33.5395 58.3335 36.2179C58.3335 38.8964 60.599 41.1859 63.5418 41.1859C66.4847 41.1859 68.7502 38.8964 68.7502 36.2179C68.7502 33.5395 66.4847 31.25 63.5418 31.25ZM54.1668 36.2179C54.1668 31.1077 58.4305 27.0833 63.5418 27.0833C68.6531 27.0833 72.9168 31.1077 72.9168 36.2179C72.9168 39.1861 71.4784 41.7879 69.271 43.4476V55.7007L63.5418 52.3765L57.8127 55.7007V43.4476C55.6052 41.7879 54.1668 39.1861 54.1668 36.2179ZM61.9793 45.2254V48.4659L63.5418 47.5593L65.1043 48.4659V45.2254C64.5952 45.3091 64.0731 45.3525 63.5418 45.3525C63.0106 45.3525 62.4884 45.3091 61.9793 45.2254Z" fill="white"/>
</svg>