<svg width="96" height="34" viewBox="0 0 96 34" fill="none" xmlns="http://www.w3.org/2000/svg">
<path d="M11.7263 7.16984C13.4227 7.16984 14.9587 7.56561 16.3343 8.35714C17.7327 9.14868 18.8331 10.2894 19.6355 11.7794C20.4608 13.246 20.8735 14.9571 20.8735 16.9127C20.8735 18.8683 20.4608 20.591 19.6355 22.0809C17.9892 25.0531 14.7595 26.7254 10.5112 26.7254C6.26298 26.7254 2.96721 24.9089 1.26929 22.0809C0.447488 20.7122 0 18.6641 0 16.9127V1.08201C0 0.760574 0.2566 0.5 0.573132 0.5H5.96057C6.2771 0.5 6.5337 0.760575 6.5337 1.08201V8.1766C6.5337 8.52396 6.96255 8.7095 7.23703 8.50221C8.41325 7.61397 9.90966 7.16984 11.7263 7.16984ZM10.3508 21.4524C11.497 21.4524 12.437 21.0566 13.1706 20.2651C13.9042 19.4503 14.271 18.3328 14.271 16.9127C14.271 15.5159 13.9042 14.4217 13.1706 13.6302C12.437 12.8386 11.497 12.4429 10.3508 12.4429C9.20449 12.4429 8.26456 12.8386 7.53095 13.6302C6.79734 14.4217 6.43054 15.5159 6.43054 16.9127C6.43054 18.3328 6.79734 19.4503 7.53095 20.2651C8.26456 21.0566 9.20449 21.4524 10.3508 21.4524Z" fill="#1B3C4C"/>
<path d="M33.8829 21.6617C34.777 21.6617 35.545 21.5337 36.1869 21.2776C36.7105 21.0759 37.2341 20.7732 37.7577 20.3693C38.001 20.1817 38.3469 20.197 38.5575 20.4217L41.2251 23.2675C41.4294 23.4854 41.438 23.8273 41.2288 24.0405C39.4725 25.8303 36.9551 26.7252 33.6766 26.7252C31.4987 26.7252 29.5844 26.3062 27.9338 25.4681C26.2832 24.63 24.9994 23.466 24.0823 21.976C23.1883 20.4861 22.7412 18.7982 22.7412 16.9125C22.7412 15.0501 23.1883 13.3855 24.0823 11.9189C24.9764 10.4289 26.2029 9.26492 27.7618 8.42682C29.3437 7.58873 31.1089 7.16968 33.0576 7.16968C34.8687 7.16968 36.5193 7.55381 38.0094 8.32206C39.5225 9.06703 40.7261 10.1729 41.6202 11.6395C42.4418 12.9659 42.8859 14.5282 42.9525 16.3264C42.9628 16.6055 42.7659 16.8457 42.4958 16.8982L30.3825 19.2503C30.0137 19.3219 29.81 19.7317 30.0325 20.0389C30.816 21.1208 32.0995 21.6617 33.8829 21.6617ZM33.092 11.884C31.9686 11.884 31.0516 12.2448 30.3409 12.9665C29.7714 13.5262 29.4007 14.2877 29.2287 15.251C29.1614 15.6278 29.5012 15.9324 29.8714 15.8589L36.0853 14.6256C36.4166 14.5598 36.6247 14.2156 36.4767 13.9076C36.2279 13.3895 35.8676 12.9594 35.396 12.6173C34.7541 12.1284 33.9861 11.884 33.092 11.884Z" fill="#1B3C4C"/>
<path d="M52.1978 9.19189C52.1978 9.37625 52.4341 9.46212 52.5589 9.32824C53.1648 8.67842 53.9041 8.18009 54.7769 7.83327C55.7025 7.45332 56.738 7.23655 57.8834 7.18297C58.1996 7.16818 58.4564 7.43035 58.4564 7.75179V12.4882C58.4564 12.836 58.1579 13.1047 57.8165 13.0763C57.4977 13.0497 57.2181 13.0364 56.9778 13.0364C55.5793 13.0364 54.4789 13.4206 53.6765 14.1888C52.8971 14.9571 52.5073 16.1327 52.5073 17.7158V25.829C52.5073 26.1505 52.2507 26.411 51.9342 26.411H46.5468C46.2302 26.411 45.9736 26.1505 45.9736 25.829V8.06607C45.9736 7.74463 46.2302 7.48406 46.5468 7.48406H51.6247C51.9412 7.48406 52.1978 7.74463 52.1978 8.06607V9.19189Z" fill="#1B3C4C"/>
<path d="M67.3619 9.19189C67.3619 9.37625 67.5982 9.46212 67.723 9.32824C68.3289 8.67842 69.0682 8.18009 69.941 7.83327C70.8665 7.45332 71.902 7.23655 73.0475 7.18297C73.3637 7.16818 73.6205 7.43035 73.6205 7.75179V12.4882C73.6205 12.836 73.322 13.1047 72.9806 13.0763C72.6618 13.0497 72.3822 13.0364 72.1418 13.0364C70.7434 13.0364 69.643 13.4206 68.8406 14.1888C68.0611 14.9571 67.6714 16.1327 67.6714 17.7158V25.829C67.6714 26.1505 67.4148 26.411 67.0983 26.411H61.7108C61.3943 26.411 61.1377 26.1505 61.1377 25.829V8.06607C61.1377 7.74463 61.3943 7.48406 61.7108 7.48406H66.7888C67.1053 7.48406 67.3619 7.74463 67.3619 8.06607V9.19189Z" fill="#1B3C4C"/>
<path d="M95.3917 7.43066C95.7082 7.43066 95.9648 7.69124 95.9648 8.01267V22.9005C95.9648 26.4158 95.0363 29.0465 93.1794 30.7926C91.3454 32.5619 88.6975 33.4465 85.2358 33.4465C83.4247 33.4465 81.7282 33.237 80.1464 32.818C78.774 32.4491 77.5794 31.9268 76.5624 31.2512C76.3254 31.0938 76.2537 30.7786 76.3841 30.5234L78.1999 26.9692C78.3691 26.6379 78.7977 26.5524 79.1031 26.7601C79.7246 27.1827 80.4507 27.5258 81.2812 27.7894C82.4045 28.1619 83.5164 28.3481 84.6168 28.3481C86.2674 28.3481 87.4825 27.964 88.2619 27.1957C89.1777 26.2931 89.3898 25.042 89.4251 23.8066C89.43 23.6361 89.2278 23.5464 89.0996 23.6564C87.7604 24.8054 86.1286 25.3799 84.2041 25.3799C81.797 25.3799 79.8713 24.6582 78.427 23.2148C77.0056 21.7714 76.2949 19.6063 76.2949 16.7196V8.01267C76.2949 7.69124 76.5515 7.43066 76.8681 7.43066H82.2555C82.572 7.43066 82.8286 7.69124 82.8286 8.01267V15.637C82.8286 17.0804 83.0923 18.128 83.6195 18.7799C84.1468 19.4317 84.9148 19.7576 85.9235 19.7576C86.9552 19.7576 87.7919 19.3852 88.4339 18.6402C89.0987 17.8952 89.4311 16.7778 89.4311 15.2878V8.01267C89.4311 7.69124 89.6877 7.43066 90.0042 7.43066H95.3917Z" fill="#1B3C4C"/>
</svg>