<svg width="485" height="315" viewBox="0 0 485 315" fill="none" xmlns="http://www.w3.org/2000/svg">
<g clip-path="url(#clip0_131_8159)">
<path d="M296.106 138.394L116.725 127.135C110.118 126.72 104.938 132.724 106.318 139.199L134.268 270.386C135.213 274.822 139.026 278.067 143.556 278.29L322.919 287.136C329.49 287.46 334.579 281.459 333.184 275.029L309.21 164.5H293L271.5 166L257 162.5L256 158L259.5 153C264.653 151.216 279.86 145.57 285.148 144.237C293.049 142.244 301.447 140.206 300.09 139.5C298.881 138.871 297.53 138.484 296.106 138.394Z" fill="#FEE566"/>
<path fill-rule="evenodd" clip-rule="evenodd" d="M57.9236 71.0515C36.7782 78.4844 15.0056 87.7562 1.41924 94.0258C0.917772 94.2572 0.32366 94.0382 0.092254 93.5368C-0.139152 93.0353 0.0797759 92.4412 0.581243 92.2098C14.2104 85.9205 36.0423 76.623 57.2603 69.1646C67.8688 65.4356 78.3398 62.1606 87.5643 59.9519C96.7607 57.7499 104.819 56.5819 110.557 57.1373C117.369 57.7966 126.628 59.8319 134.723 62.0292C138.776 63.1295 142.554 64.2749 145.606 65.3168C148.55 66.3215 150.9 67.2564 152.151 67.9834C155.014 68.9684 159.071 71.624 163.496 74.9831C168.011 78.4113 173.024 82.6634 177.744 86.8775C182.467 91.0932 186.908 95.2806 190.283 98.5846C191.97 100.236 193.394 101.671 194.455 102.779C195.485 103.856 196.244 104.696 196.527 105.122C196.981 105.802 197.633 106.807 198.171 107.958C198.705 109.1 199.163 110.459 199.163 111.844C199.163 113.27 198.675 114.7 197.377 115.878C196.114 117.024 194.165 117.86 191.374 118.325C191.347 118.329 191.32 118.333 191.292 118.335C188.42 118.574 184.398 117.883 180.012 116.745C175.594 115.598 170.693 113.966 166.011 112.244C156.653 108.803 148.095 104.976 145.902 103.88C143.272 102.565 141.191 101.967 139.507 101.967C137.874 101.967 136.556 102.529 135.392 103.693C135.163 103.922 134.734 104.387 134.123 105.049C131.323 108.084 124.69 115.272 115.829 123.025C105.028 132.474 90.7773 142.893 75.7851 147.89C75.2611 148.064 74.6948 147.781 74.5202 147.257C74.3456 146.733 74.6288 146.167 75.1527 145.992C89.7685 141.121 103.78 130.908 114.512 121.519C123.247 113.878 129.718 106.87 132.588 103.761C133.246 103.049 133.715 102.542 133.978 102.278C135.505 100.751 137.327 99.967 139.507 99.967C141.637 99.967 144.042 100.714 146.796 102.091C148.909 103.148 157.398 106.946 166.702 110.367C171.351 112.077 176.185 113.685 180.515 114.809C184.853 115.935 188.576 116.544 191.086 116.345C193.653 115.912 195.169 115.181 196.033 114.397C196.866 113.641 197.163 112.772 197.163 111.844C197.163 110.874 196.835 109.822 196.36 108.805C195.888 107.798 195.307 106.896 194.863 106.231C194.699 105.984 194.083 105.283 193.01 104.162C191.969 103.074 190.561 101.656 188.884 100.014C185.529 96.73 181.111 92.5637 176.412 88.3695C171.712 84.1737 166.743 79.9599 162.286 76.576C157.792 73.1635 153.931 70.6843 151.416 69.846C151.347 69.8229 151.28 69.7924 151.218 69.7548C150.199 69.1439 147.996 68.2458 144.96 67.2095C141.956 66.1842 138.22 65.0509 134.199 63.9593C126.143 61.7727 117.01 59.7712 110.364 59.1279C104.976 58.6065 97.191 59.7034 88.03 61.8969C78.8972 64.0837 68.4969 67.3348 57.9236 71.0515Z" fill="#1B3C4C"/>
<path fill-rule="evenodd" clip-rule="evenodd" d="M55.2348 211.346C38.451 218.722 21.211 227.811 10.4666 233.928C9.98668 234.201 9.37609 234.034 9.10283 233.554C8.82957 233.074 8.99713 232.463 9.47708 232.19C20.2658 226.047 37.5685 216.926 54.4301 209.515C62.8602 205.81 71.198 202.525 78.5665 200.255C85.9026 197.995 92.3938 196.702 97.0812 197.077C115.061 198.515 128.85 200.673 133.961 201.574C134.505 201.67 134.868 202.189 134.772 202.733C134.676 203.277 134.157 203.64 133.613 203.544C128.556 202.652 114.83 200.503 96.9217 199.071C92.637 198.728 86.4551 199.917 79.1554 202.166C71.8881 204.406 63.6275 207.658 55.2348 211.346Z" fill="#1B3C4C"/>
<path fill-rule="evenodd" clip-rule="evenodd" d="M338.011 246.851C338.094 246.305 338.603 245.929 339.149 246.011C358.31 248.903 388.39 259.971 419.606 272.88C440.97 281.714 462.935 291.442 482.38 300.053C491.37 304.034 499.822 307.777 507.427 311.083C507.933 311.303 508.165 311.892 507.945 312.399C507.725 312.905 507.136 313.137 506.63 312.917C499.002 309.601 490.536 305.853 481.538 301.867C462.104 293.261 440.183 283.553 418.841 274.728C387.591 261.805 357.732 250.838 338.851 247.989C338.305 247.907 337.929 247.397 338.011 246.851Z" fill="#1B3C4C"/>
<path fill-rule="evenodd" clip-rule="evenodd" d="M296.783 138.999C311.753 135.096 328.035 132.295 341.127 133.386C347.72 133.935 359.02 136.991 372.906 141.531C386.827 146.083 403.449 152.161 420.739 158.814C455.321 172.119 492.613 187.733 516.398 198.053C516.905 198.273 517.138 198.862 516.918 199.369C516.698 199.875 516.109 200.108 515.602 199.888C491.835 189.576 454.569 173.973 420.021 160.68C402.746 154.034 386.159 147.968 372.284 143.432C358.373 138.884 347.287 135.906 340.961 135.379C328.213 134.317 312.195 137.048 297.288 140.934C282.454 144.802 268.818 149.787 260.773 153.207C259.953 153.761 259.064 154.494 258.309 155.323C257.525 156.186 256.935 157.101 256.679 157.984C256.433 158.833 256.492 159.651 257 160.449C257.532 161.285 258.627 162.208 260.679 163.062C262.688 163.899 265.549 164.431 268.932 164.713C272.298 164.994 276.109 165.022 279.977 164.892C287.715 164.632 295.615 163.74 300.52 162.997L300.528 162.996C302.73 162.681 306.27 162.636 309.834 163.508C313.398 164.379 317.103 166.198 319.446 169.71C322.065 173.638 328.041 179.847 334.21 185.566C340.383 191.29 346.587 196.372 349.615 198.102C350.094 198.376 350.261 198.987 349.987 199.467C349.713 199.946 349.102 200.113 348.623 199.839C345.37 197.981 339.013 192.747 332.85 187.033C326.682 181.315 320.546 174.965 317.782 170.82C315.817 167.874 312.644 166.254 309.359 165.45C306.077 164.648 302.8 164.692 300.815 164.975C295.849 165.727 287.872 166.628 280.045 166.891C276.13 167.023 272.236 166.995 268.766 166.706C265.314 166.418 262.208 165.866 259.91 164.909C257.656 163.969 256.149 162.836 255.313 161.523C254.453 160.172 254.376 158.747 254.758 157.428C255.131 156.143 255.932 154.965 256.83 153.978C257.734 152.983 258.786 152.127 259.74 151.492C259.791 151.457 259.846 151.428 259.903 151.404C268.019 147.947 281.793 142.907 296.783 138.999Z" fill="#1B3C4C"/>
<path fill-rule="evenodd" clip-rule="evenodd" d="M183.939 95.039C183.974 94.4878 184.449 94.069 185 94.1036L303.104 101.517C307.994 101.824 312.091 105.328 313.153 110.111L318.692 135.064C318.812 135.603 318.472 136.137 317.933 136.257C317.394 136.376 316.86 136.036 316.74 135.497L311.201 110.545C310.332 106.631 306.98 103.764 302.979 103.513L184.875 96.0996C184.324 96.065 183.905 95.5902 183.939 95.039ZM116.53 119.95C117.07 119.834 117.602 120.177 117.718 120.717L142.132 234.311C142.989 238.296 146.417 241.208 150.488 241.409L329.885 250.257C335.794 250.548 340.372 245.157 339.127 239.373L326.608 181.241C326.492 180.701 326.835 180.169 327.375 180.053C327.915 179.936 328.447 180.28 328.563 180.82L341.082 238.952C342.604 246.021 337.009 252.611 329.787 252.254L150.39 243.407C145.414 243.161 141.224 239.602 140.177 234.732L115.763 121.138C115.647 120.598 115.99 120.066 116.53 119.95Z" fill="#1B3C4C"/>
<path fill-rule="evenodd" clip-rule="evenodd" d="M132.067 104.738C132.379 104.283 133.002 104.168 133.457 104.481C159.997 122.721 204.771 153.391 231.51 171.694L308.343 104.746C308.76 104.383 309.391 104.427 309.754 104.843C310.117 105.26 310.074 105.891 309.657 106.254L232.241 173.71C231.898 174.01 231.395 174.039 231.019 173.782C204.359 155.533 159.078 124.516 132.324 106.129C131.869 105.816 131.754 105.194 132.067 104.738Z" fill="#1B3C4C"/>
<path fill-rule="evenodd" clip-rule="evenodd" d="M361.135 75.1772C360.864 75.3639 360.703 75.6715 360.703 76V87.7375L349.352 83.3181C349.019 83.1883 348.641 83.2466 348.362 83.471C348.084 83.6954 347.946 84.0518 348.002 84.4053C348.44 87.1899 348.473 91.3807 347.208 94.9054C346.58 96.6563 345.647 98.2005 344.326 99.3408C343.017 100.471 341.275 101.25 338.936 101.402C338.384 101.438 337.967 101.914 338.002 102.465C338.038 103.016 338.514 103.434 339.065 103.398C341.811 103.22 343.974 102.287 345.633 100.855C347.281 99.4323 348.38 97.5631 349.091 95.5809C350.259 92.3253 350.423 88.6517 350.18 85.7866L361.34 90.1319C361.648 90.2517 361.995 90.2119 362.267 90.0255C362.54 89.8391 362.703 89.5302 362.703 89.2V77.4478L372.246 81.0602C372.763 81.2558 373.34 80.9955 373.536 80.479C373.731 79.9625 373.471 79.3853 372.954 79.1898L362.057 75.0648C361.75 74.9485 361.405 74.9905 361.135 75.1772Z" fill="#1B3C4C"/>
<path fill-rule="evenodd" clip-rule="evenodd" d="M266.082 28.1265C265.599 27.8576 264.99 28.0306 264.721 28.513L258.544 39.5935C258.338 39.9619 258.386 40.4197 258.663 40.7376C258.941 41.0556 259.387 41.1654 259.78 41.0121L267.981 37.8129L263.817 46.8837C263.653 47.2393 263.713 47.6575 263.968 47.9539C264.224 48.2503 264.629 48.3704 265.005 48.2612L272.255 46.1547L270.661 52.7764C270.532 53.3133 270.862 53.8534 271.399 53.9827C271.936 54.112 272.476 53.7815 272.605 53.2446L274.603 44.9478C274.687 44.6013 274.579 44.2365 274.321 43.9904C274.064 43.7443 273.694 43.654 273.352 43.7534L266.547 45.7304L270.83 36.3996C271 36.0293 270.929 35.5927 270.649 35.2963C270.369 34.9998 269.938 34.9027 269.558 35.0508L261.645 38.1379L266.468 29.4869C266.737 29.0045 266.564 28.3955 266.082 28.1265Z" fill="#1B3C4C"/>
<path d="M300.657 58.4108C303.137 62.5047 308.757 63.6372 313.208 60.9405C317.66 58.2437 319.259 52.7387 316.779 48.6448C314.299 44.5509 308.679 43.4184 304.228 46.1151C299.776 48.8119 298.177 54.3169 300.657 58.4108Z" fill="#FEE566"/>
<path fill-rule="evenodd" clip-rule="evenodd" d="M309.811 63.7788C306.606 65.7201 302.481 64.7082 300.583 61.5747C298.684 58.4411 299.698 54.316 302.903 52.3747C306.108 50.4333 310.233 51.4453 312.131 54.5788C314.03 57.7123 313.016 61.8374 309.811 63.7788ZM310.847 65.4894C306.713 67.9935 301.352 66.7048 298.872 62.6109C296.392 58.517 297.733 53.1682 301.867 50.6641C306 48.1599 311.362 49.4486 313.842 53.5425C316.322 57.6364 314.981 62.9852 310.847 65.4894Z" fill="#1B3C4C"/>
<path d="M369.922 11.1745L340.665 8.74121L354.928 34.0306L369.922 11.1745Z" fill="#FEE566"/>
<path fill-rule="evenodd" clip-rule="evenodd" d="M349.304 39.4262C349.674 39.4222 350.013 39.2128 350.182 38.8823L363.436 13.1048C363.595 12.7951 363.583 12.425 363.403 12.1274C363.224 11.8297 362.903 11.6473 362.556 11.6456L335.376 11.5131C335.024 11.5114 334.696 11.6964 334.514 11.9999C334.332 12.3033 334.323 12.6802 334.49 12.9913L348.416 38.9014C348.592 39.2282 348.934 39.4302 349.304 39.4262ZM349.277 36.2777L337.047 13.5244L360.915 13.6408L349.277 36.2777Z" fill="#1B3C4C"/>
</g>
<defs>
<clipPath id="clip0_131_8159">
<rect width="485" height="315" fill="white"/>
</clipPath>
</defs>
</svg>