<svg width="344" height="270" viewBox="0 0 344 270" fill="none" xmlns="http://www.w3.org/2000/svg">
<path fill-rule="evenodd" clip-rule="evenodd" d="M287.575 130.412C290.243 169.446 280.599 209.837 251.526 235.975C220.492 263.876 176.79 277.042 136.506 266.23C97.698 255.815 65.2971 223.08 56.8874 183.737C49.8419 150.776 86.6384 128.838 100.58 98.1577C115.33 65.698 105.679 17.4217 138.621 3.87268C173.162 -10.3345 209.758 17.3495 238.234 41.5402C265.389 64.6089 285.143 94.8347 287.575 130.412Z" fill="#B5ECE8"/>
<mask id="mask0_131_9331" style="mask-type:alpha" maskUnits="userSpaceOnUse" x="56" y="0" width="232" height="270">
<path fill-rule="evenodd" clip-rule="evenodd" d="M287.575 130.412C290.243 169.446 280.599 209.837 251.526 235.975C220.492 263.876 176.79 277.042 136.506 266.23C97.6981 255.815 65.2971 223.08 56.8874 183.737C49.8419 150.776 86.6384 128.838 100.58 98.1577C115.33 65.698 105.679 17.4217 138.621 3.87268C173.162 -10.3345 209.758 17.3495 238.234 41.5402C265.389 64.6089 285.143 94.8347 287.575 130.412Z" fill="#B5ECE8"/>
</mask>
<g mask="url(#mask0_131_9331)">
<path d="M178.04 172.658L206.701 165.84C211.083 233.061 252.513 279.65 268.76 289.6L228.06 309.2C192.133 276.327 179.744 204.475 178.04 172.658Z" fill="white"/>
<path d="M174.68 174.423L140.393 161.36C126.646 228.639 97.9602 278.4 75.0002 289.235L122.254 300.24C153.465 258.59 172.946 206.574 174.68 174.423Z" fill="white"/>
<path fill-rule="evenodd" clip-rule="evenodd" d="M188.367 131.361C206.624 126.196 220 109.41 220 89.5C220 65.4756 200.524 46 176.5 46C152.476 46 133 65.4756 133 89.5C133 108.893 145.691 125.322 163.221 130.936C161.627 123.373 161.596 114.786 161.831 113.256C162.164 111.095 160.584 100.58 159.752 95.593C167.385 97.3999 168.614 108.711 169.063 112.848C169.079 112.993 169.094 113.129 169.108 113.256C169.44 116.248 171.187 115.611 172.018 114.918C176.73 104.805 186.487 83.9146 187.818 81.2548C189.149 78.595 192.53 79.454 193.431 80.2159L192.622 82.3715C193.873 80.7533 196.134 82.0934 196.134 83.3329C196.134 83.6152 195.366 86.6946 194.298 90.9788C192.533 98.0637 189.945 108.444 188.65 114.918C187.997 118.181 188.005 124.27 188.367 131.361Z" fill="white"/>
<path fill-rule="evenodd" clip-rule="evenodd" d="M185.932 79.1729C185.779 79.2389 185.498 79.4298 185.152 79.9476C184.799 80.4755 184.236 81.6674 183.554 83.3021C182.886 84.9046 182.138 86.8475 181.412 88.8109C179.958 92.7468 178.618 96.7096 178.213 98.1232C177.812 99.5228 177.039 100.458 176.197 100.882C175.796 101.084 175.283 101.214 174.778 101.071C174.513 100.996 174.243 100.841 174.041 100.578C173.838 100.313 173.756 100.005 173.756 99.714C173.756 99.59 173.777 99.4053 173.796 99.2467C173.818 99.06 173.85 98.8162 173.89 98.5265C173.969 97.9462 174.082 97.1639 174.215 96.2488C174.274 95.8435 174.337 95.4118 174.403 94.9592C174.636 93.3648 174.907 91.5119 175.17 89.6466C175.507 87.2508 175.831 84.8451 176.043 82.9513C176.148 82.0195 176.225 81.2231 176.264 80.6173C176.217 80.6727 176.169 80.7297 176.121 80.7877C176.089 80.827 176.055 80.8681 176.02 80.9103C175.866 81.0978 175.695 81.3058 175.544 81.4671C175.538 81.4804 175.53 81.497 175.522 81.5171C175.474 81.628 175.41 81.794 175.331 82.0192C175.174 82.4667 174.977 83.0894 174.749 83.8467C174.294 85.3584 173.732 87.3578 173.147 89.4583C172.996 89.9994 172.844 90.548 172.691 91.097C171.669 94.7776 170.641 98.4767 170.085 100.048C169.869 100.66 169.63 101.388 169.365 102.194C169.125 102.928 168.863 103.726 168.577 104.563C168.398 105.085 167.83 105.364 167.307 105.185C166.785 105.006 166.506 104.438 166.685 103.915C166.948 103.146 167.208 102.353 167.452 101.61C167.729 100.767 167.985 99.9883 168.2 99.3804C168.73 97.8814 169.735 94.2651 170.764 90.5606C170.916 90.0141 171.069 89.4656 171.22 88.9217C171.805 86.823 172.372 84.8047 172.834 83.2706C173.064 82.505 173.272 81.848 173.444 81.3574C173.529 81.1136 173.611 80.8961 173.687 80.7212C173.725 80.6342 173.767 80.5441 173.813 80.4604C173.849 80.3952 173.926 80.2589 174.05 80.1354C174.142 80.0436 174.268 79.8911 174.453 79.6664C174.493 79.6184 174.535 79.5671 174.581 79.5124C174.81 79.2352 175.099 78.8934 175.395 78.6132C175.544 78.4722 175.718 78.3249 175.909 78.2041C176.091 78.0893 176.356 77.9539 176.679 77.9233C177.048 77.8883 177.429 77.9979 177.732 78.2805C177.999 78.5288 178.135 78.8461 178.213 79.1165C178.28 79.3521 178.29 79.6312 178.292 79.843C178.294 80.088 178.282 80.3824 178.262 80.7105C178.22 81.3686 178.139 82.2144 178.031 83.1746C177.815 85.0976 177.488 87.5262 177.15 89.9257C176.886 91.7966 176.615 93.6563 176.382 95.2512C176.316 95.7029 176.253 96.1333 176.194 96.5368C176.087 97.2771 175.993 97.9251 175.92 98.4479C176.055 98.2253 176.185 97.9382 176.29 97.5724C176.717 96.0831 178.079 92.0621 179.536 88.1178C180.266 86.1411 181.025 84.1699 181.709 82.5322C182.378 80.9267 183.011 79.5524 183.489 78.8361C183.975 78.1098 184.526 77.6008 185.14 77.3363C185.773 77.0633 186.403 77.083 186.934 77.2995C187.44 77.5062 187.833 77.8814 188.062 78.296C188.256 78.6473 188.462 79.3 188.093 79.9006C188.091 79.905 188.089 79.9103 188.086 79.9164C188.068 79.9571 188.042 80.0193 188.007 80.106C187.938 80.2783 187.845 80.5208 187.732 80.8275C187.507 81.4393 187.207 82.2848 186.861 83.2883C186.17 85.2944 185.3 87.9171 184.482 90.5368C184.318 91.064 183.757 91.3579 183.23 91.1934C182.703 91.0288 182.409 90.468 182.573 89.9408C183.397 87.3008 184.273 84.6595 184.97 82.6367C185.318 81.6257 185.623 80.7656 185.856 80.1355C185.972 79.8213 186.071 79.5588 186.151 79.3614C186.177 79.2952 186.203 79.2332 186.227 79.1772C186.212 79.1673 186.196 79.1584 186.178 79.1513C186.137 79.1346 186.065 79.1154 185.932 79.1729ZM186.32 79.2825C186.32 79.2823 186.317 79.2777 186.314 79.2691C186.319 79.2783 186.321 79.2826 186.32 79.2825ZM188.102 79.8823C188.102 79.8823 188.101 79.8835 188.1 79.8856C188.101 79.8833 188.102 79.8822 188.102 79.8823ZM175.203 99.1323C175.203 99.1322 175.205 99.1318 175.208 99.1314C175.205 99.1322 175.203 99.1324 175.203 99.1323ZM175.565 81.4242C175.57 81.4149 175.57 81.4169 175.564 81.4268C175.564 81.4258 175.565 81.4249 175.565 81.4242ZM177 79.8821C177 79.8822 176.998 79.8832 176.994 79.8849C176.998 79.8828 177 79.882 177 79.8821ZM176.278 79.6291C176.276 79.626 176.275 79.6242 176.275 79.6242C176.275 79.6241 176.276 79.6257 176.278 79.6291ZM194.371 95.9044C194.143 96.0124 193.894 96.176 193.677 96.3486C193.246 96.6931 192.616 96.6224 192.272 96.1908C191.927 95.7591 191.998 95.1299 192.43 94.7854C192.733 94.5432 193.113 94.2868 193.515 94.0966C193.888 93.9201 194.42 93.7325 194.973 93.8089C195.274 93.8504 195.586 93.9715 195.853 94.2126C196.117 94.4503 196.279 94.7523 196.37 95.0642C196.542 95.6527 196.496 96.3862 196.319 97.2249C196.054 98.4792 195.212 100.492 194.191 102.667C193.153 104.878 191.877 107.361 190.682 109.603C190.422 110.09 189.817 110.275 189.329 110.015C188.842 109.755 188.658 109.15 188.917 108.662C190.104 106.436 191.362 103.985 192.38 101.817C193.415 99.6136 194.153 97.804 194.362 96.8118C194.437 96.4577 194.47 96.1863 194.477 95.9831C194.478 95.9364 194.478 95.8946 194.478 95.8575C194.444 95.8708 194.409 95.8864 194.371 95.9044ZM150.933 98.2472C161.937 114.045 161.701 133.44 161.627 139.52C161.622 139.931 161.618 140.282 161.618 140.566C161.618 142.544 160.887 145.934 159.854 149.761C158.809 153.632 157.418 158.078 156.028 162.236C155.853 162.76 155.287 163.042 154.763 162.867C154.239 162.692 153.956 162.126 154.131 161.602C155.514 157.465 156.892 153.059 157.923 149.24C158.966 145.376 159.618 142.237 159.618 140.566C159.618 140.275 159.622 139.922 159.627 139.512C159.696 133.393 159.909 114.516 149.195 99.2518C149.14 99.1727 149.096 99.0859 149.065 98.9943C148.922 98.5663 148.792 97.7992 149.149 97.099C149.343 96.7169 149.665 96.3951 150.116 96.2014C150.548 96.0157 151.042 95.9707 151.569 96.0233C152.068 96.0731 152.517 96.3703 152.835 96.6151C153.193 96.8916 153.58 97.2599 153.978 97.6767C154.775 98.5131 155.701 99.637 156.658 100.851C157.472 101.884 158.303 102.975 159.112 104.037C160.243 105.522 161.331 106.95 162.267 108.082C162.619 108.507 162.559 109.137 162.134 109.489C161.708 109.841 161.078 109.782 160.726 109.356C159.777 108.209 158.633 106.709 157.473 105.186C156.666 104.128 155.851 103.059 155.087 102.089C154.138 100.884 153.259 99.8216 152.53 99.0567C152.164 98.6728 151.857 98.3867 151.614 98.1992C151.433 98.0601 151.342 98.0186 151.326 98.0094C151.094 97.9906 150.973 98.0162 150.925 98.0318C150.922 98.0497 150.919 98.0772 150.92 98.1159C150.92 98.159 150.925 98.204 150.933 98.2472Z" fill="#1B3C4C"/>
<path fill-rule="evenodd" clip-rule="evenodd" d="M192.661 78.7287C193.2 78.8981 193.715 79.1463 194.077 79.4522C194.4 79.7252 194.516 80.1716 194.367 80.5673L194.34 80.64C194.64 80.6674 194.931 80.739 195.199 80.8444C195.713 81.0457 196.176 81.3751 196.52 81.7805C196.858 82.1791 197.134 82.718 197.134 83.3327C197.134 83.4513 197.113 83.5721 197.104 83.6256C197.091 83.7041 197.073 83.7975 197.052 83.8997C197.009 84.1053 196.948 84.3779 196.871 84.706C196.718 85.3638 196.497 86.2699 196.228 87.3626C195.954 88.4699 195.628 89.7781 195.268 91.2221C194.919 92.6235 194.538 94.1528 194.142 95.7506C192.53 102.258 190.665 109.945 189.63 115.114C189.237 117.082 189.086 120.217 189.127 124.111C189.168 127.984 189.397 132.538 189.737 137.306C190.417 146.842 191.538 157.196 192.472 164.595C192.541 165.143 192.153 165.643 191.605 165.712C191.057 165.781 190.557 165.393 190.488 164.845C189.551 157.421 188.425 147.03 187.742 137.449C187.401 132.658 187.169 128.061 187.127 124.132C187.086 120.226 187.232 116.91 187.669 114.722C188.714 109.501 190.591 101.77 192.201 95.2698C192.599 93.6632 192.98 92.1343 193.329 90.7349C193.687 89.2952 194.012 87.9925 194.286 86.8833C194.555 85.7915 194.773 84.8961 194.924 84.2517C194.999 83.9288 195.056 83.6751 195.093 83.4938C195.11 83.4121 195.122 83.3509 195.13 83.3078C195.12 83.2687 195.09 83.1864 194.994 83.074C194.87 82.9278 194.683 82.7903 194.47 82.7064C194.258 82.6235 194.06 82.608 193.898 82.6445C193.778 82.6716 193.64 82.7348 193.497 82.8843L185.136 105.151C184.942 105.668 184.366 105.93 183.849 105.736C183.332 105.542 183.07 104.966 183.264 104.449L191.664 82.0488C191.681 82.0037 191.701 81.9599 191.724 81.9178L192.189 80.6793C192.148 80.6649 192.106 80.6506 192.061 80.6366C191.687 80.5188 191.246 80.4431 190.806 80.4519C189.945 80.4691 189.168 80.7909 188.712 81.702C187.39 84.3455 177.642 105.216 172.925 115.341C172.862 115.474 172.771 115.592 172.658 115.687C172.383 115.916 172.025 116.148 171.62 116.304C171.218 116.459 170.704 116.565 170.161 116.446C168.928 116.174 168.294 114.991 168.114 113.366C168.1 113.24 168.085 113.106 168.07 112.963C167.852 110.963 167.464 107.403 166.293 104.053C165.221 100.99 163.576 98.3312 161.011 97.0933C161.394 99.481 161.853 102.53 162.22 105.355C162.45 107.123 162.644 108.813 162.76 110.202C162.873 111.547 162.924 112.73 162.82 113.408C162.732 113.975 162.674 115.934 162.786 118.669C162.896 121.368 163.168 124.736 163.709 128.081C164.252 131.438 165.058 134.719 166.214 137.274C167.39 139.871 168.816 141.474 170.459 141.914C170.843 142.017 171.13 142.339 171.189 142.733L175.109 169.053C175.19 169.599 174.814 170.108 174.267 170.189C173.721 170.27 173.212 169.893 173.131 169.347L169.301 143.634C167.1 142.762 165.528 140.607 164.392 138.098C163.131 135.311 162.289 131.832 161.734 128.401C161.178 124.958 160.9 121.508 160.788 118.75C160.677 116.027 160.722 113.887 160.843 113.104C160.905 112.701 160.884 111.759 160.767 110.369C160.655 109.023 160.465 107.367 160.237 105.613C159.781 102.106 159.181 98.2429 158.766 95.7574C158.711 95.4271 158.825 95.0911 159.07 94.8624C159.314 94.6337 159.657 94.5427 159.983 94.6198C164.445 95.6762 166.848 99.5832 168.181 103.393C169.432 106.969 169.841 110.741 170.057 112.733C170.072 112.881 170.087 113.018 170.102 113.145C170.175 113.808 170.317 114.163 170.429 114.337C170.519 114.479 170.578 114.49 170.589 114.492C170.59 114.492 170.59 114.492 170.591 114.492C170.63 114.501 170.729 114.504 170.899 114.439C171.006 114.397 171.115 114.338 171.217 114.27C175.962 104.087 185.595 83.4637 186.924 80.8073C187.798 79.0586 189.378 78.48 190.766 78.4523C191.449 78.4386 192.106 78.5542 192.661 78.7287Z" fill="#1B3C4C"/>
<path fill-rule="evenodd" clip-rule="evenodd" d="M146.793 159.547C146.564 159.693 146.404 159.925 146.35 160.191C138.729 197.539 127.233 227.087 115.37 248.676C103.488 270.298 91.2894 283.844 82.3198 289.306C82.0393 289.477 81.8605 289.774 81.8416 290.102C81.8227 290.43 81.966 290.747 82.225 290.949L122.557 322.402C122.769 322.567 123.039 322.64 123.305 322.604C123.571 322.568 123.812 322.427 123.973 322.212C147.457 290.831 164.188 248.069 173.194 212.566C173.33 212.03 173.006 211.486 172.471 211.351C171.935 211.215 171.391 211.539 171.255 212.074C162.366 247.119 145.934 289.174 122.981 320.195L84.5714 290.242C93.817 284.094 105.679 270.463 117.123 249.639C128.983 228.056 140.443 198.655 148.101 161.606L178.925 169.052C179.462 169.182 180.002 168.852 180.132 168.315C180.262 167.778 179.932 167.238 179.395 167.108L147.565 159.419C147.301 159.355 147.022 159.401 146.793 159.547Z" fill="#1B3C4C"/>
<path fill-rule="evenodd" clip-rule="evenodd" d="M199.973 162.549C200.21 162.724 200.357 162.994 200.377 163.287C205.312 238.58 243.142 279.555 261.222 290.565C261.492 290.729 261.669 291.013 261.697 291.328C261.726 291.644 261.604 291.954 261.367 292.165L224.202 325.321C223.82 325.662 223.242 325.659 222.863 325.315C202.345 306.647 188.618 276.995 179.777 247.64C170.928 218.261 166.931 189.035 165.964 171.074C165.938 170.591 166.261 170.158 166.732 170.047L199.149 162.38C199.435 162.312 199.737 162.374 199.973 162.549ZM168.008 171.801C169.045 189.685 173.03 218.304 181.692 247.064C190.4 275.977 203.794 304.889 223.546 323.226L259.044 291.558C240.104 279.298 203.646 238.245 198.461 164.597L168.008 171.801Z" fill="#1B3C4C"/>
</g>
</svg>
