<svg width="344" height="270" viewBox="0 0 344 270" fill="none" xmlns="http://www.w3.org/2000/svg">
<path fill-rule="evenodd" clip-rule="evenodd" d="M192.529 0.382127C236.272 4.04186 269.843 40.325 289.418 79.605C304.706 110.282 288.424 143.581 280.511 176.93C272.744 209.667 275.52 251.599 245.163 266.122C214.832 280.633 184.604 250.686 153.616 237.638C118.822 222.986 74.0937 221.784 58.3723 187.466C39.8493 147.033 47.0032 97.6356 72.9215 61.4919C100.368 23.217 145.587 -3.54527 192.529 0.382127Z" fill="#B5ECE8"/>
<path d="M250 213.5C250 214.881 218.66 216 180 216C141.34 216 110 214.881 110 213.5C110 212.119 141.34 211 180 211C218.66 211 250 212.119 250 213.5Z" fill="#1B3C4C"/>
<path fill-rule="evenodd" clip-rule="evenodd" d="M214.315 134.983L248.229 168.819C250.312 170.896 250.312 174.265 248.229 176.343C246.146 178.421 242.769 178.421 240.687 176.343L206.772 142.507L214.315 134.983Z" fill="#1B3C4C"/>
<path d="M197 129.5C197 158.495 173.495 182 144.5 182C115.505 182 92 158.495 92 129.5C92 100.505 115.505 77 144.5 77C173.495 77 197 100.505 197 129.5Z" fill="white"/>
<path fill-rule="evenodd" clip-rule="evenodd" d="M126.569 55.3478C149.941 32.2174 187.831 32.2174 211.203 55.3478C234.581 78.484 234.581 115.999 211.203 139.136C187.831 162.266 149.941 162.266 126.569 139.136C103.191 115.999 103.191 78.484 126.569 55.3478ZM209.796 56.7694C187.203 34.4102 150.569 34.4102 127.976 56.7694C105.388 79.1228 105.388 115.361 127.976 137.714C150.569 160.073 187.203 160.073 209.796 137.714C232.384 115.361 232.384 79.1228 209.796 56.7694ZM202.23 64.2572C183.816 46.0335 153.956 46.0335 135.542 64.2572C117.133 82.4753 117.133 112.008 135.542 130.226C153.956 148.45 183.816 148.45 202.23 130.226C220.639 112.008 220.639 82.4753 202.23 64.2572ZM134.135 62.8357C153.329 43.8407 184.443 43.8407 203.637 62.8357C222.837 81.8364 222.837 112.647 203.637 131.648C184.443 150.643 153.329 150.643 134.135 131.648C114.935 112.647 114.935 81.8364 134.135 62.8357Z" fill="#1B3C4C"/>
<path fill-rule="evenodd" clip-rule="evenodd" d="M203.241 90.0342C203.793 90.0382 204.238 90.4892 204.234 91.0414C204.203 95.2199 202.596 101.554 197.923 107.18C193.228 112.833 185.488 117.713 173.308 119.023L173.3 119.024L173.293 119.024C168.795 119.439 161.717 119.102 155.011 116.742C148.295 114.378 141.842 109.938 138.859 102.081C138.663 101.565 138.923 100.987 139.439 100.791C139.956 100.595 140.533 100.855 140.729 101.371C143.434 108.496 149.302 112.612 155.675 114.855C162.056 117.101 168.833 117.426 173.102 117.034C184.805 115.774 192.05 111.121 196.384 105.902C200.742 100.656 202.206 94.7764 202.234 91.0269C202.238 90.4747 202.689 90.0302 203.241 90.0342Z" fill="#1B3C4C"/>
<path fill-rule="evenodd" clip-rule="evenodd" d="M137.736 101.393C161.907 76.5115 194.171 84.7502 207.234 91.9203C207.718 92.186 207.895 92.794 207.629 93.2781C207.363 93.7622 206.755 93.9393 206.271 93.6735C193.562 86.6974 162.425 78.8483 139.17 102.786C138.786 103.183 138.152 103.192 137.756 102.807C137.36 102.422 137.351 101.789 137.736 101.393Z" fill="#1B3C4C"/>
<path d="M135.517 92.7382C137.038 95.6467 140.545 97.2776 142.571 97.5929L147.169 93.9837C144.895 95.4693 139.748 93.9456 136.667 91.9667C136.048 91.5692 135.175 92.0834 135.517 92.7382Z" fill="#1B3C4C"/>
<path d="M144.866 86.2795C145.891 89.4024 149.084 91.5977 151.03 92.2477L156.154 89.4574C153.669 90.5421 148.841 88.1781 146.125 85.7109C145.58 85.2153 144.635 85.5764 144.866 86.2795Z" fill="#1B3C4C"/>
<path fill-rule="evenodd" clip-rule="evenodd" d="M166.286 114.473C172.457 114.473 177.46 109.407 177.46 103.157C177.46 96.9076 172.457 91.8413 166.286 91.8413C160.115 91.8413 155.113 96.9076 155.113 103.157C155.113 109.407 160.115 114.473 166.286 114.473ZM162.809 109.85C164.026 109.393 164.286 107.034 163.388 104.581C162.49 102.128 160.775 100.51 159.557 100.967C158.34 101.425 157.37 104.173 158.268 106.626C159.166 109.078 161.591 110.307 162.809 109.85Z" fill="#1B3C4C"/>
<path d="M156.309 80.7313C156.644 84.0046 159.294 86.8458 161.056 87.9058L166.654 86.3008C163.996 86.817 159.786 83.4538 157.659 80.4513C157.232 79.8482 156.233 79.9944 156.309 80.7313Z" fill="#1B3C4C"/>
<path d="M195.649 79.6349C194.05 82.4997 194.585 86.3703 195.415 88.2681L200.896 90.2441C198.434 89.1057 196.926 83.8939 196.91 80.1991C196.907 79.457 196.009 78.9899 195.649 79.6349Z" fill="#1B3C4C"/>
<path d="M169.458 77.5744C169.117 80.8471 171.128 84.1826 172.635 85.5892L178.44 85.1934C175.734 85.1409 172.303 80.9673 170.837 77.5839C170.543 76.9042 169.535 76.8376 169.458 77.5744Z" fill="#1B3C4C"/>
<path d="M183.828 76.6938C182.488 79.6919 183.362 83.4986 184.356 85.3138L189.989 86.786C187.437 85.8749 185.475 80.8203 185.134 77.1418C185.065 76.4029 184.129 76.0189 183.828 76.6938Z" fill="#1B3C4C"/>
</svg>
