<svg width="376" height="270" viewBox="0 0 376 270" fill="none" xmlns="http://www.w3.org/2000/svg">
<path fill-rule="evenodd" clip-rule="evenodd" d="M99.1698 64.8206C125.248 37.7925 158.499 11.4947 195.489 18.0019C230.364 24.1372 241.416 65.0858 262.481 93.5501C285.872 125.158 330.893 150.436 321.806 188.693C312.543 227.69 264.137 239.946 225.328 249.97C193.039 258.31 160.829 252.879 130.994 237.978C97.6341 221.316 60.8997 201.153 54.1593 164.478C47.2274 126.761 72.5421 92.4181 99.1698 64.8206Z" fill="#B5ECE8"/>
<path fill-rule="evenodd" clip-rule="evenodd" d="M105.312 144.878L128.287 137.463C128.772 137.802 129.363 138 130 138H138C139.657 138 141 136.657 141 135V133.36L145 132.069V135C145 136.657 146.343 138 148 138H156C157.657 138 159 136.657 159 135V127.55L163.101 126.226C163.035 126.473 163 126.733 163 127V135C163 136.657 164.343 138 166 138H174C175.657 138 177 136.657 177 135V127C177 125.343 175.657 124 174 124H169.999L182.963 119.816C183.286 119.935 183.635 120 184 120H191C192.657 120 194 118.657 194 117V116.253L199 114.64V117C199 118.657 200.343 120 202 120H209C210.657 120 212 118.657 212 117V110.444L217.005 108.829C217.002 108.885 217 108.943 217 109V117C217 118.657 218.343 120 220 120H228C229.657 120 231 118.657 231 117V109C231 107.343 229.657 106 228 106H225.768L278 89.1418L257.75 219.193L94.0625 194.421L105.312 144.878ZM130 142C128.343 142 127 143.343 127 145V153C127 154.657 128.343 156 130 156H138C139.657 156 141 154.657 141 153V145C141 143.343 139.657 142 138 142H130ZM127 163C127 161.343 128.343 160 130 160H138C139.657 160 141 161.343 141 163V171C141 172.657 139.657 174 138 174H130C128.343 174 127 172.657 127 171V163ZM130 178C128.343 178 127 179.343 127 181V189C127 190.657 128.343 192 130 192H138C139.657 192 141 190.657 141 189V181C141 179.343 139.657 178 138 178H130ZM148 142C146.343 142 145 143.343 145 145V153C145 154.657 146.343 156 148 156H156C157.657 156 159 154.657 159 153V145C159 143.343 157.657 142 156 142H148ZM145 163C145 161.343 146.343 160 148 160H156C157.657 160 159 161.343 159 163V171C159 172.657 157.657 174 156 174H148C146.343 174 145 172.657 145 171V163ZM148 178C146.343 178 145 179.343 145 181V189C145 190.657 146.343 192 148 192H156C157.657 192 159 190.657 159 189V181C159 179.343 157.657 178 156 178H148ZM163 145C163 143.343 164.343 142 166 142H174C175.657 142 177 143.343 177 145V153C177 154.657 175.657 156 174 156H166C164.343 156 163 154.657 163 153V145ZM166 160C164.343 160 163 161.343 163 163V171C163 172.657 164.343 174 166 174H174C175.657 174 177 172.657 177 171V163C177 161.343 175.657 160 174 160H166ZM163 181C163 179.343 164.343 178 166 178H174C175.657 178 177 179.343 177 181V189C177 190.657 175.657 192 174 192H166C164.343 192 163 190.657 163 189V181ZM184 124C182.343 124 181 125.343 181 127V135C181 136.657 182.343 138 184 138H191C192.657 138 194 136.657 194 135V127C194 125.343 192.657 124 191 124H184ZM184 142C182.343 142 181 143.343 181 145V153C181 154.657 182.343 156 184 156H191C192.657 156 194 154.657 194 153V145C194 143.343 192.657 142 191 142H184ZM181 163C181 161.343 182.343 160 184 160H191C192.657 160 194 161.343 194 163V171C194 172.657 192.657 174 191 174H184C182.343 174 181 172.657 181 171V163ZM184 178C182.343 178 181 179.343 181 181V189C181 190.657 182.343 192 184 192H191C192.657 192 194 190.657 194 189V181C194 179.343 192.657 178 191 178H184ZM199 127C199 125.343 200.343 124 202 124H209C210.657 124 212 125.343 212 127V135C212 136.657 210.657 138 209 138H202C200.343 138 199 136.657 199 135V127ZM199 145C199 143.343 200.343 142 202 142H209C210.657 142 212 143.343 212 145V153C212 154.657 210.657 156 209 156H202C200.343 156 199 154.657 199 153V145ZM202 160C200.343 160 199 161.343 199 163V171C199 172.657 200.343 174 202 174H209C210.657 174 212 172.657 212 171V163C212 161.343 210.657 160 209 160H202ZM217 127C217 125.343 218.343 124 220 124H228C229.657 124 231 125.343 231 127V135C231 136.657 229.657 138 228 138H220C218.343 138 217 136.657 217 135V127ZM217 145C217 143.343 218.343 142 220 142H228C229.657 142 231 143.343 231 145V153C231 154.657 229.657 156 228 156H220C218.343 156 217 154.657 217 153V145ZM220 160C218.343 160 217 161.343 217 163V171C217 172.657 218.343 174 220 174H228C229.657 174 231 172.657 231 171V163C231 161.343 229.657 160 228 160H220ZM235 127C235 125.343 236.343 124 238 124H245C246.657 124 248 125.343 248 127V135C248 136.657 246.657 138 245 138H238C236.343 138 235 136.657 235 135V127ZM238 106C236.343 106 235 107.343 235 109V117C235 118.657 236.343 120 238 120H245C246.657 120 248 118.657 248 117V109C248 107.343 246.657 106 245 106H238ZM235 145C235 143.343 236.343 142 238 142H245C246.657 142 248 143.343 248 145V153C248 154.657 246.657 156 245 156H238C236.343 156 235 154.657 235 153V145ZM238 160C236.343 160 235 161.343 235 163V171C235 172.657 236.343 174 238 174H245C246.657 174 248 172.657 248 171V163C248 161.343 246.657 160 245 160H238Z" fill="#ACD2E6"/>
<path fill-rule="evenodd" clip-rule="evenodd" d="M105.312 144.878L128.287 137.463C128.772 137.802 129.363 138 130 138H138C139.657 138 141 136.657 141 135V133.36L145 132.069V135C145 136.657 146.343 138 148 138H156C157.657 138 159 136.657 159 135V127.55L163.101 126.226C163.035 126.473 163 126.733 163 127V135C163 136.657 164.343 138 166 138H174C175.657 138 177 136.657 177 135V127C177 125.343 175.657 124 174 124H169.999L182.963 119.816C183.286 119.935 183.635 120 184 120H191C192.657 120 194 118.657 194 117V116.253L199 114.64V117C199 118.657 200.343 120 202 120H209C210.657 120 212 118.657 212 117V110.444L217.005 108.829C217.002 108.885 217 108.943 217 109V117C217 118.657 218.343 120 220 120H228C229.657 120 231 118.657 231 117V109C231 107.343 229.657 106 228 106H225.768L278 89.1418L257.75 219.193L94.0625 194.421L105.312 144.878ZM225.768 106H220C218.401 106 217.094 107.251 217.005 108.829L225.768 106ZM212 110.444V109C212 107.343 210.657 106 209 106H202C200.343 106 199 107.343 199 109V114.64L212 110.444ZM194 116.253V109C194 107.343 192.657 106 191 106H184C182.343 106 181 107.343 181 109V117C181 118.292 181.817 119.394 182.963 119.816L194 116.253ZM169.999 124H166C164.611 124 163.442 124.945 163.101 126.226L169.999 124ZM159 127.55V127C159 125.343 157.657 124 156 124H148C146.343 124 145 125.343 145 127V132.069L159 127.55ZM141 133.36V127C141 125.343 139.657 124 138 124H130C128.343 124 127 125.343 127 127V135C127 136.02 127.509 136.921 128.287 137.463L141 133.36ZM130 142C128.343 142 127 143.343 127 145V153C127 154.657 128.343 156 130 156H138C139.657 156 141 154.657 141 153V145C141 143.343 139.657 142 138 142H130ZM127 163C127 161.343 128.343 160 130 160H138C139.657 160 141 161.343 141 163V171C141 172.657 139.657 174 138 174H130C128.343 174 127 172.657 127 171V163ZM130 178C128.343 178 127 179.343 127 181V189C127 190.657 128.343 192 130 192H138C139.657 192 141 190.657 141 189V181C141 179.343 139.657 178 138 178H130ZM148 142C146.343 142 145 143.343 145 145V153C145 154.657 146.343 156 148 156H156C157.657 156 159 154.657 159 153V145C159 143.343 157.657 142 156 142H148ZM145 163C145 161.343 146.343 160 148 160H156C157.657 160 159 161.343 159 163V171C159 172.657 157.657 174 156 174H148C146.343 174 145 172.657 145 171V163ZM148 178C146.343 178 145 179.343 145 181V189C145 190.657 146.343 192 148 192H156C157.657 192 159 190.657 159 189V181C159 179.343 157.657 178 156 178H148ZM166 106C164.343 106 163 107.343 163 109V117C163 118.657 164.343 120 166 120H174C175.657 120 177 118.657 177 117V109C177 107.343 175.657 106 174 106H166ZM163 145C163 143.343 164.343 142 166 142H174C175.657 142 177 143.343 177 145V153C177 154.657 175.657 156 174 156H166C164.343 156 163 154.657 163 153V145ZM166 160C164.343 160 163 161.343 163 163V171C163 172.657 164.343 174 166 174H174C175.657 174 177 172.657 177 171V163C177 161.343 175.657 160 174 160H166ZM163 181C163 179.343 164.343 178 166 178H174C175.657 178 177 179.343 177 181V189C177 190.657 175.657 192 174 192H166C164.343 192 163 190.657 163 189V181ZM184 124C182.343 124 181 125.343 181 127V135C181 136.657 182.343 138 184 138H191C192.657 138 194 136.657 194 135V127C194 125.343 192.657 124 191 124H184ZM184 142C182.343 142 181 143.343 181 145V153C181 154.657 182.343 156 184 156H191C192.657 156 194 154.657 194 153V145C194 143.343 192.657 142 191 142H184ZM181 163C181 161.343 182.343 160 184 160H191C192.657 160 194 161.343 194 163V171C194 172.657 192.657 174 191 174H184C182.343 174 181 172.657 181 171V163ZM184 178C182.343 178 181 179.343 181 181V189C181 190.657 182.343 192 184 192H191C192.657 192 194 190.657 194 189V181C194 179.343 192.657 178 191 178H184ZM199 127C199 125.343 200.343 124 202 124H209C210.657 124 212 125.343 212 127V135C212 136.657 210.657 138 209 138H202C200.343 138 199 136.657 199 135V127ZM199 145C199 143.343 200.343 142 202 142H209C210.657 142 212 143.343 212 145V153C212 154.657 210.657 156 209 156H202C200.343 156 199 154.657 199 153V145ZM202 160C200.343 160 199 161.343 199 163V171C199 172.657 200.343 174 202 174H209C210.657 174 212 172.657 212 171V163C212 161.343 210.657 160 209 160H202ZM217 127C217 125.343 218.343 124 220 124H228C229.657 124 231 125.343 231 127V135C231 136.657 229.657 138 228 138H220C218.343 138 217 136.657 217 135V127ZM217 145C217 143.343 218.343 142 220 142H228C229.657 142 231 143.343 231 145V153C231 154.657 229.657 156 228 156H220C218.343 156 217 154.657 217 153V145ZM220 160C218.343 160 217 161.343 217 163V171C217 172.657 218.343 174 220 174H228C229.657 174 231 172.657 231 171V163C231 161.343 229.657 160 228 160H220ZM235 127C235 125.343 236.343 124 238 124H245C246.657 124 248 125.343 248 127V135C248 136.657 246.657 138 245 138H238C236.343 138 235 136.657 235 135V127ZM238 106C236.343 106 235 107.343 235 109V117C235 118.657 236.343 120 238 120H245C246.657 120 248 118.657 248 117V109C248 107.343 246.657 106 245 106H238ZM235 145C235 143.343 236.343 142 238 142H245C246.657 142 248 143.343 248 145V153C248 154.657 246.657 156 245 156H238C236.343 156 235 154.657 235 153V145ZM238 160C236.343 160 235 161.343 235 163V171C235 172.657 236.343 174 238 174H245C246.657 174 248 172.657 248 171V163C248 161.343 246.657 160 245 160H238Z" fill="white"/>
<path fill-rule="evenodd" clip-rule="evenodd" d="M115.493 200.26C104.498 201.586 98 203.226 98 205C98 209.418 138.294 213 188 213C237.706 213 278 209.418 278 205C278 203.276 271.867 201.68 261.435 200.374C259.659 203.155 256.545 205 253 205H124C120.407 205 117.256 203.105 115.493 200.26Z" fill="#1B3C4C"/>
<path fill-rule="evenodd" clip-rule="evenodd" d="M113 91C113 84.9249 117.925 80 124 80H253C259.075 80 264 84.9249 264 91V195C264 201.075 259.075 206 253 206H124C117.925 206 113 201.075 113 195V91ZM124 82C119.029 82 115 86.0294 115 91V195C115 199.971 119.029 204 124 204H253C257.971 204 262 199.971 262 195V91C262 86.0294 257.971 82 253 82H124Z" fill="#1B3C4C"/>
<path fill-rule="evenodd" clip-rule="evenodd" d="M138.101 181.911C138.481 182.312 138.464 182.944 138.063 183.324L133.309 187.828C132.924 188.194 132.319 188.194 131.934 187.828L129.937 185.937C129.536 185.557 129.519 184.924 129.899 184.523C130.279 184.122 130.912 184.105 131.313 184.485L132.621 185.725L136.687 181.872C137.088 181.493 137.721 181.51 138.101 181.911Z" fill="#1B3C4C"/>
<path fill-rule="evenodd" clip-rule="evenodd" d="M210.101 163.895C210.481 164.296 210.464 164.929 210.063 165.309L205.309 169.812C204.924 170.178 204.319 170.178 203.934 169.812L201.937 167.921C201.536 167.541 201.519 166.908 201.899 166.507C202.279 166.106 202.912 166.089 203.313 166.469L204.621 167.709L208.687 163.857C209.088 163.477 209.721 163.494 210.101 163.895Z" fill="#1B3C4C"/>
<path fill-rule="evenodd" clip-rule="evenodd" d="M174.101 145.879C174.481 146.28 174.464 146.913 174.063 147.293L169.309 151.797C168.924 152.162 168.319 152.162 167.934 151.797L165.937 149.905C165.536 149.525 165.519 148.892 165.899 148.491C166.279 148.09 166.912 148.073 167.313 148.453L168.621 149.693L172.687 145.841C173.088 145.461 173.721 145.478 174.101 145.879Z" fill="#1B3C4C"/>
<path fill-rule="evenodd" clip-rule="evenodd" d="M192.101 109.848C192.481 110.249 192.464 110.881 192.063 111.261L187.309 115.765C186.924 116.131 186.319 116.131 185.934 115.765L183.937 113.874C183.536 113.494 183.519 112.861 183.899 112.46C184.279 112.059 184.912 112.042 185.313 112.422L186.621 113.662L190.687 109.809C191.088 109.43 191.721 109.447 192.101 109.848Z" fill="#1B3C4C"/>
<path fill-rule="evenodd" clip-rule="evenodd" d="M210.101 109.848C210.481 110.249 210.464 110.881 210.063 111.261L205.309 115.765C204.924 116.131 204.319 116.131 203.934 115.765L201.937 113.874C201.536 113.494 201.519 112.861 201.899 112.46C202.279 112.059 202.912 112.042 203.313 112.422L204.621 113.662L208.687 109.809C209.088 109.43 209.721 109.447 210.101 109.848Z" fill="#1B3C4C"/>
<path fill-rule="evenodd" clip-rule="evenodd" d="M136.979 71.0767C138.084 71.0767 138.979 71.9721 138.979 73.0767V89.5736C138.979 90.6782 138.084 91.5736 136.979 91.5736C135.875 91.5736 134.979 90.6782 134.979 89.5736V73.0767C134.979 71.9721 135.875 71.0767 136.979 71.0767Z" fill="#1B3C4C"/>
<path fill-rule="evenodd" clip-rule="evenodd" d="M153.854 71.0767C154.959 71.0767 155.854 71.9721 155.854 73.0767V89.5736C155.854 90.6782 154.959 91.5736 153.854 91.5736C152.75 91.5736 151.854 90.6782 151.854 89.5736V73.0767C151.854 71.9721 152.75 71.0767 153.854 71.0767Z" fill="#1B3C4C"/>
<path fill-rule="evenodd" clip-rule="evenodd" d="M170.729 71.0767C171.834 71.0767 172.729 71.9721 172.729 73.0767V89.5736C172.729 90.6782 171.834 91.5736 170.729 91.5736C169.625 91.5736 168.729 90.6782 168.729 89.5736V73.0767C168.729 71.9721 169.625 71.0767 170.729 71.0767Z" fill="#1B3C4C"/>
<path fill-rule="evenodd" clip-rule="evenodd" d="M204.479 71.0767C205.584 71.0767 206.479 71.9721 206.479 73.0767V89.5736C206.479 90.6782 205.584 91.5736 204.479 91.5736C203.375 91.5736 202.479 90.6782 202.479 89.5736V73.0767C202.479 71.9721 203.375 71.0767 204.479 71.0767Z" fill="#1B3C4C"/>
<path fill-rule="evenodd" clip-rule="evenodd" d="M221.354 71.0767C222.459 71.0767 223.354 71.9721 223.354 73.0767V89.5736C223.354 90.6782 222.459 91.5736 221.354 91.5736C220.25 91.5736 219.354 90.6782 219.354 89.5736V73.0767C219.354 71.9721 220.25 71.0767 221.354 71.0767Z" fill="#1B3C4C"/>
<path fill-rule="evenodd" clip-rule="evenodd" d="M187.604 71.0767C188.709 71.0767 189.604 71.9721 189.604 73.0767V89.5736C189.604 90.6782 188.709 91.5736 187.604 91.5736C186.5 91.5736 185.604 90.6782 185.604 89.5736V73.0767C185.604 71.9721 186.5 71.0767 187.604 71.0767Z" fill="#1B3C4C"/>
<path fill-rule="evenodd" clip-rule="evenodd" d="M238.229 71.0767C239.334 71.0767 240.229 71.9721 240.229 73.0767V89.5736C240.229 90.6782 239.334 91.5736 238.229 91.5736C237.125 91.5736 236.229 90.6782 236.229 89.5736V73.0767C236.229 71.9721 237.125 71.0767 238.229 71.0767Z" fill="#1B3C4C"/>
</svg>