<svg width="22" height="22" viewBox="0 0 22 22" fill="none" xmlns="http://www.w3.org/2000/svg">
<path d="M12 0.999756C12 0.447471 11.5523 -0.000244141 11 -0.000244141C10.4477 -0.000244141 10 0.447471 10 0.999756V2.99976C10 3.55204 10.4477 3.99976 11 3.99976C11.5523 3.99976 12 3.55204 12 2.99976V0.999756Z" fill="#0AC0B1"/>
<path d="M5.34334 3.92877C4.95281 3.53825 4.31965 3.53825 3.92912 3.92877C3.5386 4.3193 3.5386 4.95246 3.92912 5.34299L5.34334 6.7572C5.73386 7.14772 6.36703 7.14772 6.75755 6.7572C7.14808 6.36668 7.14808 5.73351 6.75755 5.34299L5.34334 3.92877Z" fill="#0AC0B1"/>
<path d="M18.0709 5.343C18.4614 4.95248 18.4614 4.31931 18.0709 3.92879C17.6804 3.53826 17.0472 3.53826 16.6567 3.92879L15.2424 5.343C14.8519 5.73353 14.8519 6.36669 15.2424 6.75722C15.633 7.14774 16.2661 7.14774 16.6567 6.75722L18.0709 5.343Z" fill="#0AC0B1"/>
<path d="M11 5.99995C8.23858 5.99995 6 8.23853 6 11C6 13.7614 8.23858 16 11 16C13.7614 16 16 13.7614 16 11C16 8.23853 13.7614 5.99995 11 5.99995Z" fill="#0AC0B1"/>
<path d="M1 10C0.447715 10 0 10.4477 0 11C0 11.5523 0.447715 12 1 12H3C3.55228 12 4 11.5523 4 11C4 10.4477 3.55228 10 3 10H1Z" fill="#0AC0B1"/>
<path d="M19 10.0001C18.4477 10.0001 18 10.4478 18 11.0001C18 11.5524 18.4477 12.0001 19 12.0001H21C21.5523 12.0001 22 11.5524 22 11.0001C22 10.4478 21.5523 10.0001 21 10.0001H19Z" fill="#0AC0B1"/>
<path d="M6.7574 16.6567C7.14792 16.2662 7.14792 15.633 6.7574 15.2425C6.36688 14.8519 5.73371 14.8519 5.34319 15.2425L3.92897 16.6567C3.53845 17.0472 3.53845 17.6804 3.92897 18.0709C4.3195 18.4614 4.95266 18.4614 5.34319 18.0709L6.7574 16.6567Z" fill="#0AC0B1"/>
<path d="M16.6568 15.2425C16.2663 14.852 15.6331 14.852 15.2426 15.2425C14.8521 15.633 14.8521 16.2662 15.2426 16.6567L16.6568 18.0709C17.0473 18.4614 17.6805 18.4614 18.071 18.0709C18.4616 17.6804 18.4616 17.0472 18.071 16.6567L16.6568 15.2425Z" fill="#0AC0B1"/>
<path d="M12 18.9998C12 18.4476 11.5523 17.9998 11 17.9998C10.4477 17.9998 10 18.4476 10 18.9998V20.9998C10 21.5521 10.4477 21.9998 11 21.9998C11.5523 21.9998 12 21.5521 12 20.9998V18.9998Z" fill="#0AC0B1"/>
</svg>