<svg width="669" height="353" viewBox="0 0 669 353" fill="none" xmlns="http://www.w3.org/2000/svg">
<path d="M334.464 347C393.306 347 441.007 343.358 441.007 338.865C441.007 334.372 393.306 330.73 334.464 330.73C275.622 330.73 227.921 334.372 227.921 338.865C227.921 343.358 275.622 347 334.464 347Z" fill="#ACD2E6"/>
<path d="M253.545 29C253.545 14.6406 265.186 3 279.545 3H394.777C409.136 3 420.777 14.6406 420.777 29V314.255C420.777 328.614 409.136 340.255 394.777 340.255H279.545C265.185 340.255 253.545 328.614 253.545 314.255V29Z" fill="#1B3C4C"/>
<path d="M393.751 7.04714H379.8C379.8 7.04714 379.982 10.421 379.8 12.1595C379.617 13.898 378.999 15.5659 378.001 17.0164C377.002 18.4669 375.653 19.6554 374.073 20.4772C372.493 21.2991 370.73 21.729 368.94 21.7291H304.411C302.621 21.729 300.858 21.2991 299.278 20.4772C297.698 19.6554 296.349 18.4669 295.35 17.0164C294.352 15.5659 293.734 13.898 293.551 12.1595C293.369 10.421 293.551 7.04712 293.551 7.04712H280.57C277.552 7.04711 274.564 7.62731 271.776 8.75459C268.988 9.88187 266.455 11.5341 264.321 13.6171C262.187 15.7 260.495 18.1728 259.34 20.8943C258.185 23.6158 257.591 26.5327 257.591 29.4784V313.776C257.591 316.722 258.185 319.639 259.34 322.36C260.495 325.082 262.187 327.555 264.321 329.638C266.455 331.721 268.988 333.373 271.776 334.5C274.564 335.627 277.552 336.208 280.57 336.208H393.751C396.769 336.208 399.757 335.627 402.545 334.5C405.333 333.373 407.866 331.721 410 329.638C412.134 327.555 413.827 325.082 414.981 322.36C416.136 319.639 416.731 316.722 416.731 313.776V29.4784C416.731 26.5327 416.136 23.6158 414.981 20.8943C413.827 18.1729 412.134 15.7 410 13.6171C407.866 11.5342 405.333 9.88189 402.545 8.75461C399.757 7.62734 396.769 7.04713 393.751 7.04714Z" fill="white"/>
<g filter="url(#filter0_d_131_9464)">
<path d="M270 257C270 252.582 273.582 249 278 249H397.136C401.554 249 405.136 252.582 405.136 257V314.153C405.136 318.572 401.554 322.153 397.136 322.153H278C273.582 322.153 270 318.572 270 314.153V257Z" fill="white"/>
</g>
<rect x="340.07" y="287.08" width="57.0574" height="22.0462" rx="11.0231" fill="#0AC0B1"/>
<path fill-rule="evenodd" clip-rule="evenodd" d="M373.12 293.41C373.313 293.604 373.313 293.917 373.12 294.11L366.446 300.791C366.353 300.884 366.228 300.936 366.096 300.936C365.965 300.936 365.839 300.884 365.746 300.791L363.077 298.119C362.884 297.925 362.884 297.612 363.077 297.419C363.27 297.225 363.584 297.225 363.777 297.419L366.096 299.741L372.42 293.41C372.613 293.217 372.926 293.217 373.12 293.41Z" fill="white"/>
<rect x="278.008" y="287.08" width="57.0574" height="22.0462" rx="11.0231" fill="#ACD2E6"/>
<path fill-rule="evenodd" clip-rule="evenodd" d="M302.953 294.018C303.142 293.83 303.447 293.83 303.636 294.018L306.548 296.933L309.46 294.018C309.648 293.83 309.954 293.83 310.142 294.018C310.331 294.207 310.331 294.512 310.142 294.701L307.23 297.616L310.142 300.532C310.331 300.72 310.331 301.026 310.142 301.215C309.954 301.403 309.648 301.403 309.46 301.215L306.548 298.299L303.636 301.215C303.447 301.403 303.142 301.403 302.953 301.215C302.765 301.026 302.765 300.72 302.953 300.532L305.866 297.616L302.953 294.701C302.765 294.512 302.765 294.207 302.953 294.018Z" fill="#548299"/>
<rect x="306.036" y="271.046" width="55.0553" height="3.0063" rx="1.50315" fill="#ACD2E6"/>
<rect x="306.036" y="262.027" width="30.0302" height="4.0084" rx="2.0042" fill="#548299"/>
<ellipse cx="289.019" cy="268.04" rx="11.0111" ry="11.0231" fill="#ACD2E6"/>
<g clip-path="url(#clip0_131_9464)">
<path d="M286.225 265.243C286.225 263.974 287.252 262.946 288.519 262.946C289.786 262.946 290.813 263.974 290.813 265.243C290.813 266.511 289.786 267.539 288.519 267.539C287.252 267.539 286.225 266.511 286.225 265.243Z" fill="#548299"/>
<path d="M284.39 270.295C284.39 269.026 285.417 267.998 286.684 267.998H290.354C291.621 267.998 292.648 269.026 292.648 270.295V271.213C292.648 271.721 292.237 272.132 291.73 272.132H285.307C284.8 272.132 284.39 271.721 284.39 271.213V270.295Z" fill="#548299"/>
</g>
<g filter="url(#filter1_d_131_9464)">
<path d="M322 149.815C322 143.842 326.835 139 332.8 139H446.2C452.165 139 457 143.842 457 149.815V180.231L448.9 182.935L436.075 189.694L440.8 195.102L457 194.426V201.185C457 207.158 452.165 212 446.2 212H332.8C326.835 212 322 207.158 322 201.185V149.815Z" fill="white"/>
</g>
<path d="M392.2 187.667C392.2 181.694 397.036 176.852 403 176.852H438.1C442.633 176.852 446.513 179.648 448.115 183.611C446.875 184.963 444.175 184.963 442.15 186.315C440.125 187.667 437.187 188.52 436.75 189.694C436.482 190.415 437.229 193.388 439.45 194.426C442.047 195.64 446.165 194.914 445.525 195.52C444.867 196.144 444.131 196.686 443.333 197.13C441.783 197.991 439.999 198.481 438.1 198.481H403C397.036 198.481 392.2 193.639 392.2 187.667Z" fill="#0AC0B1"/>
<path fill-rule="evenodd" clip-rule="evenodd" d="M425.12 183.41C425.313 183.604 425.313 183.917 425.12 184.11L418.446 190.791C418.353 190.884 418.228 190.936 418.096 190.936C417.965 190.936 417.839 190.884 417.746 190.791L415.077 188.119C414.884 187.925 414.884 187.612 415.077 187.419C415.27 187.225 415.584 187.225 415.777 187.419L418.096 189.741L424.42 183.41C424.613 183.217 424.926 183.217 425.12 183.41Z" fill="white"/>
<rect x="330.008" y="177.08" width="57.0573" height="22.0462" rx="11.0231" fill="#ACD2E6"/>
<path fill-rule="evenodd" clip-rule="evenodd" d="M354.953 184.018C355.142 183.83 355.447 183.83 355.636 184.018L358.548 186.933L361.46 184.018C361.648 183.83 361.954 183.83 362.142 184.018C362.331 184.207 362.331 184.512 362.142 184.701L359.23 187.616L362.142 190.532C362.331 190.72 362.331 191.026 362.142 191.215C361.954 191.403 361.648 191.403 361.46 191.215L358.548 188.299L355.636 191.215C355.447 191.403 355.142 191.403 354.953 191.215C354.765 191.026 354.765 190.72 354.953 190.532L357.866 187.616L354.953 184.701C354.765 184.512 354.765 184.207 354.953 184.018Z" fill="#548299"/>
<rect x="358.036" y="161.046" width="55.0553" height="3.0063" rx="1.50315" fill="#ACD2E6"/>
<rect x="358.036" y="152.027" width="30.0302" height="4.0084" rx="2.0042" fill="#548299"/>
<ellipse cx="341.019" cy="158.04" rx="11.0111" ry="11.0231" fill="#ACD2E6"/>
<g clip-path="url(#clip1_131_9464)">
<path d="M338.225 155.243C338.225 153.974 339.252 152.946 340.519 152.946C341.786 152.946 342.813 153.974 342.813 155.243C342.813 156.511 341.786 157.539 340.519 157.539C339.252 157.539 338.225 156.511 338.225 155.243Z" fill="#548299"/>
<path d="M336.39 160.295C336.39 159.026 337.417 157.998 338.684 157.998H342.354C343.621 157.998 344.648 159.026 344.648 160.295V161.213C344.648 161.721 344.237 162.132 343.73 162.132H337.307C336.8 162.132 336.39 161.721 336.39 161.213V160.295Z" fill="#548299"/>
</g>
<path fill-rule="evenodd" clip-rule="evenodd" d="M624.145 176.058C623.795 176.244 623.588 176.621 623.618 177.017C624.624 190.448 613.29 223.3 558.152 243.812C557.873 243.916 557.655 244.139 557.557 244.421C557.459 244.702 557.492 245.013 557.646 245.268C561.428 251.526 568.184 261.377 576.189 270.635C584.171 279.867 593.495 288.63 602.423 292.566C602.928 292.789 603.517 292.559 603.739 292.053C603.961 291.548 603.732 290.957 603.227 290.735C594.726 286.987 585.643 278.515 577.698 269.325C570.203 260.657 563.81 251.456 559.983 245.261C612.076 225.509 625.448 194.508 625.671 179.074C628.188 181.117 631.472 183.876 634.615 186.699C638.544 190.229 642.164 193.785 643.838 196.165C644.155 196.617 644.778 196.725 645.229 196.407C645.679 196.089 645.787 195.464 645.47 195.013C643.647 192.42 639.859 188.724 635.948 185.21C632.01 181.671 627.857 178.24 625.233 176.157C624.922 175.911 624.495 175.872 624.145 176.058Z" fill="#1B3C4C"/>
<path fill-rule="evenodd" clip-rule="evenodd" d="M486.281 170.735C507.304 162.355 538.866 149.772 576.86 160.456C593.517 165.141 609.644 174.036 623.885 184.128C624.336 184.447 624.958 184.34 625.277 183.889C625.595 183.438 625.488 182.814 625.038 182.495C610.684 172.322 594.348 163.297 577.399 158.53C538.736 147.657 506.602 160.476 485.589 168.858C484.324 169.362 483.099 169.851 481.916 170.317C474.617 173.052 468.256 175.348 462.797 177.318C454.388 180.354 448.12 182.617 443.871 184.515C442.107 185.303 440.653 186.044 439.518 186.769C438.394 187.486 437.51 188.233 436.964 189.058C436.39 189.927 436.199 190.875 436.468 191.866C436.722 192.796 437.353 193.658 438.187 194.48C438.949 195.233 440.156 195.657 441.494 195.906C442.871 196.162 444.562 196.263 446.461 196.241C450.265 196.195 455.037 195.651 460.086 194.753C470.17 192.959 481.534 189.724 488.709 186.092C491.37 184.745 493.569 184.508 495.374 184.915C497.186 185.323 498.726 186.41 500.011 187.935C502.608 191.019 504.009 195.728 504.333 199.299C504.983 206.471 503.037 213.673 498.707 220.357C496.593 223.62 495.717 226.493 495.911 228.861C496.109 231.286 497.424 233.068 499.392 234.033C503.213 235.908 509.217 234.641 514.304 230.226C517.681 227.296 520.259 223.739 522.523 220.52C522.68 220.296 522.836 220.074 522.99 219.854C525.09 216.861 526.895 214.288 528.884 212.647C529.929 211.786 530.98 211.222 532.101 210.992C533.215 210.763 534.474 210.847 535.963 211.4C538.995 212.525 542.892 215.554 548.167 221.562C551.009 224.799 556.535 232.703 563.697 242.967C564.013 243.419 564.636 243.53 565.087 243.213C565.539 242.896 565.649 242.273 565.333 241.82C558.217 231.622 552.603 223.585 549.666 220.241C544.348 214.184 540.177 210.83 536.656 209.524C534.87 208.861 533.231 208.717 531.7 209.032C530.177 209.345 528.836 210.096 527.615 211.103C525.406 212.925 523.446 215.722 521.408 218.629C521.236 218.875 521.064 219.121 520.891 219.367C518.625 222.59 516.169 225.961 512.997 228.714C508.236 232.845 503.089 233.62 500.27 232.236C498.917 231.573 498.04 230.401 497.9 228.698C497.756 226.938 498.397 224.509 500.382 221.446C504.924 214.434 507.017 206.791 506.321 199.118C505.975 195.298 504.485 190.146 501.537 186.645C500.049 184.878 498.153 183.49 495.812 182.963C493.463 182.433 490.791 182.797 487.809 184.306C480.878 187.814 469.727 191.006 459.737 192.783C454.749 193.67 450.094 194.196 446.437 194.24C444.607 194.262 443.059 194.162 441.859 193.939C440.62 193.708 439.91 193.373 439.588 193.055C438.86 192.337 438.513 191.775 438.394 191.339C438.292 190.964 438.337 190.605 438.628 190.163C438.949 189.679 439.562 189.113 440.59 188.456C441.607 187.807 442.961 187.112 444.684 186.342C448.873 184.471 455.023 182.251 463.35 179.246C468.816 177.273 475.22 174.962 482.622 172.189L482.638 172.183C483.815 171.719 485.029 171.235 486.281 170.735Z" fill="#1B3C4C"/>
<path fill-rule="evenodd" clip-rule="evenodd" d="M489.597 184.025C489.072 183.854 488.509 184.141 488.338 184.666C484.297 197.092 484.032 205.259 485.299 211.511C485.931 214.629 486.936 217.234 488 219.612C488.414 220.539 488.827 221.41 489.229 222.259C489.879 223.629 490.499 224.939 491.053 226.325C492.447 229.817 492.118 231.988 491.393 232.998C490.752 233.888 489.522 234.214 487.972 233.335C485.32 231.737 479.436 226.007 475.627 215.233C471.828 204.49 473.305 194.909 475.263 190.874C475.504 190.377 475.297 189.779 474.802 189.537C474.306 189.296 473.709 189.503 473.468 189.999C471.247 194.575 469.791 204.718 473.745 215.901C477.684 227.04 483.838 233.185 486.956 235.057L486.975 235.069C489.144 236.305 491.608 236.121 493.012 234.167C494.333 232.331 494.398 229.319 492.906 225.582C492.335 224.152 491.662 222.728 490.989 221.306C490.592 220.468 490.196 219.631 489.821 218.793C488.79 216.488 487.847 214.031 487.255 211.113C486.076 205.292 486.269 197.487 490.236 185.286C490.407 184.761 490.121 184.196 489.597 184.025Z" fill="#1B3C4C"/>
<path fill-rule="evenodd" clip-rule="evenodd" d="M485.351 203.043C484.861 203.295 484.668 203.899 484.92 204.39C486.057 206.604 488.163 209.669 490.933 212.311C493.694 214.944 497.208 217.245 501.163 217.745C501.71 217.814 502.21 217.426 502.279 216.878C502.348 216.33 501.96 215.829 501.413 215.76C498.052 215.335 494.915 213.346 492.309 210.861C489.711 208.384 487.736 205.502 486.695 203.475C486.443 202.983 485.841 202.79 485.351 203.043Z" fill="#1B3C4C"/>
<path fill-rule="evenodd" clip-rule="evenodd" d="M501.477 187.233C501.199 186.756 500.588 186.595 500.112 186.874C498.822 187.63 498.056 189.258 497.653 190.994C497.236 192.791 497.146 194.966 497.419 197.16C497.959 201.488 499.982 206.276 504.241 208.216C504.743 208.445 505.334 208.223 505.563 207.72C505.791 207.217 505.569 206.624 505.067 206.395C501.744 204.881 499.906 200.965 499.4 196.912C499.151 194.916 499.242 192.981 499.598 191.447C499.968 189.851 500.566 188.926 501.119 188.601C501.595 188.323 501.755 187.71 501.477 187.233Z" fill="#1B3C4C"/>
<g filter="url(#filter2_d_131_9464)">
<path d="M375 38C375 33.5817 378.582 30 383 30H502.136C506.554 30 510.136 33.5817 510.136 38V95.1533C510.136 99.5716 506.554 103.153 502.136 103.153H383C378.582 103.153 375 99.5716 375 95.1533V38Z" fill="white"/>
</g>
<rect x="445.07" y="68.0798" width="57.0574" height="22.0462" rx="11.0231" fill="#0AC0B1"/>
<path fill-rule="evenodd" clip-rule="evenodd" d="M478.12 74.4101C478.313 74.6035 478.313 74.9171 478.12 75.1105L471.446 81.7912C471.353 81.8841 471.228 81.9363 471.096 81.9363C470.965 81.9363 470.839 81.8841 470.746 81.7912L468.077 79.1189C467.884 78.9255 467.884 78.6119 468.077 78.4185C468.27 78.2252 468.584 78.2252 468.777 78.4186L471.096 80.7406L477.42 74.4102C477.613 74.2168 477.926 74.2168 478.12 74.4101Z" fill="white"/>
<rect x="383.008" y="68.0798" width="57.0574" height="22.0462" rx="11.0231" fill="#ACD2E6"/>
<path fill-rule="evenodd" clip-rule="evenodd" d="M407.953 75.0181C408.142 74.8295 408.447 74.8296 408.636 75.0182L411.548 77.9334L414.46 75.0182C414.648 74.8296 414.954 74.8295 415.142 75.0181C415.331 75.2066 415.331 75.5123 415.142 75.7009L412.23 78.6164L415.142 81.5318C415.331 81.7204 415.331 82.0261 415.142 82.2147C414.954 82.4032 414.648 82.4032 414.46 82.2146L411.548 79.2993L408.636 82.2146C408.447 82.4032 408.142 82.4032 407.953 82.2147C407.765 82.0261 407.765 81.7204 407.953 81.5318L410.866 78.6164L407.953 75.7009C407.765 75.5123 407.765 75.2066 407.953 75.0181Z" fill="#548299"/>
<rect x="411.036" y="52.0461" width="55.0553" height="3.0063" rx="1.50315" fill="#ACD2E6"/>
<rect x="411.036" y="43.0273" width="30.0302" height="4.0084" rx="2.0042" fill="#548299"/>
<ellipse cx="394.019" cy="49.04" rx="11.0111" ry="11.0231" fill="#ACD2E6"/>
<g clip-path="url(#clip2_131_9464)">
<path d="M391.225 46.2425C391.225 44.9742 392.252 43.946 393.519 43.946C394.786 43.946 395.813 44.9742 395.813 46.2425C395.813 47.5108 394.786 48.539 393.519 48.539C392.252 48.539 391.225 47.5108 391.225 46.2425Z" fill="#548299"/>
<path d="M389.39 51.2948C389.39 50.0265 390.417 48.9983 391.684 48.9983H395.354C396.621 48.9983 397.648 50.0265 397.648 51.2948V52.2134C397.648 52.7207 397.237 53.132 396.73 53.132H390.307C389.8 53.132 389.39 52.7207 389.39 52.2134V51.2948Z" fill="#548299"/>
</g>
<path d="M207.852 263.237C209.277 261.412 209.162 257.263 208.662 253.414C207.978 249.008 206.615 247.466 205.486 246.902C204.357 246.337 203.67 245.595 203.214 245.052C199.464 245.052 195.122 245.089 192.863 242.981C189.992 247.023 189.321 253.43 191.747 255.809C194.194 258.207 196.452 261.692 192.863 263.307C189.099 265.001 182.902 265.787 179.313 264.248C175.36 262.555 174.893 260.332 177.242 256.344C179.138 253.126 178.95 249.738 178.372 247.875C177.702 245.717 180.079 240.516 186.653 239.029C187.829 238.763 188.736 235.623 191.747 234.87C194.759 234.117 197.674 235.591 202.851 237.317C207.368 238.822 208.662 240.516 209.237 244.487C209.936 249.317 215.613 248.087 217.894 251.451C219.413 253.69 220.354 260.719 215.824 263.307C210.554 266.319 209.187 265.031 207.18 264.09L207.852 263.237Z" fill="#7CA9BF"/>
<path fill-rule="evenodd" clip-rule="evenodd" d="M194.821 234.985C193.113 234.508 191.748 234.355 190.386 234.696C189.068 235.025 188.191 235.878 187.467 236.758C187.303 236.957 187.151 237.153 187.001 237.345C186.985 237.366 186.969 237.387 186.953 237.408C186.79 237.617 186.627 237.825 186.467 238.01C186.169 238.354 185.78 238.744 185.278 238.858C182.128 239.571 180.012 241.165 178.765 242.808C178.14 243.632 177.736 244.465 177.526 245.202C177.314 245.949 177.314 246.553 177.435 246.946C178.053 248.938 178.247 252.505 176.25 255.894C175.088 257.866 174.731 259.237 174.987 260.259C175.235 261.248 176.117 262.123 178.042 262.948C179.708 263.662 182.042 263.855 184.465 263.643C186.878 263.433 189.301 262.826 191.113 262.011C191.916 261.65 192.314 261.221 192.494 260.803C192.676 260.381 192.677 259.873 192.493 259.274C192.117 258.049 191.031 256.665 189.824 255.482C188.417 254.102 187.991 251.674 188.219 249.211C188.451 246.714 189.369 243.999 190.871 241.884C190.971 241.744 191.126 241.653 191.297 241.636C191.468 241.619 191.639 241.676 191.764 241.793C192.758 242.721 194.259 243.216 196.055 243.464C197.787 243.704 199.698 243.703 201.531 243.703C201.59 243.703 201.649 243.703 201.709 243.703C201.885 243.703 202.052 243.781 202.165 243.916C202.558 244.384 203.478 245.068 204.112 245.471C204.127 245.481 204.141 245.491 204.155 245.501C204.344 245.646 204.665 245.877 205 246.087C205.352 246.308 205.658 246.466 205.835 246.516C206.006 246.564 206.147 246.686 206.219 246.848C206.543 247.577 206.863 248.692 207.128 249.755C207.396 250.83 207.618 251.895 207.742 252.551C207.744 252.562 207.746 252.573 207.747 252.585C207.999 254.525 208.158 256.564 208.068 258.361C207.98 260.13 207.649 261.785 206.816 262.851C206.743 262.944 206.668 263.034 206.59 263.121C207.334 263.492 207.943 263.789 208.803 263.833C209.886 263.887 211.425 263.521 214.022 262.037C216.045 260.881 216.892 258.713 217.027 256.46C217.162 254.191 216.561 252.015 215.895 251.032C215.402 250.306 214.716 249.81 213.904 249.403C213.327 249.113 212.727 248.886 212.1 248.649C211.821 248.543 211.536 248.436 211.245 248.319C210.336 247.956 209.404 247.519 208.653 246.824C207.884 246.113 207.335 245.159 207.141 243.82C206.86 241.877 206.415 240.595 205.566 239.615C204.711 238.628 203.38 237.871 201.157 237.13C200.116 236.783 199.181 236.451 198.323 236.147C197.007 235.681 195.873 235.279 194.821 234.985ZM205.618 263.971C205.723 264.022 205.828 264.076 205.935 264.13C206.72 264.524 207.596 264.965 208.743 265.023C210.162 265.095 211.941 264.599 214.614 263.072C217.122 261.639 218.069 258.999 218.217 256.531C218.363 254.079 217.734 251.621 216.882 250.363C216.234 249.408 215.355 248.796 214.439 248.337C213.804 248.019 213.111 247.756 212.458 247.509C212.192 247.409 211.933 247.311 211.688 247.213C210.805 246.859 210.045 246.488 209.463 245.95C208.899 245.428 208.477 244.725 208.321 243.649C208.027 241.621 207.537 240.07 206.467 238.835C205.402 237.606 203.828 236.763 201.534 235.999C200.551 235.671 199.637 235.348 198.783 235.045C197.428 234.566 196.225 234.14 195.142 233.837C193.345 233.335 191.747 233.127 190.097 233.539C188.404 233.963 187.322 235.057 186.546 236.001C186.371 236.213 186.209 236.422 186.06 236.613C186.044 236.635 186.028 236.656 186.011 236.676C185.847 236.888 185.702 237.072 185.565 237.23C185.268 237.573 185.102 237.676 185.015 237.695C181.592 238.47 179.233 240.219 177.815 242.088C177.108 243.019 176.633 243.984 176.379 244.876C176.129 245.757 176.083 246.612 176.296 247.299C176.835 249.033 177.018 252.242 175.223 255.289C174.035 257.305 173.452 259.039 173.83 260.549C174.217 262.092 175.544 263.174 177.572 264.043C179.495 264.868 182.055 265.051 184.569 264.831C187.093 264.61 189.65 263.977 191.602 263.098C192.594 262.652 193.259 262.04 193.589 261.275C193.917 260.514 193.871 259.698 193.633 258.924C193.166 257.403 191.899 255.846 190.659 254.63C189.641 253.632 189.189 251.667 189.407 249.321C189.602 247.217 190.327 244.949 191.488 243.106C192.7 243.985 194.266 244.42 195.892 244.645C197.689 244.893 199.652 244.895 201.445 244.895C201.995 245.461 202.875 246.096 203.45 246.463C203.666 246.627 204.007 246.871 204.366 247.096C204.629 247.262 204.937 247.439 205.225 247.561C205.475 248.192 205.737 249.104 205.971 250.043C206.231 251.083 206.447 252.117 206.567 252.755C206.813 254.658 206.961 256.611 206.877 258.302C206.792 260.027 206.468 261.359 205.876 262.118C204.628 263.715 202.243 264.203 199.911 264.174C198.77 264.159 197.695 264.021 196.871 263.861C196.459 263.781 196.116 263.696 195.863 263.622C195.736 263.584 195.638 263.551 195.568 263.523C195.512 263.501 195.49 263.49 195.489 263.49C195.221 263.31 194.857 263.377 194.67 263.641C194.481 263.91 194.545 264.282 194.814 264.472C194.914 264.543 195.037 264.596 195.135 264.634C195.245 264.677 195.377 264.721 195.525 264.765C195.821 264.852 196.202 264.945 196.644 265.031C197.526 265.202 198.673 265.35 199.896 265.365C200.322 265.371 200.764 265.36 201.213 265.328V265.847C201.213 266.176 201.48 266.443 201.809 266.443C202.138 266.443 202.405 266.176 202.405 265.847V265.185C203.55 264.991 204.676 264.62 205.618 263.971Z" fill="#1B3C4C"/>
<path fill-rule="evenodd" clip-rule="evenodd" d="M196.526 258.42C196.647 258.246 196.85 258.148 197.061 258.164C198.318 258.257 200.621 258.209 202.023 258.179C202.48 258.17 202.842 258.162 203.04 258.162C203.211 258.162 203.375 258.236 203.488 258.366C203.601 258.495 203.653 258.667 203.63 258.837C203.559 259.373 203.351 260.097 203.029 260.725C202.867 261.04 202.665 261.352 202.419 261.607C202.174 261.861 201.856 262.087 201.463 262.166C200.729 262.313 199.83 262.32 198.92 261.856C198.013 261.394 197.174 260.504 196.477 259.01C196.387 258.819 196.406 258.594 196.526 258.42ZM198.043 259.399C198.52 260.146 199.012 260.565 199.462 260.794C200.064 261.101 200.671 261.109 201.229 260.997C201.306 260.981 201.419 260.926 201.561 260.779C201.701 260.634 201.84 260.429 201.968 260.18C202.102 259.92 202.211 259.636 202.293 259.367C202.245 259.368 202.195 259.369 202.143 259.37C201.078 259.392 199.374 259.428 198.043 259.399Z" fill="#1B3C4C"/>
<path fill-rule="evenodd" clip-rule="evenodd" d="M188.344 263.492C188.549 263.392 188.793 263.418 188.972 263.559C189.232 263.762 189.427 263.997 189.573 264.174C189.611 264.219 189.645 264.261 189.677 264.297C189.838 264.482 190.019 264.658 190.363 264.835C191.102 265.215 192.609 265.613 196.182 265.879C197.044 265.94 198.29 265.949 199.556 265.78C200.833 265.61 202.068 265.266 202.956 264.664C203.138 264.54 203.374 264.527 203.569 264.631C203.764 264.734 203.886 264.937 203.886 265.157V266.87C207.698 267.239 210.732 268.231 213.171 269.837C215.728 271.521 217.589 273.852 219.007 276.752L217.936 277.276C216.591 274.525 214.858 272.375 212.515 270.832C210.168 269.287 207.168 268.322 203.243 268.01C202.933 267.985 202.694 267.727 202.694 267.416V266.167C201.765 266.587 200.713 266.828 199.714 266.962C198.35 267.143 197.02 267.133 196.097 267.068L196.094 267.068C192.516 266.802 190.791 266.396 189.818 265.895C189.566 265.765 189.367 265.631 189.201 265.495V267.416C189.201 267.726 188.963 267.985 188.653 268.01C183.682 268.412 179.867 269.447 176.663 271.208C173.742 272.813 171.295 275.039 168.932 278L168.13 277.094C170.525 274.124 173.05 271.833 176.089 270.163C179.357 268.367 183.182 267.311 188.009 266.869V264.028C188.009 263.8 188.139 263.592 188.344 263.492Z" fill="#1B3C4C"/>
<path fill-rule="evenodd" clip-rule="evenodd" d="M200.018 252.377C199.69 252.405 199.447 252.693 199.475 253.021L199.579 254.247C199.606 254.573 199.891 254.815 200.217 254.791C200.343 254.782 200.567 254.788 200.784 254.838C201.014 254.892 201.133 254.972 201.175 255.028C201.242 255.117 201.272 255.227 201.271 255.354C201.269 255.449 201.251 255.533 201.234 255.589C201.099 255.733 200.754 255.99 200.283 255.97C199.954 255.957 199.677 256.213 199.663 256.541C199.65 256.87 199.906 257.148 200.235 257.161C201.264 257.203 201.978 256.597 202.235 256.246C202.259 256.215 202.279 256.181 202.295 256.145C202.381 255.96 202.459 255.681 202.463 255.369C202.467 255.05 202.392 254.66 202.126 254.308C201.835 253.925 201.391 253.756 201.054 253.677C200.942 253.651 200.83 253.632 200.722 253.619L200.663 252.921C200.635 252.593 200.346 252.35 200.018 252.377Z" fill="#1B3C4C"/>
<path d="M195.6 251.443C195.587 251.942 195.779 252.352 196.028 252.358C196.278 252.365 196.492 251.966 196.505 251.467C196.518 250.968 196.326 250.558 196.076 250.551C195.826 250.544 195.613 250.943 195.6 251.443Z" fill="#1B3C4C"/>
<path d="M202.766 250.979C202.74 251.477 202.921 251.892 203.17 251.905C203.42 251.919 203.644 251.525 203.67 251.027C203.696 250.528 203.515 250.113 203.266 250.1C203.016 250.087 202.792 250.48 202.766 250.979Z" fill="#1B3C4C"/>
<path fill-rule="evenodd" clip-rule="evenodd" d="M194.888 247.851C195.449 247.629 196.114 247.619 196.671 247.967C196.95 248.141 197.318 248.056 197.492 247.777C197.667 247.498 197.582 247.131 197.303 246.956C196.355 246.363 195.278 246.415 194.45 246.742C194.034 246.907 193.658 247.148 193.371 247.441C193.089 247.729 192.857 248.105 192.817 248.537C192.787 248.864 193.028 249.154 193.356 249.184C193.684 249.214 193.974 248.973 194.005 248.645C194.011 248.574 194.061 248.44 194.223 248.275C194.379 248.115 194.609 247.961 194.888 247.851Z" fill="#1B3C4C"/>
<path fill-rule="evenodd" clip-rule="evenodd" d="M203.292 247.567C203.867 247.749 204.39 248.16 204.602 248.782C204.709 249.093 205.048 249.259 205.36 249.152C205.671 249.046 205.837 248.707 205.731 248.396C205.368 247.337 204.5 246.699 203.651 246.431C203.225 246.296 202.78 246.247 202.373 246.293C201.973 246.339 201.555 246.484 201.252 246.794C201.022 247.03 201.027 247.407 201.262 247.637C201.498 247.867 201.875 247.862 202.105 247.627C202.155 247.576 202.278 247.504 202.508 247.477C202.73 247.452 203.006 247.477 203.292 247.567Z" fill="#1B3C4C"/>
<path fill-rule="evenodd" clip-rule="evenodd" d="M193.17 223.596C210.972 223.596 225.404 238.028 225.404 255.83C225.404 273.633 210.972 288.064 193.17 288.064C175.368 288.064 160.936 273.633 160.936 255.83C160.936 238.028 175.368 223.596 193.17 223.596ZM226.596 255.83C226.596 237.37 211.631 222.404 193.17 222.404C174.709 222.404 159.744 237.37 159.744 255.83C159.744 274.291 174.709 289.256 193.17 289.256C211.631 289.256 226.596 274.291 226.596 255.83Z" fill="#1B3C4C"/>
<path fill-rule="evenodd" clip-rule="evenodd" d="M102.066 201.289C102.287 201.058 102.604 200.947 102.921 200.989C113.559 202.419 119.731 207.283 124.059 213.76C126.204 216.969 127.888 220.56 129.447 224.277C130.107 225.851 130.737 227.427 131.37 229.008C132.251 231.213 133.137 233.429 134.116 235.668C134.337 236.173 134.107 236.761 133.602 236.981C133.097 237.202 132.509 236.972 132.288 236.467C131.307 234.224 130.39 231.93 129.491 229.685C128.859 228.104 128.236 226.547 127.607 225.048C126.063 221.369 124.438 217.917 122.4 214.868C118.542 209.094 113.179 204.715 103.955 203.163C104.325 207.202 103.043 210.993 100.259 213.929C97.1755 217.18 92.3303 219.304 86.0562 219.671C68.1039 220.722 56.7787 213.089 51.5036 203.97C34.1704 208.587 24.1679 222.248 18.8318 238.049C18.6556 238.571 18.0895 238.852 17.5675 238.675C17.0454 238.499 16.7651 237.933 16.9414 237.411C22.4758 221.023 33.0684 206.492 51.758 201.845C52.1996 201.735 52.6596 201.938 52.8762 202.338C57.5718 211.011 68.2403 218.716 85.9396 217.68C91.838 217.335 96.1572 215.355 98.8106 212.557C101.451 209.772 102.521 206.1 101.806 202.155C101.749 201.842 101.846 201.519 102.066 201.289Z" fill="#1B3C4C"/>
<path fill-rule="evenodd" clip-rule="evenodd" d="M104.115 152.142C103.572 152.235 103.207 152.751 103.301 153.293C103.359 153.629 103.515 154.292 103.719 155.151C103.728 155.19 103.737 155.23 103.747 155.269C103.969 156.209 104.254 157.417 104.564 158.822C105.185 161.633 105.904 165.221 106.414 168.976C106.924 172.737 107.219 176.632 107.004 180.065C106.786 183.531 106.058 186.365 104.665 188.149C101.809 191.804 96.4011 192.879 91.2328 192.813C88.6909 192.781 86.2966 192.473 84.4609 192.116C83.5431 191.938 82.7746 191.749 82.2048 191.581C81.9192 191.496 81.6927 191.42 81.5268 191.355C81.3973 191.305 81.3338 191.273 81.3142 191.263C81.3056 191.258 81.3054 191.258 81.3119 191.263C80.8616 190.945 80.2391 191.053 79.9216 191.503C79.6041 191.953 79.7118 192.575 80.1622 192.892C80.35 193.025 80.5901 193.131 80.8026 193.213C81.036 193.304 81.3187 193.399 81.6393 193.494C82.2818 193.684 83.1137 193.886 84.0809 194.074C86.0151 194.45 88.5293 194.774 91.2082 194.808C96.4816 194.875 102.764 193.823 106.238 189.377C108.009 187.11 108.77 183.776 108.995 180.191C109.222 176.572 108.91 172.532 108.391 168.709C107.872 164.879 107.14 161.232 106.512 158.393C106.199 156.972 105.911 155.751 105.688 154.812C105.461 153.849 105.314 153.228 105.267 152.955C105.174 152.413 104.658 152.048 104.115 152.142Z" fill="#1B3C4C"/>
<path fill-rule="evenodd" clip-rule="evenodd" d="M82.2606 177.917C82.4617 177.626 82.8022 177.463 83.1553 177.489C85.9485 177.696 91.0773 177.589 94.1711 177.524C95.1706 177.503 95.9577 177.487 96.385 177.487C96.6726 177.487 96.9462 177.611 97.1356 177.827C97.325 178.043 97.4119 178.331 97.3739 178.616C97.2208 179.764 96.772 181.329 96.0772 182.681C95.7284 183.36 95.2992 184.021 94.7838 184.555C94.2705 185.087 93.6227 185.541 92.8391 185.698C91.2648 186.013 89.358 186.025 87.4307 185.043C85.5075 184.063 83.6967 182.161 82.1775 178.906C82.0278 178.585 82.0594 178.209 82.2606 177.917ZM84.7689 179.564C85.9414 181.57 87.1812 182.677 88.3367 183.266C89.7495 183.986 91.1685 183.998 92.4477 183.742C92.7035 183.691 93.0084 183.522 93.3483 183.17C93.686 182.82 94.0103 182.338 94.3024 181.77C94.6763 181.042 94.9674 180.232 95.1614 179.5C94.9212 179.504 94.6571 179.51 94.373 179.516C91.8534 179.569 87.7602 179.655 84.7689 179.564Z" fill="#1B3C4C"/>
<path fill-rule="evenodd" clip-rule="evenodd" d="M92.46 193.497C93.011 193.497 93.4577 193.944 93.4577 194.494V201.065C95.0023 201.212 96.8617 201.427 98.5511 201.677C99.5701 201.827 100.539 201.992 101.344 202.164C102.115 202.328 102.84 202.518 103.3 202.748C103.793 202.995 103.992 203.594 103.746 204.087C103.5 204.579 102.9 204.779 102.407 204.533C102.203 204.43 101.712 204.281 100.928 204.114C100.18 203.955 99.2567 203.798 98.2594 203.65C96.2658 203.356 94.0211 203.108 92.3772 202.971C91.8601 202.928 91.4624 202.496 91.4624 201.978V194.494C91.4624 193.944 91.9091 193.497 92.46 193.497Z" fill="#1B3C4C"/>
<path fill-rule="evenodd" clip-rule="evenodd" d="M92.8021 165.384C92.2531 165.43 91.8457 165.913 91.8923 166.461L92.1221 169.169C92.1683 169.714 92.645 170.12 93.1905 170.08C93.4957 170.057 94.0247 170.071 94.5385 170.191C95.0764 170.316 95.4245 170.516 95.5855 170.729C95.7871 170.995 95.8647 171.313 95.8607 171.646C95.8574 171.925 95.7963 172.172 95.7417 172.324C95.426 172.69 94.5551 173.371 93.3475 173.322C92.7969 173.299 92.3325 173.727 92.3102 174.277C92.2878 174.828 92.7161 175.292 93.2666 175.315C95.4055 175.402 96.8918 174.138 97.4151 173.424C97.4542 173.371 97.4879 173.314 97.5157 173.254C97.6867 172.885 97.8483 172.312 97.856 171.671C97.8638 171.017 97.7111 170.231 97.1756 169.524C96.5994 168.764 95.7059 168.415 94.9911 168.248C94.6638 168.172 94.3374 168.126 94.0339 168.1L93.8806 166.294C93.834 165.745 93.3512 165.337 92.8021 165.384Z" fill="#1B3C4C"/>
<path fill-rule="evenodd" clip-rule="evenodd" d="M82.2917 154.531C83.7058 154.011 84.5768 154.519 84.7076 154.637C85.1182 155.004 85.7489 154.97 86.1165 154.56C86.484 154.15 86.4491 153.52 86.0385 153.152C85.3462 152.532 83.6941 151.889 81.6002 152.659C80.5303 153.053 79.6663 153.757 79.0326 154.435C78.3987 155.114 77.9463 155.819 77.7117 156.297C77.4692 156.791 77.6737 157.389 78.1686 157.632C78.6634 157.875 79.2611 157.671 79.5036 157.177C79.6509 156.877 79.9907 156.334 80.492 155.797C80.9935 155.26 81.6076 154.783 82.2917 154.531Z" fill="#1B3C4C"/>
<path fill-rule="evenodd" clip-rule="evenodd" d="M99.0794 154.531C97.6652 154.011 96.7942 154.519 96.6635 154.637C96.2529 155.004 95.6222 154.97 95.2546 154.56C94.8871 154.15 94.922 153.52 95.3326 153.152C96.0249 152.532 97.677 151.889 99.7708 152.659C100.841 153.053 101.705 153.757 102.338 154.435C102.972 155.114 103.425 155.819 103.659 156.297C103.902 156.791 103.697 157.389 103.203 157.632C102.708 157.875 102.11 157.671 101.867 157.177C101.72 156.877 101.38 156.334 100.879 155.797C100.378 155.26 99.7635 154.783 99.0794 154.531Z" fill="#1B3C4C"/>
<path fill-rule="evenodd" clip-rule="evenodd" d="M84.361 163.682C85.1813 163.81 85.7862 164.256 86.0656 164.582C86.4241 165 87.0539 165.049 87.4723 164.69C87.8907 164.332 87.9392 163.702 87.5807 163.284C87.0286 162.64 86.0122 161.922 84.6707 161.711C83.2888 161.494 81.6646 161.831 79.9746 163.146C79.5397 163.484 79.4615 164.111 79.7998 164.545C80.1381 164.98 80.7649 165.058 81.1998 164.72C82.503 163.707 83.5811 163.559 84.361 163.682Z" fill="#1B3C4C"/>
<path fill-rule="evenodd" clip-rule="evenodd" d="M99.7433 164.136C100.564 164.265 101.169 164.71 101.448 165.036C101.806 165.455 102.436 165.503 102.855 165.145C103.273 164.786 103.322 164.157 102.963 163.738C102.411 163.094 101.395 162.376 100.053 162.165C98.6711 161.948 97.0469 162.286 95.3569 163.6C94.922 163.938 94.8438 164.565 95.1821 165C95.5204 165.435 96.1472 165.513 96.5821 165.175C97.8854 164.161 98.9634 164.013 99.7433 164.136Z" fill="#1B3C4C"/>
<path fill-rule="evenodd" clip-rule="evenodd" d="M67.0707 174.374C67.6214 174.357 68.0816 174.79 68.0985 175.34L68.9299 202.363C68.9464 202.899 68.535 203.353 67.9991 203.389C62.7982 203.735 60.1562 204.408 56.2169 205.41C55.6595 205.552 55.0761 205.7 54.4557 205.855C53.9212 205.989 53.3795 205.664 53.2459 205.13C53.1122 204.595 53.4371 204.054 53.9717 203.92C54.5842 203.767 55.1633 203.62 55.7196 203.478C59.4378 202.531 62.1315 201.846 66.9062 201.468L66.1042 175.402C66.0872 174.851 66.5199 174.391 67.0707 174.374Z" fill="#1B3C4C"/>
<path d="M82.6212 147.497C92.3944 147.497 100.124 144.551 102.16 142.016C103.408 149.083 107.565 164.087 107.565 168.207C113.566 158.899 116.865 147.242 107.959 138.37C105.516 134.719 90.6519 127.722 83.5254 124.68C73.8864 91.0666 24.258 124.919 51.4577 147.497C40.2165 169.87 56.1704 179.066 67.6549 181.926C67.2391 180.263 67.0979 172.697 66.8234 172.78C64.0892 173.612 57.5273 169.114 60.1717 163.634C62.6661 158.465 67.6549 165.155 67.6549 163.634C67.6549 162.113 70.4046 147.497 82.6212 147.497Z" fill="#B5ECE8"/>
<path fill-rule="evenodd" clip-rule="evenodd" d="M44.8994 132.02C43.9874 137.449 45.8097 143.457 52.3727 148.905C52.7299 149.201 52.8353 149.705 52.6269 150.12C47.1229 161.074 48.1249 168.972 51.6662 174.254C55.0249 179.263 60.8023 182.128 66.1241 182.966C66.1386 182.45 66.1592 181.851 66.1808 181.221C66.2089 180.403 66.2387 179.533 66.2595 178.723C66.2855 177.711 66.2978 176.786 66.2791 176.12C66.2767 176.034 66.2739 175.955 66.2706 175.883C65.5734 175.773 64.817 175.536 64.0783 175.207C63.0216 174.737 61.9284 174.044 61.014 173.149C60.0995 172.254 59.3345 171.127 59.0029 169.79C58.667 168.435 58.7953 166.941 59.5509 165.376C60.2743 163.876 61.2901 163.042 62.5221 162.856C63.6661 162.683 64.7624 163.114 65.5981 163.562C66.1387 163.852 66.6702 164.21 67.093 164.501C67.2005 163.908 67.3651 163.179 67.5932 162.374C68.0582 160.732 68.812 158.682 69.97 156.672C72.2879 152.649 76.3059 148.675 82.8988 148.675C87.6893 148.675 91.9655 147.952 95.2753 146.929C96.9305 146.418 98.3297 145.836 99.4239 145.241C100.533 144.638 101.269 144.054 101.66 143.567C101.905 143.261 102.307 143.128 102.686 143.225C103.065 143.322 103.353 143.632 103.421 144.018C103.908 146.78 104.846 150.773 105.811 154.879C106.068 155.974 106.327 157.077 106.58 158.166C107.178 160.742 107.74 163.24 108.153 165.354C108.289 166.053 108.411 166.719 108.513 167.34C110.7 163.447 112.273 159.289 112.636 155.211C113.074 150.289 111.755 145.458 107.533 141.252C107.486 141.205 107.444 141.154 107.408 141.1C106.922 140.374 105.696 139.348 103.842 138.127C102.032 136.935 99.7537 135.64 97.3114 134.354C92.4292 131.784 86.9572 129.286 83.4113 127.772C83.1351 127.654 82.9268 127.418 82.8441 127.13C80.5188 119.021 75.8582 115.15 70.6913 114.039C65.4475 112.912 59.4685 114.581 54.5234 118.011C49.5808 121.44 45.8228 126.523 44.8994 132.02ZM84.6274 126.123C82.0854 117.724 77.0043 113.356 71.1108 112.089C65.1883 110.816 58.6528 112.719 53.386 116.372C48.1166 120.027 43.965 125.539 42.9317 131.69C41.9175 137.727 43.9376 144.21 50.497 149.928C45.1435 161.001 46.0507 169.461 50.0088 175.364C54.0037 181.322 60.9586 184.446 66.9946 185.093C67.2761 185.123 67.5571 185.032 67.7677 184.843C67.9783 184.654 68.0985 184.384 68.0985 184.101C68.0985 183.505 68.1332 182.5 68.1727 181.357C68.201 180.535 68.2319 179.64 68.2541 178.774C68.2802 177.759 68.2939 176.788 68.2736 176.064C68.2637 175.708 68.2447 175.377 68.2079 175.121C68.1907 175.002 68.1618 174.838 68.1027 174.682C68.0746 174.608 68.0154 174.468 67.8985 174.33C67.7757 174.186 67.5096 173.958 67.1013 173.958C66.5705 173.958 65.774 173.779 64.8902 173.385C64.0186 172.997 63.1317 172.431 62.4098 171.724C61.688 171.018 61.1607 170.201 60.9395 169.31C60.7227 168.436 60.7813 167.417 61.3479 166.242C61.8717 165.157 62.4149 164.89 62.8198 164.828C63.3128 164.754 63.9314 164.932 64.6547 165.32C65.1648 165.594 65.6092 165.901 66.0309 166.193C66.2126 166.319 66.39 166.442 66.5666 166.558C66.7031 166.647 66.8474 166.737 66.9883 166.812C67.116 166.88 67.3068 166.971 67.5243 167.013C67.7375 167.054 68.1928 167.083 68.5685 166.721C68.9028 166.398 68.9302 165.989 68.9302 165.809C68.9302 165.568 69.0718 164.475 69.513 162.918C69.9453 161.391 70.6424 159.502 71.699 157.668C73.8101 154.003 77.2753 150.67 82.8988 150.67C87.8816 150.67 92.357 149.919 95.8646 148.835C97.6181 148.293 99.144 147.664 100.377 146.993C100.892 146.713 101.366 146.421 101.79 146.117C102.321 148.751 103.096 152.048 103.877 155.374C104.132 156.459 104.388 157.548 104.636 158.617C105.234 161.191 105.789 163.659 106.194 165.737C106.605 167.842 106.845 169.462 106.845 170.382C106.845 170.824 107.136 171.214 107.561 171.339C107.985 171.464 108.442 171.294 108.681 170.922C111.729 166.194 114.142 160.796 114.623 155.388C115.106 149.962 113.638 144.555 109.007 139.905C108.25 138.828 106.734 137.642 104.939 136.461C103.052 135.219 100.711 133.89 98.241 132.589C93.4936 130.09 88.2103 127.665 84.6274 126.123Z" fill="#1B3C4C"/>
<path fill-rule="evenodd" clip-rule="evenodd" d="M147.171 192C147.171 153.795 117.485 122.523 79.9219 119.994L80.056 118.004C118.66 120.603 149.166 152.739 149.166 192C149.166 232.96 115.961 266.166 75.0002 266.166C34.0391 266.166 0.833984 232.96 0.833984 192C0.833984 161.196 19.6135 134.78 46.3447 123.573L47.1163 125.412C21.1006 136.32 2.82926 162.027 2.82926 192C2.82926 231.859 35.1415 264.171 75.0002 264.171C114.859 264.171 147.171 231.859 147.171 192Z" fill="#1B3C4C"/>
<path d="M168.299 50.8505C166.181 51.8979 161.395 53.6375 159.185 52.2167C156.424 50.4407 156.562 47.9817 156.976 46.8887C157.39 45.7958 159.738 40.7411 164.018 40.6045C168.299 40.4679 171.198 41.2876 171.751 42.5171C171.659 41.8796 171.806 40.4407 173.132 39.7849C174.788 38.9653 178.379 38.6919 180.588 40.6045C182.189 41.9907 182.476 42.9584 182.413 43.3653C182.635 42.6152 183.33 41.3529 184.592 41.5611C186.249 41.8343 188.228 42.8418 189.011 44.2934C189.793 45.7449 189.772 46.7685 189.563 47.9819C190.484 47.7998 193.129 48.0852 194.217 49.4847C195.598 51.2606 195.915 52.3536 195.362 55.3591C196.109 57.3568 196.48 61.7326 191.994 63.2544C190.936 63.6771 188.438 64.3323 186.914 63.5714C186.452 62.5068 186.277 60.1405 186.387 58.5012C185.283 57.7727 183.129 55.7691 183.349 53.5831C181.186 53.8563 176.86 53.4191 176.86 49.4847C175.203 50.5774 171.171 52.3804 168.299 50.8505Z" fill="#ACD2E6"/>
<path fill-rule="evenodd" clip-rule="evenodd" d="M187.475 65.0257C186.757 65.2788 186.217 65.6823 186.042 65.9435C185.783 66.3323 185.257 66.4372 184.869 66.1779C184.48 65.9186 184.375 65.3933 184.635 65.0046C185.096 64.314 186.024 63.7431 186.913 63.4298C187.787 63.122 188.964 62.9438 189.886 63.4705C190.404 63.766 190.714 64.2395 190.896 64.705C191.077 65.1691 191.153 65.6799 191.174 66.1545C191.216 67.0879 191.048 68.0714 190.821 68.6416C190.396 69.7113 189.852 70.2565 189.044 70.8825C188.345 71.4239 187.38 71.6859 186.427 71.7184L185.781 82.445L186.433 82.6647C186.876 82.8138 187.114 83.2937 186.965 83.7365C186.816 84.1793 186.336 84.4174 185.893 84.2683L184.627 83.8421C184.265 83.7203 184.029 83.371 184.052 82.9898L184.787 70.7908C184.801 70.5583 184.91 70.3418 185.089 70.1923C185.268 70.0429 185.5 69.9737 185.732 70.0011C186.663 70.1113 187.55 69.8992 188.007 69.5454C188.676 69.0271 188.974 68.7075 189.248 68.0169C189.372 67.7069 189.516 66.9684 189.483 66.2299C189.467 65.8685 189.41 65.5558 189.319 65.3205C189.227 65.0865 189.125 64.9846 189.047 64.94C188.778 64.7868 188.209 64.7671 187.475 65.0257Z" fill="#1B3C4C"/>
<path fill-rule="evenodd" clip-rule="evenodd" d="M162.622 53.8613C163.082 53.9405 163.391 54.378 163.312 54.8385C163.275 55.0524 163.181 55.4775 163.048 56.0723C162.613 58.0315 161.769 61.8324 161.223 65.9974C160.871 68.6857 160.657 71.452 160.772 73.8465C160.89 76.2824 161.343 78.1621 162.177 79.2292C163.925 81.4667 167.266 82.1518 170.538 82.1101C172.138 82.0897 173.645 81.8958 174.801 81.6713C175.379 81.5591 175.86 81.4408 176.214 81.3361C176.392 81.2835 176.53 81.2367 176.628 81.1984C176.704 81.1685 176.735 81.1522 176.737 81.1518C177.117 80.8976 177.633 80.9918 177.898 81.3677C178.168 81.7495 178.076 82.2773 177.694 82.5467C177.553 82.6465 177.38 82.7212 177.242 82.7749C177.087 82.8355 176.901 82.8973 176.694 82.9586C176.278 83.0816 175.743 83.212 175.123 83.3323C173.884 83.573 172.275 83.7802 170.559 83.8021C167.198 83.8449 163.114 83.179 160.843 80.271C159.666 78.7655 159.202 76.4252 159.081 73.9287C158.959 71.3908 159.186 68.5123 159.545 65.7784C160.108 61.48 161.027 57.3525 161.44 55.499C161.547 55.0174 161.62 54.6893 161.644 54.5516C161.723 54.0911 162.161 53.782 162.622 53.8613Z" fill="#1B3C4C"/>
<path fill-rule="evenodd" clip-rule="evenodd" d="M167.874 82.0645C167.407 82.0645 167.028 82.4433 167.028 82.9106V84.1494L165.63 84.4929C165.176 84.6044 164.898 85.0627 165.01 85.5165C165.121 85.9703 165.58 86.2478 166.034 86.1363L168.076 85.6345C168.455 85.5415 168.721 85.2023 168.721 84.8128V82.9106C168.721 82.4433 168.342 82.0645 167.874 82.0645Z" fill="#1B3C4C"/>
<path fill-rule="evenodd" clip-rule="evenodd" d="M169.561 64.6891C170.027 64.7284 170.373 65.1377 170.333 65.6034L170.187 67.3231C170.148 67.7854 169.744 68.1301 169.281 68.0957C169.105 68.0827 168.791 68.0907 168.489 68.1612C168.166 68.2365 168.003 68.3478 167.945 68.4242C167.853 68.5461 167.812 68.6983 167.814 68.8758C167.815 69.0062 167.84 69.1226 167.864 69.2001C168.052 69.4006 168.533 69.757 169.189 69.7302C169.656 69.711 170.05 70.074 170.069 70.5409C170.087 71.0078 169.724 71.4017 169.257 71.4209C167.809 71.4801 166.804 70.6272 166.442 70.1334C166.409 70.0882 166.38 70.0398 166.357 69.989C166.236 69.7289 166.126 69.336 166.121 68.8967C166.116 68.4477 166.22 67.898 166.596 67.4024C167.006 66.8614 167.632 66.6236 168.105 66.5134C168.26 66.4772 168.415 66.451 168.564 66.4328L168.647 65.461C168.686 64.9954 169.096 64.6498 169.561 64.6891Z" fill="#1B3C4C"/>
<path d="M176.214 64.0852C176.095 64.7754 175.718 65.2868 175.372 65.2273C175.027 65.1679 174.843 64.5602 174.962 63.87C175.081 63.1798 175.458 62.6684 175.803 62.7278C176.149 62.7873 176.333 63.395 176.214 64.0852Z" fill="#1B3C4C"/>
<path d="M166.16 63.4512C166.04 64.1414 165.664 64.6527 165.318 64.5933C164.972 64.5339 164.789 63.9261 164.908 63.2359C165.027 62.5457 165.404 62.0344 165.749 62.0938C166.095 62.1532 166.279 62.761 166.16 63.4512Z" fill="#1B3C4C"/>
<path fill-rule="evenodd" clip-rule="evenodd" d="M166.234 58.5865C166.23 58.5822 166.225 58.5768 166.218 58.5702C166.183 58.5373 166.126 58.494 166.049 58.4549C165.899 58.3777 165.706 58.3312 165.484 58.373C165.294 58.4087 165.079 58.5399 164.845 58.7828C164.617 59.0192 164.438 59.2887 164.291 59.5116L164.286 59.5185C164.029 59.9083 163.503 60.0156 163.113 59.758C162.724 59.5004 162.617 58.9756 162.874 58.5857C162.881 58.5762 162.887 58.5664 162.894 58.5561C163.036 58.3404 163.288 57.9592 163.626 57.6086C163.976 57.2455 164.491 56.8382 165.171 56.7102C165.818 56.5883 166.392 56.7282 166.824 56.9499C167.216 57.1512 167.596 57.4778 167.763 57.8622C167.95 58.2905 167.754 58.7891 167.325 58.9759C166.913 59.1555 166.436 58.9812 166.234 58.5865ZM166.244 58.5977C166.244 58.5976 166.243 58.5968 166.242 58.5953C166.243 58.5969 166.244 58.5977 166.244 58.5977Z" fill="#1B3C4C"/>
<path fill-rule="evenodd" clip-rule="evenodd" d="M175.116 58.5865C175.12 58.5822 175.126 58.5768 175.133 58.5702C175.168 58.5373 175.225 58.494 175.301 58.4549C175.451 58.3777 175.644 58.3312 175.866 58.373C176.056 58.4087 176.271 58.5399 176.506 58.7828C176.733 59.0192 176.912 59.2887 177.059 59.5116L177.064 59.5185C177.322 59.9083 177.847 60.0156 178.237 59.758C178.627 59.5004 178.734 58.9756 178.476 58.5857C178.469 58.5762 178.463 58.5664 178.456 58.5561C178.314 58.3404 178.062 57.9592 177.724 57.6086C177.374 57.2455 176.859 56.8382 176.179 56.7102C175.532 56.5883 174.958 56.7282 174.526 56.9499C174.135 57.1512 173.754 57.4778 173.587 57.8622C173.4 58.2905 173.596 58.7891 174.025 58.9759C174.437 59.1555 174.914 58.9812 175.116 58.5865ZM175.106 58.5977C175.106 58.5976 175.107 58.5968 175.108 58.5953C175.107 58.5969 175.106 58.5977 175.106 58.5977Z" fill="#1B3C4C"/>
<path fill-rule="evenodd" clip-rule="evenodd" d="M169.378 74.7582C169.382 74.7628 169.387 74.7687 169.393 74.7759C169.425 74.8117 169.478 74.8597 169.551 74.9054C169.694 74.9952 169.882 75.0583 170.107 75.0359C170.299 75.0168 170.525 74.9047 170.779 74.683C171.027 74.4673 171.228 74.2142 171.394 74.0049L171.399 73.9984C171.69 73.6324 172.222 73.571 172.588 73.8614C172.955 74.1518 173.016 74.684 172.725 75.05C172.718 75.0589 172.711 75.0682 172.703 75.0778C172.543 75.2804 172.259 75.6384 171.892 75.9583C171.511 76.2898 170.963 76.6509 170.275 76.7196C169.62 76.7849 169.059 76.5958 168.649 76.3376C168.276 76.1031 167.926 75.7448 167.792 75.3474C167.643 74.9045 167.882 74.4247 168.325 74.2758C168.751 74.1325 169.211 74.3475 169.378 74.7582ZM169.37 74.7463C169.369 74.7463 169.37 74.7471 169.371 74.7488C169.37 74.7471 169.37 74.7463 169.37 74.7463Z" fill="#1B3C4C"/>
<path fill-rule="evenodd" clip-rule="evenodd" d="M175.035 41.9175C173.771 41.8549 172.607 42.1112 171.932 42.4455C171.084 42.8646 170.945 43.8236 171.013 44.2985C171.073 44.716 170.817 45.1142 170.412 45.2319C170.006 45.3496 169.576 45.1508 169.403 44.766C169.363 44.6755 169.237 44.5079 168.903 44.3098C168.578 44.116 168.111 43.9282 167.496 43.7702C166.268 43.4546 164.558 43.2858 162.47 43.3524C160.679 43.4096 159.227 44.4977 158.124 45.8298C157.027 47.1548 156.377 48.602 156.192 49.0908C155.888 49.8925 155.711 51.8918 158.068 53.4073C158.442 53.6476 158.983 53.7881 159.69 53.8063C160.39 53.8243 161.189 53.7206 162.017 53.5357C163.674 53.1655 165.335 52.4955 166.348 51.9944C166.593 51.8734 166.88 51.8778 167.121 52.0061C168.291 52.629 169.771 52.6057 171.253 52.2328C172.721 51.8633 174.057 51.1829 174.818 50.6806C175.078 50.5092 175.411 50.4943 175.686 50.6419C175.96 50.7895 176.131 51.0756 176.131 51.3869C176.131 52.2057 176.352 52.7895 176.673 53.2203C177 53.6597 177.471 53.993 178.045 54.2338C179.216 54.7244 180.676 54.7712 181.668 54.6459C181.924 54.6136 182.181 54.6996 182.365 54.8796C182.55 55.0596 182.642 55.3139 182.616 55.5704C182.536 56.3618 182.884 57.1978 183.473 57.9833C184.055 58.7592 184.794 59.3779 185.278 59.6971C185.532 59.8649 185.677 60.1564 185.656 60.4603C185.604 61.2303 185.619 62.186 185.703 63.0746C185.789 63.987 185.94 64.7331 186.115 65.1367C186.301 65.5654 186.104 66.0637 185.676 66.2498C185.247 66.4359 184.748 66.2392 184.562 65.8106C184.275 65.1496 184.107 64.1802 184.018 63.2335C183.943 62.4349 183.917 61.5844 183.943 60.8237C183.375 60.3923 182.691 59.7617 182.119 58.9986C181.583 58.284 181.098 57.39 180.955 56.3935C179.877 56.4218 178.561 56.2849 177.391 55.7943C176.613 55.4681 175.867 54.9714 175.315 54.2309C174.997 53.803 174.756 53.311 174.608 52.7537C173.781 53.1772 172.76 53.5986 171.666 53.8738C170.128 54.2609 168.33 54.3871 166.723 53.6912C165.613 54.208 164.01 54.8242 162.386 55.1872C161.476 55.3904 160.531 55.5207 159.647 55.498C158.769 55.4754 157.883 55.3006 157.152 54.8305C153.986 52.7941 154.085 49.8753 154.609 48.4912C154.838 47.887 155.57 46.2605 156.82 44.7507C158.064 43.2481 159.927 41.7405 162.416 41.6611C164.608 41.5911 166.488 41.7638 167.918 42.1313C168.534 42.2895 169.087 42.4891 169.552 42.7343C169.806 42.0543 170.294 41.3675 171.181 40.9288C172.162 40.4435 173.622 40.1533 175.119 40.2273C176.623 40.3016 178.276 40.7498 179.567 41.8671C180.192 42.4085 180.652 42.9092 180.98 43.3646C181.475 42.8669 182.207 42.4723 183.155 42.6285C184.086 42.782 185.093 43.1377 185.981 43.6572C186.864 44.1729 187.692 44.8872 188.18 45.7942C188.615 46.6005 188.844 47.3227 188.924 48.0345C188.962 48.3662 188.965 48.6858 188.948 48.9978C189.418 49.0218 189.94 49.0949 190.453 49.2206C191.438 49.4619 192.593 49.9459 193.31 50.8677C194.031 51.7945 194.546 52.6329 194.768 53.6893C194.974 54.6742 194.909 55.7683 194.66 57.1906C195.034 58.3084 195.284 59.9616 194.887 61.5881C194.448 63.3859 193.224 65.0984 190.691 65.9579C190.248 66.108 189.768 65.871 189.618 65.4285C189.467 64.986 189.704 64.5055 190.147 64.3554C192.099 63.693 192.933 62.4568 193.243 61.1867C193.567 59.8586 193.325 58.4421 192.994 57.5573C192.941 57.414 192.927 57.2589 192.955 57.1084C193.225 55.6353 193.259 54.7428 193.111 54.0368C192.967 53.3514 192.634 52.7554 191.973 51.9062C191.602 51.4284 190.891 51.07 190.05 50.8642C189.214 50.6594 188.454 50.6545 188.152 50.7142C187.879 50.7683 187.596 50.6844 187.397 50.49C187.197 50.2955 187.106 50.0154 187.154 49.7409C187.252 49.1659 187.295 48.6972 187.242 48.2238C187.19 47.7576 187.038 47.2422 186.69 46.597C186.397 46.0525 185.844 45.5373 185.127 45.118C184.416 44.7026 183.605 44.4179 182.879 44.2982C182.589 44.2504 182.355 44.3546 182.12 44.6224C181.902 44.8715 181.745 45.2043 181.662 45.4654C181.644 45.5502 181.619 45.6326 181.584 45.7121C181.409 46.1167 180.952 46.319 180.535 46.1769C180.117 46.0349 179.879 45.5962 179.987 45.1687C179.99 45.1565 179.993 45.1442 179.997 45.1318C179.992 45.096 179.973 44.9833 179.869 44.7764C179.688 44.4175 179.287 43.8637 178.459 43.1464C177.54 42.3511 176.293 41.9797 175.035 41.9175Z" fill="#1B3C4C"/>
<path fill-rule="evenodd" clip-rule="evenodd" d="M185.543 82.8805C185.692 82.559 186.025 82.3644 186.378 82.3929C194.177 83.0219 201.656 86.0786 208.701 91.9198C209.061 92.2181 209 92.6403 208.701 93C208.403 93.3597 207.86 93.4 207.5 93.1017C200.821 87.5643 194.025 84.8729 186.821 84.1328C182.45 93.1016 175.421 96.3699 171.554 96.7145C171.378 96.7301 171.202 96.6906 171.05 96.6013C169.013 95.4056 167.467 92.9757 166.44 90.5926C165.592 88.6267 165.039 86.5526 164.866 84.9603C158.539 86.0874 155.085 90.03 151.766 94.355C151.478 94.7294 151.191 95.1077 150.903 95.4877C147.749 99.6477 144.444 104.007 138.622 105.667L138.158 104.039C143.411 102.542 146.38 98.6376 149.592 94.4136C149.867 94.0525 150.143 93.6892 150.423 93.3248C153.935 88.7484 157.92 84.1387 165.546 83.1439C165.787 83.1124 166.03 83.1865 166.213 83.3471C166.396 83.5078 166.501 83.7395 166.501 83.983C166.501 85.3283 167.017 87.655 167.994 89.9229C168.93 92.0951 170.211 94.0259 171.679 94.9991C175.067 94.5689 181.543 91.5066 185.543 82.8805Z" fill="#1B3C4C"/>
<path fill-rule="evenodd" clip-rule="evenodd" d="M168.329 23.846C143.21 23.846 122.847 44.209 122.847 69.3285C122.847 94.448 143.21 114.811 168.329 114.811C193.448 114.811 213.811 94.448 213.811 69.3285C213.811 44.209 193.448 23.846 168.329 23.846ZM121.154 69.3285C121.154 43.2749 142.275 22.1538 168.329 22.1538C194.383 22.1538 215.504 43.2749 215.504 69.3285C215.504 95.3821 194.383 116.503 168.329 116.503C142.275 116.503 121.154 95.3821 121.154 69.3285Z" fill="#1B3C4C"/>
<defs>
<filter id="filter0_d_131_9464" x="240" y="219" width="195.136" height="133.153" filterUnits="userSpaceOnUse" color-interpolation-filters="sRGB">
<feFlood flood-opacity="0" result="BackgroundImageFix"/>
<feColorMatrix in="SourceAlpha" type="matrix" values="0 0 0 0 0 0 0 0 0 0 0 0 0 0 0 0 0 0 127 0" result="hardAlpha"/>
<feOffset/>
<feGaussianBlur stdDeviation="15"/>
<feComposite in2="hardAlpha" operator="out"/>
<feColorMatrix type="matrix" values="0 0 0 0 0.796078 0 0 0 0 0.866667 0 0 0 0 0.901961 0 0 0 0.5 0"/>
<feBlend mode="multiply" in2="BackgroundImageFix" result="effect1_dropShadow_131_9464"/>
<feBlend mode="normal" in="SourceGraphic" in2="effect1_dropShadow_131_9464" result="shape"/>
</filter>
<filter id="filter1_d_131_9464" x="292" y="109" width="195" height="133" filterUnits="userSpaceOnUse" color-interpolation-filters="sRGB">
<feFlood flood-opacity="0" result="BackgroundImageFix"/>
<feColorMatrix in="SourceAlpha" type="matrix" values="0 0 0 0 0 0 0 0 0 0 0 0 0 0 0 0 0 0 127 0" result="hardAlpha"/>
<feOffset/>
<feGaussianBlur stdDeviation="15"/>
<feComposite in2="hardAlpha" operator="out"/>
<feColorMatrix type="matrix" values="0 0 0 0 0.796078 0 0 0 0 0.866667 0 0 0 0 0.901961 0 0 0 1 0"/>
<feBlend mode="multiply" in2="BackgroundImageFix" result="effect1_dropShadow_131_9464"/>
<feBlend mode="normal" in="SourceGraphic" in2="effect1_dropShadow_131_9464" result="shape"/>
</filter>
<filter id="filter2_d_131_9464" x="345" y="0" width="195.136" height="133.153" filterUnits="userSpaceOnUse" color-interpolation-filters="sRGB">
<feFlood flood-opacity="0" result="BackgroundImageFix"/>
<feColorMatrix in="SourceAlpha" type="matrix" values="0 0 0 0 0 0 0 0 0 0 0 0 0 0 0 0 0 0 127 0" result="hardAlpha"/>
<feOffset/>
<feGaussianBlur stdDeviation="15"/>
<feComposite in2="hardAlpha" operator="out"/>
<feColorMatrix type="matrix" values="0 0 0 0 0.796078 0 0 0 0 0.866667 0 0 0 0 0.901961 0 0 0 0.5 0"/>
<feBlend mode="multiply" in2="BackgroundImageFix" result="effect1_dropShadow_131_9464"/>
<feBlend mode="normal" in="SourceGraphic" in2="effect1_dropShadow_131_9464" result="shape"/>
</filter>
<clipPath id="clip0_131_9464">
<rect width="11.0111" height="11.0231" fill="white" transform="translate(283.013 262.027)"/>
</clipPath>
<clipPath id="clip1_131_9464">
<rect width="11.0111" height="11.0231" fill="white" transform="translate(335.013 152.027)"/>
</clipPath>
<clipPath id="clip2_131_9464">
<rect width="11.0111" height="11.0231" fill="white" transform="translate(388.013 43.0273)"/>
</clipPath>
</defs>
</svg>