<svg width="24" height="20" viewBox="0 0 24 20" fill="none" xmlns="http://www.w3.org/2000/svg">
<path d="M9 0C6.23858 0 4 2.23858 4 5C4 7.76142 6.23858 10 9 10C11.7614 10 14 7.76142 14 5C14 2.23858 11.7614 0 9 0Z" fill="#0AC0B1"/>
<path d="M5 11C2.23858 11 0 13.2386 0 16V18C0 19.1046 0.895431 20 2 20H16C17.1046 20 18 19.1046 18 18V16C18 13.2386 15.7614 11 13 11H5Z" fill="#0AC0B1"/>
<path d="M20 4C20.5523 4 21 4.44772 21 5V7H23C23.5523 7 24 7.44772 24 8C24 8.55228 23.5523 9 23 9H21V11C21 11.5523 20.5523 12 20 12C19.4477 12 19 11.5523 19 11V9H17C16.4477 9 16 8.55228 16 8C16 7.44771 16.4477 7 17 7H19V5C19 4.44772 19.4477 4 20 4Z" fill="#0AC0B1"/>
</svg>